<svg width="314" height="125" viewBox="0 0 314 125" fill="none" xmlns="http://www.w3.org/2000/svg">
<path d="M0 0H50V100H0V0Z" fill="#154273"/>
<path d="M25.904 77.363H25.034V74.95H25.904V77.363ZM29.827 66.724H28.957V64.31H29.827V66.724ZM13.712 62.562C13.646 62.562 13.196 62.563 13.196 62.656C13.196 62.749 13.406 62.701 13.712 62.753C14.408 62.873 14.682 63.223 15.172 63.223C15.615 63.223 16.068 62.921 15.892 62.279C15.862 62.172 15.8 62.197 15.786 62.27C15.718 62.557 15.366 62.721 14.995 62.721C14.535 62.721 14.436 62.562 13.712 62.562ZM8.92 64.973C8.996 65.08 9.817 66.145 8.557 66.552C8.501 66.571 8.482 66.625 8.566 66.661C9.496 67.049 9.948 66.334 9.948 66.334C10.416 67.406 9.698 68.001 9.698 68.001C9.799 68.194 10.244 68.517 10.92 68.668C11.176 68.531 11.536 68.268 11.686 67.865C11.686 67.865 11.868 68.333 11.702 68.78C13.604 68.953 14.277 67.433 15.742 67.706C15.785 67.714 15.804 67.687 15.804 67.642C15.804 66.705 15.23 64.991 13.416 64.643C11.607 64.294 12.094 63.551 12.094 63.551C12.857 63.517 13.297 63.849 13.297 63.849C13.437 63.62 13.24 63.374 13.24 63.374C13.313 63.286 13.354 62.976 13.354 62.976C12.494 62.974 12.269 62.79 12.269 62.79C12.137 62.28 12.491 61.56 13.767 62.331C14.085 62.047 14.061 61.615 14.061 61.615C14.158 61.57 14.217 61.418 14.217 61.354C14.217 61.141 13.197 60.57 12.935 60.502C12.872 60.192 12.476 59.747 11.277 59.908C10.71 59.978 10.301 59.829 10.492 59.499C10.524 59.443 10.422 59.433 10.37 59.487C10.238 59.618 10.057 59.989 10.554 60.237C11.104 60.517 11.137 61.068 11.141 61.147C11.151 61.265 11.01 61.275 10.979 61.158C10.725 60.228 9.453 60.027 8.699 60.522C8.744 61.02 9.28 61.349 9.574 61.349C9.743 61.349 9.977 61.181 9.977 60.949C9.977 60.836 10.035 60.851 10.068 60.939C10.193 61.269 9.703 61.954 8.974 61.538C8.233 62.279 8.529 63.193 8.603 63.53C8.736 64.135 8.44 64.721 7.895 64.448C7.867 64.435 7.839 64.424 7.839 64.489C7.839 64.87 8.335 65.299 8.919 64.973H8.92ZM13.003 61.235C12.657 61.621 12.093 61.533 11.958 60.895C12.668 60.859 12.974 60.93 13.003 61.235ZM35.072 62.721C34.7 62.721 34.349 62.557 34.281 62.271C34.266 62.197 34.203 62.171 34.175 62.279C33.999 62.921 34.452 63.222 34.895 63.222C35.385 63.222 35.659 62.872 36.355 62.752C36.661 62.702 36.87 62.749 36.87 62.656C36.87 62.563 36.42 62.562 36.354 62.562C35.63 62.562 35.531 62.721 35.072 62.721ZM42.227 64.489C42.227 64.424 42.2 64.435 42.172 64.449C41.627 64.721 41.332 64.135 41.464 63.53C41.538 63.193 41.834 62.28 41.093 61.538C40.363 61.954 39.873 61.27 39.998 60.938C40.032 60.851 40.089 60.836 40.089 60.948C40.089 61.181 40.323 61.349 40.492 61.349C40.786 61.349 41.322 61.02 41.367 60.522C40.614 60.027 39.342 60.227 39.088 61.158C39.057 61.275 38.916 61.265 38.925 61.148C38.93 61.068 38.963 60.516 39.513 60.238C40.009 59.988 39.828 59.618 39.697 59.488C39.643 59.433 39.542 59.443 39.574 59.499C39.766 59.829 39.357 59.978 38.79 59.908C37.59 59.747 37.195 60.193 37.132 60.502C36.869 60.57 35.85 61.142 35.85 61.354C35.85 61.418 35.91 61.57 36.006 61.614C36.006 61.614 35.982 62.047 36.3 62.331C37.575 61.561 37.929 62.281 37.798 62.791C37.798 62.791 37.572 62.974 36.713 62.976C36.713 62.976 36.753 63.286 36.827 63.374C36.827 63.374 36.63 63.62 36.77 63.849C36.77 63.849 37.21 63.517 37.973 63.551C37.973 63.551 38.46 64.294 36.65 64.643C34.837 64.991 34.263 66.705 34.263 67.643C34.263 67.687 34.282 67.714 34.324 67.706C35.79 67.433 36.462 68.953 38.364 68.78C38.199 68.333 38.381 67.865 38.381 67.865C38.531 68.268 38.891 68.531 39.147 68.668C39.822 68.517 40.267 68.194 40.368 68.001C40.368 68.001 39.651 67.406 40.119 66.334C40.119 66.334 40.57 67.049 41.501 66.661C41.585 66.625 41.565 66.571 41.511 66.552C40.249 66.145 41.071 65.08 41.147 64.973C41.732 65.3 42.227 64.87 42.227 64.489ZM38.109 60.896C37.973 61.533 37.409 61.621 37.064 61.236C37.093 60.93 37.398 60.859 38.109 60.896ZM24.7 50.212C24.7 50.372 24.77 50.513 24.824 50.592C24.936 50.751 24.919 50.838 24.866 50.892C24.814 50.945 24.726 50.962 24.566 50.85C24.4546 50.7715 24.3222 50.7283 24.186 50.726C23.912 50.726 23.776 50.906 23.776 51.06C23.776 51.214 23.912 51.394 24.186 51.394C24.347 51.394 24.487 51.325 24.566 51.269C24.726 51.159 24.814 51.175 24.866 51.229C24.919 51.28 24.841 51.832 24.78 52.266C24.326 52.361 24.107 52.725 24.107 52.936C24.107 53.483 24.691 53.799 25.034 53.982C25.377 53.799 25.962 53.483 25.962 52.937C25.962 52.725 25.742 52.361 25.289 52.266C25.227 51.832 25.149 51.28 25.202 51.228C25.255 51.175 25.342 51.158 25.502 51.269C25.6133 51.3478 25.7457 51.3914 25.882 51.394C26.156 51.394 26.292 51.214 26.292 51.06C26.292 50.906 26.156 50.726 25.882 50.726C25.7458 50.7283 25.6134 50.7715 25.502 50.85C25.342 50.962 25.255 50.945 25.202 50.891C25.15 50.838 25.132 50.751 25.244 50.591C25.3223 50.4798 25.3658 50.3479 25.369 50.212C25.369 49.938 25.189 49.802 25.034 49.802C24.88 49.802 24.7 49.938 24.7 50.212ZM25.034 54.272C24.8574 54.2717 24.6879 54.3416 24.5628 54.4664C24.4377 54.5911 24.3673 54.7604 24.367 54.937C24.3667 55.1136 24.4366 55.2831 24.5614 55.4082C24.6861 55.5333 24.8554 55.6037 25.032 55.604C25.2041 55.5976 25.3669 55.5248 25.4865 55.4009C25.606 55.277 25.673 55.1116 25.6732 54.9395C25.6735 54.7673 25.6071 54.6017 25.4879 54.4775C25.3687 54.3532 25.206 54.2789 25.034 54.272ZM25.034 60.684C27.703 60.684 29.208 61.193 29.208 61.193C29.223 59.845 29.214 59.093 29.987 59.206C29.564 58.073 31.385 57.629 31.385 56.152C31.385 55.18 30.697 55.07 30.495 55.07C29.89 55.07 29.985 55.462 29.471 55.462C29.407 55.462 29.341 55.447 29.341 55.493C29.341 55.663 29.486 55.953 29.721 55.953C30.037 55.953 30.044 55.638 30.278 55.638C30.38 55.638 30.525 55.72 30.525 56.044C30.525 56.671 30.115 57.367 29.629 57.906C29.517 57.752 29.365 57.656 29.184 57.656C28.897 57.656 28.644 57.956 28.644 58.326C28.6417 58.4472 28.6663 58.5674 28.716 58.678C28.554 58.768 28.41 58.82 28.302 58.82C28.083 58.82 27.753 58.731 27.753 58.25C27.753 57.182 29.187 56.24 29.187 54.884C29.187 54.237 28.755 53.592 27.851 53.592C26.882 53.592 27.063 54.477 26.224 54.477C26.186 54.477 26.155 54.489 26.155 54.523C26.155 54.579 26.301 55.069 26.735 55.069C27.199 55.069 27.329 54.266 27.74 54.266C27.894 54.266 28.123 54.356 28.123 54.9C28.123 55.323 27.913 56.006 27.613 56.662C27.5584 56.6042 27.4929 56.5578 27.4203 56.5253C27.3478 56.4929 27.2695 56.4751 27.19 56.473C26.83 56.473 26.573 56.821 26.573 57.236C26.5713 57.3629 26.5953 57.4889 26.6436 57.6063C26.6919 57.7236 26.7635 57.83 26.854 57.919C26.643 58.189 26.427 58.41 26.134 58.41C25.554 58.41 25.298 58.081 25.298 57.723C25.298 57.335 26.005 57.195 26.005 56.59C26.005 56.179 25.738 55.947 25.481 55.947C25.204 55.947 25.062 56.13 25.034 56.13C25.006 56.13 24.864 55.947 24.587 55.947C24.33 55.947 24.063 56.179 24.063 56.59C24.063 57.195 24.77 57.335 24.77 57.723C24.77 58.081 24.514 58.41 23.936 58.41C23.642 58.41 23.426 58.19 23.214 57.92C23.3048 57.831 23.3766 57.7244 23.425 57.6069C23.4735 57.4893 23.4977 57.3632 23.496 57.236C23.496 56.821 23.238 56.473 22.878 56.473C22.7987 56.4752 22.7206 56.4931 22.6482 56.5255C22.5758 56.5579 22.5105 56.6043 22.456 56.662C22.156 56.006 21.946 55.323 21.946 54.9C21.946 54.356 22.176 54.266 22.329 54.266C22.739 54.266 22.869 55.069 23.335 55.069C23.768 55.069 23.914 54.579 23.914 54.523C23.914 54.489 23.882 54.477 23.844 54.477C23.006 54.477 23.186 53.592 22.218 53.592C21.314 53.592 20.882 54.237 20.882 54.884C20.882 56.24 22.316 57.182 22.316 58.251C22.316 58.731 21.986 58.82 21.766 58.82C21.658 58.82 21.515 58.768 21.352 58.678C21.4017 58.5674 21.4263 58.4472 21.424 58.326C21.424 57.956 21.172 57.656 20.884 57.656C20.703 57.656 20.552 57.752 20.44 57.906C19.954 57.367 19.544 56.671 19.544 56.044C19.544 55.72 19.689 55.638 19.79 55.638C20.025 55.638 20.032 55.953 20.347 55.953C20.583 55.953 20.727 55.663 20.727 55.493C20.727 55.447 20.662 55.463 20.598 55.463C20.083 55.463 20.178 55.07 19.575 55.07C19.371 55.07 18.684 55.18 18.684 56.152C18.684 57.629 20.504 58.073 20.082 59.206C20.855 59.093 20.845 59.846 20.86 61.193C20.86 61.193 22.366 60.684 25.034 60.684ZM20.142 62.674C19.415 62.834 18.894 62.984 18.661 63.055C18.673 62.735 18.795 62.437 19.081 62.371C19.117 62.361 19.126 62.313 19.092 62.29C18.445 61.86 18.098 62.684 18.088 62.71C17.858 62.693 17.509 62.765 17.509 63.075C17.509 64.002 15.389 64.517 14.897 64.593C15.763 64.927 16.124 66.019 16.124 66.019C16.753 65.389 17.488 64.835 17.65 64.835C17.817 64.835 17.88 65.045 17.894 65.17C17.898 65.21 17.936 65.224 17.962 65.188C18.292 64.698 18.133 64.586 18.107 64.442C18.086 64.327 18.119 63.898 18.599 63.948V70.136L18.352 70.186C18.239 70.206 17.334 69.436 16.298 68.719C15.262 68.003 14.706 68.432 13.524 69.071C11.978 69.908 10.414 69.149 10.414 69.149C9.081 70.102 8.628 72.855 8.628 72.855C8.27162 73.0026 7.89068 73.082 7.505 73.089C6.487 73.089 6.3 72.473 6.3 72.105C6.3 70.535 8.267 69.86 8.267 68.312C8.267 67.937 8.094 66.409 6.204 66.409L4.513 66.406C3.805 66.406 3.628 65.896 3.53 65.702C3.492 65.626 3.42 65.67 3.447 65.73C3.502 65.86 3.366 66.057 3.366 66.45C3.366 67.079 3.736 67.457 4.423 67.457C4.736 67.457 5.03 67.367 5.126 67.311C5.19 67.274 5.223 67.335 5.194 67.369C4.894 67.719 4.87 68.375 4.994 68.534C5.022 68.572 5.059 68.562 5.066 68.531C5.232 67.867 5.854 67.239 6.692 67.239C7.717 67.239 7.712 68.111 7.712 68.321C7.712 69.581 5.499 70.506 5.499 72.239C5.499 73.996 7.355 74.373 8.431 74.094C8.368 75.854 6.354 76.453 6.293 75.194C6.289 75.134 6.245 75.12 6.213 75.199C5.958 75.821 6.058 76.369 6.843 76.542C6.895 76.555 6.87 76.584 6.821 76.617C6.045 77.111 6.466 79.05 6.504 79.621C6.562 80.443 5.744 80.345 5.678 80.321C5.644 80.308 5.611 80.325 5.663 80.39C6.243 81.1 6.959 80.45 6.959 80.45C7.5 80.62 7.165 81.082 6.804 81.324C6.747 81.362 6.752 81.399 6.814 81.404C6.894 81.409 7.732 81.479 7.881 80.812C8.251 81.255 8.797 81.093 8.911 81.035C9.073 80.952 9.857 80.667 9.936 81.549C9.94 81.613 9.978 81.572 10.003 81.539C10.596 80.793 9.961 80.333 9.608 80.279C9.67189 80.2154 9.74935 80.167 9.83456 80.1376C9.91978 80.1081 10.0106 80.0983 10.1001 80.1089C10.1896 80.1195 10.2756 80.1502 10.3516 80.1987C10.4276 80.2472 10.4917 80.3122 10.539 80.389C10.568 80.427 10.595 80.435 10.6 80.361C10.65 79.415 9.88 79.329 9.382 79.74C9.359 79.643 9.192 79.111 9.945 79.13C9.963 79.13 9.999 79.103 9.961 79.066C9.377 78.449 8.897 79.01 8.786 79.144C8.526 79.451 7.878 79.329 7.819 79.321C8.022 76.034 10.917 77.198 11.315 75.601C11.334 75.516 11.372 75.548 11.38 75.579C11.49 75.969 12.472 76.023 12.652 75.255C12.662 75.207 12.656 75.17 12.622 75.206C11.784 76.043 9.896 73.426 12.472 71.299C14.672 69.486 16.642 70.497 17.392 71.094C17.432 71.357 17.275 71.441 17.175 71.474C17.139 71.484 17.128 71.517 17.185 71.54C17.395 71.62 17.69 71.594 17.828 71.398C18.301 71.728 17.896 72.143 17.705 72.258C17.657 72.289 17.678 72.321 17.718 72.328C18.152 72.407 18.508 71.964 18.526 71.709L18.599 71.751V73.618C18.599 76.278 21.667 76.647 25.034 78.902C28.401 76.647 31.469 76.278 31.469 73.618V71.751L31.543 71.709C31.56 71.964 31.917 72.407 32.351 72.329C32.391 72.321 32.411 72.289 32.364 72.259C32.173 72.143 31.768 71.728 32.241 71.398C32.379 71.594 32.674 71.619 32.884 71.54C32.94 71.517 32.93 71.484 32.894 71.473C32.794 71.441 32.637 71.357 32.677 71.094C33.427 70.497 35.397 69.486 37.597 71.299C40.173 73.426 38.285 76.043 37.447 75.206C37.412 75.17 37.407 75.207 37.417 75.255C37.597 76.023 38.58 75.969 38.689 75.579C38.697 75.549 38.735 75.516 38.754 75.601C39.152 77.198 42.047 76.034 42.25 79.321C42.19 79.329 41.543 79.451 41.283 79.144C41.172 79.01 40.692 78.449 40.108 79.066C40.07 79.103 40.105 79.13 40.124 79.13C40.876 79.111 40.71 79.643 40.686 79.74C40.189 79.329 39.419 79.415 39.469 80.36C39.473 80.435 39.501 80.427 39.529 80.39C39.5762 80.313 39.6402 80.2477 39.7163 80.199C39.7923 80.1503 39.8784 80.1194 39.9681 80.1087C40.0578 80.098 40.1487 80.1078 40.2341 80.1373C40.3195 80.1668 40.397 80.2152 40.461 80.279C40.108 80.333 39.473 80.793 40.066 81.539C40.091 81.572 40.128 81.613 40.133 81.549C40.211 80.667 40.995 80.952 41.157 81.035C41.272 81.093 41.817 81.255 42.188 80.812C42.337 81.479 43.175 81.409 43.256 81.403C43.316 81.399 43.321 81.363 43.266 81.323C42.904 81.083 42.569 80.621 43.11 80.451C43.11 80.451 43.826 81.101 44.406 80.39C44.457 80.325 44.424 80.308 44.391 80.32C44.324 80.345 43.506 80.443 43.565 79.62C43.603 79.05 44.024 77.11 43.248 76.617C43.198 76.584 43.173 76.555 43.227 76.542C44.011 76.368 44.111 75.822 43.857 75.199C43.824 75.119 43.78 75.134 43.776 75.194C43.715 76.453 41.701 75.854 41.638 74.094C42.713 74.373 44.57 73.996 44.57 72.239C44.57 70.506 42.356 69.582 42.356 68.321C42.356 68.111 42.351 67.239 43.376 67.239C44.214 67.239 44.836 67.867 45.003 68.531C45.009 68.561 45.047 68.572 45.076 68.534C45.199 68.374 45.176 67.719 44.876 67.369C44.845 67.335 44.879 67.274 44.943 67.311C45.038 67.368 45.333 67.457 45.646 67.457C46.333 67.457 46.703 67.079 46.703 66.45C46.703 66.057 46.567 65.86 46.622 65.73C46.649 65.67 46.576 65.626 46.539 65.702C46.44 65.897 46.263 66.406 45.556 66.406L43.864 66.409C41.974 66.409 41.801 67.937 41.801 68.312C41.801 69.86 43.768 70.534 43.768 72.105C43.768 72.473 43.581 73.089 42.563 73.089C42.146 73.089 41.706 72.969 41.441 72.855C41.441 72.855 40.988 70.102 39.654 69.149C39.654 69.149 38.09 69.908 36.545 69.071C35.363 68.431 34.806 68.003 33.77 68.719C32.734 69.435 31.83 70.205 31.717 70.185L31.469 70.136V63.948C31.949 63.898 31.983 64.328 31.962 64.442C31.936 64.586 31.778 64.698 32.107 65.188C32.132 65.224 32.17 65.211 32.174 65.17C32.188 65.045 32.251 64.835 32.418 64.835C32.58 64.835 33.316 65.39 33.945 66.019C33.945 66.019 34.306 64.927 35.172 64.593C34.68 64.517 32.559 64.003 32.559 63.075C32.559 62.765 32.209 62.693 31.981 62.711C31.97 62.684 31.623 61.861 30.976 62.29C30.9687 62.2945 30.9628 62.3011 30.9592 62.3089C30.9556 62.3167 30.9543 62.3254 30.9556 62.334C30.9569 62.3425 30.9606 62.3504 30.9664 62.3568C30.9722 62.3632 30.9797 62.3678 30.988 62.37C31.274 62.437 31.396 62.734 31.408 63.055C30.79 62.865 28.158 62.127 25.034 62.127C23.6849 62.1331 22.339 62.2586 21.012 62.502V64.647H20.142V62.674ZM14.38 84.648C14.149 84.555 13.996 84.406 13.996 84.103V82.77C13.616 82.636 12.572 82.238 10.491 82.238C8.761 82.238 8.219 82.628 8.194 82.766L7.734 85.302C7.734 85.302 8.434 84.662 10.943 84.826C13.965 85.018 17.095 86.801 17.095 84.9V83.782C14.727 83.782 14.38 84.536 14.38 84.648ZM32.972 83.783V84.901C32.972 86.802 36.102 85.019 39.124 84.827C41.632 84.663 42.333 85.303 42.333 85.303L41.873 82.767C41.848 82.629 41.306 82.239 39.576 82.239C37.496 82.239 36.451 82.637 36.071 82.771V84.103C36.071 84.406 35.918 84.555 35.687 84.648C35.687 84.536 35.34 83.783 32.972 83.783ZM25.033 82.632C29.899 82.632 34.84 82.886 35.486 83.62C35.537 83.678 35.559 83.619 35.559 83.575V80.996C35.559 80.244 30.462 79.806 25.033 79.806C19.604 79.806 14.507 80.244 14.507 80.996L14.508 83.575C14.508 83.619 14.53 83.678 14.581 83.62C15.227 82.886 20.168 82.632 25.033 82.632ZM20.693 70.473L20.202 70.346L20.161 70.406L19.59 70.156L20.1 70.152C20.148 70.152 20.151 70.122 20.126 70.098L19.69 69.671L20.253 69.881C20.291 69.893 20.305 69.866 20.287 69.841C20.128 69.605 19.911 69.29 19.911 69.29L20.464 69.66C20.494 69.681 20.518 69.661 20.505 69.63L20.244 68.983L20.748 69.46C20.771 69.48 20.798 69.469 20.791 69.437L20.651 68.79L21.021 69.331C21.043 69.363 21.071 69.354 21.071 69.316L21.084 68.725L21.319 69.265C21.335 69.303 21.362 69.305 21.382 69.258L21.572 68.8L21.595 69.416L21.512 69.432L21.409 70.173C22.144 70.001 23.059 68.745 23.761 68.745C24.596 68.745 24.901 69.724 26.445 69.227C26.835 69.804 26.971 70.306 27.121 71C27.717 71.56 28.555 71.374 28.555 70.78C28.555 69.98 27.682 69.827 27.682 68.993C27.682 68.62 27.944 68.084 28.656 68.084C29.033 68.084 29.586 68.246 29.903 68.246C30.28 68.246 30.361 67.973 30.403 67.86C30.438 67.775 30.54 67.803 30.53 67.87C30.518 67.947 30.574 68.056 30.574 68.235C30.574 68.763 29.806 68.832 29.711 68.767C29.671 68.739 29.642 68.782 29.671 68.804C29.786 68.897 29.761 69.212 29.623 69.412C29.607 69.434 29.585 69.43 29.581 69.409C29.498 69.031 29.055 68.564 28.664 68.564C28.52 68.564 28.234 68.648 28.234 68.979C28.234 69.454 29.185 69.887 29.185 70.871C29.185 71.894 28.172 72.139 27.153 71.884C27.188 72.853 28.633 73.429 28.668 72.736C28.67 72.688 28.696 72.718 28.711 72.737C28.925 73.033 28.827 73.259 28.554 73.373C28.806 73.487 28.851 73.995 28.925 74.299C29.036 74.754 29.519 74.502 29.543 74.489C29.569 74.473 29.578 74.487 29.567 74.516C29.384 74.99 28.899 74.811 28.899 74.811C28.644 74.99 28.952 75.151 29.183 75.219C29.217 75.229 29.215 75.254 29.188 75.264C29.018 75.327 28.654 75.441 28.478 75.136C28.346 75.451 28.078 75.442 27.973 75.442C27.787 75.442 27.663 75.633 27.706 75.888C27.71 75.91 27.694 75.917 27.678 75.904C27.234 75.609 27.488 75.264 27.668 75.177C27.637 75.158 27.331 75.031 27.201 75.389C27.191 75.417 27.174 75.419 27.164 75.392C26.97 74.876 27.394 74.726 27.698 74.856C27.678 74.783 27.518 74.531 27.116 74.612C27.098 74.617 27.086 74.609 27.098 74.584C27.163 74.426 27.362 74.193 27.726 74.429C27.912 74.544 28.233 74.376 28.262 74.361C27.615 73.073 26.357 74.151 26.076 73.142C26.071 73.121 26.046 73.102 26.028 73.158C25.961 73.373 25.413 73.388 25.312 72.964C25.304 72.931 25.317 72.927 25.338 72.948C25.418 73.029 25.591 73.102 25.818 72.775C25.968 72.558 25.988 72.269 25.988 72.073C25.988 71.289 25.206 69.974 23.985 69.974C23.215 69.974 22.385 70.275 21.77 70.724L22.343 70.855C22.3314 70.9848 22.2914 71.1105 22.2257 71.2231C22.16 71.3357 22.0703 71.4325 21.963 71.5065C21.8557 71.5805 21.7334 71.6299 21.6048 71.6513C21.4762 71.6726 21.3445 71.6653 21.219 71.63L21.309 70.967C21.219 70.994 20.994 71.074 20.874 71.245C20.866 71.258 20.848 71.255 20.844 71.24C20.739 70.864 21.049 70.675 21.146 70.626C21.156 70.619 21.156 70.611 21.136 70.611C21.0403 70.6097 20.9458 70.6333 20.862 70.6796C20.7782 70.7259 20.7079 70.7933 20.658 70.875C20.651 70.885 20.638 70.883 20.635 70.874C20.613 70.804 20.564 70.611 20.694 70.474L20.693 70.473ZM22.396 74.951C22.176 75.219 21.984 74.963 21.696 74.963C21.425 74.963 21.38 75.19 21.373 75.28C21.372 75.296 21.363 75.303 21.351 75.286C21.044 74.866 21.387 74.638 21.587 74.608C21.558 74.578 21.257 74.376 21.064 74.654C21.049 74.674 21.031 74.664 21.031 74.641C21.021 74.121 21.434 74.084 21.706 74.312C21.756 74.116 21.628 73.983 21.408 73.972C21.381 73.972 21.377 73.955 21.388 73.943C21.48 73.843 21.569 73.799 21.659 73.799C21.949 73.799 21.986 74.165 22.175 74.165C22.459 74.165 22.86 73.783 22.899 73.742C22.891 73.72 22.619 72.985 22.673 72.545C22.676 72.526 22.666 72.524 22.653 72.532C22.516 72.609 22.168 72.606 22.168 72.178C22.168 72.143 22.178 72.141 22.198 72.168C22.35 72.379 22.598 72.142 22.721 72.003C22.855 71.853 23.568 70.814 24.521 70.814C24.731 70.815 25.001 70.929 25.219 71.081C24.89 71.481 25.217 71.865 25.461 71.815C25.489 71.81 25.494 71.837 25.467 71.846C24.207 72.32 23.645 72.509 23.645 73.564C23.645 74.114 23.833 74.419 24.156 74.348C24.181 74.341 24.187 74.352 24.17 74.37C24.1271 74.4263 24.0721 74.4722 24.0091 74.5043C23.9461 74.5365 23.8767 74.5542 23.806 74.556C23.544 74.556 23.497 74.413 23.356 74.413C23.212 74.413 22.743 74.689 22.743 74.92C22.743 75.007 22.798 75.125 22.964 75.234C22.974 75.241 22.969 75.25 22.96 75.251C22.854 75.271 22.482 75.303 22.396 74.951ZM25.713 64.698C25.319 64.674 25.067 64.761 25.079 64.888C25.27 65.088 25.525 65.066 25.713 64.698ZM24.259 65.671C24.537 65.601 24.844 65.634 24.876 65.645C24.92 65.659 24.919 65.725 24.869 65.732C24.289 65.807 24.262 66.073 23.892 66.073C23.648 66.073 23.384 65.828 23.483 65.466C23.496 65.419 23.533 65.418 23.543 65.462C23.58 65.618 23.806 65.787 24.259 65.671ZM16.73 78.53C17.115 79.022 17.484 78.56 17.987 78.56C18.233 78.56 18.533 78.643 18.59 79.136C18.592 79.161 18.614 79.169 18.638 79.136C19.187 78.386 18.561 77.962 18.201 77.908C18.279 77.838 18.816 77.508 19.156 77.995C19.175 78.022 19.212 78.014 19.212 77.977C19.212 77.027 18.5 76.961 17.985 77.372C17.888 77.002 18.167 76.758 18.526 76.758C18.569 76.758 18.584 76.728 18.562 76.703C17.926 76.021 17.45 76.878 17.342 77.015C17.087 77.353 16.179 76.718 15.816 76.34C15.816 76.34 16.619 75.499 16.619 74.73C16.619 74.684 16.614 74.62 16.614 74.593C16.614 74.569 16.624 74.56 16.646 74.573C16.7367 74.623 16.8385 74.6495 16.942 74.65C17.126 74.65 17.472 74.592 17.472 73.939C17.472 73.889 17.45 73.892 17.429 73.922C17.334 74.06 17.229 74.09 17.147 74.09C16.499 74.09 15.146 71.928 13.55 71.928C13.133 71.928 12.344 72.229 11.945 72.66C12.138 72.774 12.175 73.008 12.155 73.179C12.125 73.453 11.908 73.589 11.685 73.651C11.645 73.661 11.642 73.689 11.685 73.707C12.491 74.015 13.958 74.57 14.291 74.857C14.685 75.197 14.608 75.841 14.379 76.728C14.159 77.581 13.687 77.465 13.513 77.437C13.488 77.433 13.479 77.449 13.495 77.469C13.704 77.731 13.956 77.819 14.173 77.819C14.592 77.819 14.748 77.559 14.965 77.559C15.33 77.559 16.093 78.082 16.093 78.479C16.093 78.702 15.919 78.905 15.694 79.051C15.679 79.061 15.682 79.079 15.704 79.083C15.878 79.113 16.593 79.173 16.731 78.53H16.73ZM34.364 79.083C34.386 79.079 34.389 79.062 34.375 79.051C34.15 78.905 33.975 78.702 33.975 78.479C33.975 78.082 34.738 77.559 35.103 77.559C35.32 77.559 35.477 77.819 35.895 77.819C36.112 77.819 36.365 77.731 36.574 77.469C36.589 77.449 36.58 77.433 36.556 77.437C36.382 77.465 35.91 77.581 35.69 76.728C35.461 75.841 35.384 75.196 35.778 74.857C36.111 74.57 37.578 74.015 38.384 73.707C38.427 73.689 38.424 73.66 38.384 73.651C38.161 73.589 37.944 73.453 37.914 73.179C37.894 73.008 37.93 72.774 38.124 72.66C37.725 72.229 36.935 71.928 36.519 71.928C34.923 71.928 33.569 74.09 32.921 74.09C32.841 74.09 32.735 74.06 32.64 73.922C32.619 73.892 32.596 73.89 32.596 73.939C32.596 74.592 32.942 74.649 33.126 74.649C33.2298 74.6488 33.3319 74.6227 33.423 74.573C33.443 74.56 33.454 74.569 33.454 74.593C33.454 74.619 33.449 74.684 33.449 74.729C33.449 75.499 34.253 76.339 34.253 76.339C33.889 76.718 32.981 77.353 32.727 77.015C32.619 76.878 32.142 76.021 31.507 76.703C31.485 76.728 31.5 76.758 31.543 76.758C31.901 76.758 32.18 77.002 32.084 77.372C31.569 76.961 30.857 77.027 30.857 77.977C30.857 78.014 30.894 78.022 30.913 77.995C31.253 77.507 31.79 77.837 31.867 77.908C31.507 77.962 30.882 78.385 31.431 79.136C31.455 79.169 31.476 79.161 31.479 79.136C31.536 78.643 31.836 78.559 32.081 78.559C32.585 78.559 32.953 79.022 33.338 78.529C33.476 79.173 34.191 79.112 34.364 79.083ZM21.45 66.608C21.399 66.678 21.23 66.605 21.167 66.576C21.152 66.569 21.15 66.576 21.155 66.586C21.195 66.676 21.357 66.947 21.598 66.947C21.706 66.947 21.865 66.884 21.91 66.811C21.91 66.811 22.85 67.116 23.315 67.244C23.135 67.484 23.022 67.774 22.999 68.088C22.624 67.858 21.125 67.053 21.125 67.053L20.66 67.689C20.583 67.794 20.211 67.523 20.288 67.417L20.643 66.931C20.526 66.807 20.243 66.885 20.166 66.907C20.155 66.91 20.145 66.905 20.155 66.887C20.2 66.791 20.376 66.497 20.818 66.629C20.82 66.359 20.418 66.446 20.313 66.475C20.3 66.478 20.296 66.472 20.308 66.46C20.416 66.344 20.743 66.08 21.108 66.296L21.268 66.077L20.946 65.739L21.147 65.462L21.373 65.765L23.103 63.395C23.146 63.337 23.489 63.237 23.619 63.209C23.632 63.342 23.647 63.697 23.606 63.756L21.903 66.147L22.263 66.266L22.063 66.544L21.64 66.346L21.45 66.608ZM27.52 66.22C27.52 66.438 27.654 66.756 27.945 66.665C27.959 66.658 27.973 66.662 27.969 66.677C27.925 66.919 27.492 67.141 27.295 66.854C27.12 67.224 27.16 67.571 27.539 67.775C27.559 67.787 27.563 67.813 27.539 67.831C27.4801 67.8742 27.4124 67.9039 27.3407 67.9178C27.269 67.9317 27.1951 67.9296 27.1243 67.9115C27.0535 67.8934 26.9876 67.8599 26.9314 67.8133C26.8751 67.7667 26.8299 67.7082 26.799 67.642C26.489 67.876 26.533 68.375 26.722 68.544C26.722 68.547 25.862 69.055 25.082 68.692C24.565 68.444 24.144 68.127 23.477 68.178C23.569 67.243 24.037 66.996 24.897 66.862C25.584 66.751 25.671 66.435 25.573 66.197C25.34 66.134 24.913 66.349 24.913 66.349C24.835 66.22 24.947 66.086 24.947 66.086C24.904 66.035 24.883 65.862 24.883 65.862C25.363 65.862 25.448 65.756 25.448 65.756C25.534 65.256 25.025 65.203 24.637 65.472C24.457 65.313 24.485 65.101 24.485 65.101C24.432 65.074 24.398 64.991 24.398 64.955C24.398 64.837 24.968 64.515 25.114 64.479C25.151 64.313 25.358 64.083 25.963 64.138C26.035 63.978 25.918 63.392 25.843 63.234C25.82 63.187 25.854 63.16 25.907 63.194C26.119 63.327 26.329 63.821 26.472 63.83C26.472 63.83 27.152 63.473 27.186 63.493C27.218 63.512 27.315 64.272 27.315 64.272C27.405 64.383 27.93 64.274 28.16 64.372C28.218 64.398 28.215 64.44 28.164 64.448C27.992 64.478 27.444 64.713 27.354 64.865C27.668 65.335 27.52 66.029 27.52 66.22Z" fill="white"/>
<path d="M61.876 64.465C62.403 64.31 62.776 64.03 62.776 63.271V55.643L61.798 55.395V55.055C62.3783 54.8917 62.9781 54.8079 63.581 54.806C64.155 54.806 64.589 54.853 65.023 54.961V55.255C64.356 55.441 64.124 55.751 64.124 56.372V64.062L65.101 64.31V64.65C64.5228 64.825 63.9221 64.9139 63.318 64.914C62.698 64.914 62.294 64.867 61.876 64.759V64.465ZM66.403 64.495C66.807 64.341 67.225 64.03 67.225 63.658V58.418L66.217 58V57.659C66.8223 57.4858 67.4475 57.3916 68.077 57.379H68.45V58.216C68.992 57.689 69.814 57.348 70.729 57.348C71.458 57.348 72.17 57.736 72.48 58.294C72.96 57.814 74 57.348 74.868 57.348C76.17 57.348 77.023 58.139 77.023 59.813V64.108L77.829 64.341V64.635C77.395 64.805 76.853 64.898 76.186 64.898C75.876 64.898 75.488 64.868 75.193 64.758V64.495C75.581 64.325 75.752 64.03 75.752 63.473V60.449C75.752 59.039 75.132 58.418 74.17 58.418C73.612 58.418 73.085 58.558 72.682 58.775C72.744 59.1 72.775 59.535 72.775 59.938V64.108L73.581 64.341V64.635C73.147 64.805 72.621 64.898 71.954 64.898C71.628 64.898 71.256 64.868 70.946 64.758V64.495C71.333 64.325 71.504 64.03 71.504 63.473V60.62C71.504 58.899 70.992 58.418 70.031 58.418C69.411 58.418 68.821 58.635 68.496 58.898V64.108L69.364 64.341V64.635C68.822 64.821 68.341 64.898 67.566 64.898C67.194 64.898 66.76 64.868 66.403 64.758V64.495ZM79.05 64.495C79.454 64.341 79.873 64.03 79.873 63.658V58.418L78.865 58V57.659C79.4703 57.4857 80.0955 57.3916 80.725 57.379H81.098V58.216C81.64 57.689 82.462 57.348 83.376 57.348C84.104 57.348 84.818 57.736 85.128 58.294C85.608 57.814 86.648 57.348 87.516 57.348C88.817 57.348 89.67 58.139 89.67 59.813V64.108L90.477 64.341V64.635C90.043 64.805 89.5 64.898 88.833 64.898C88.523 64.898 88.136 64.868 87.841 64.758V64.495C88.229 64.325 88.399 64.03 88.399 63.473V60.449C88.399 59.039 87.779 58.418 86.819 58.418C86.301 58.4143 85.79 58.5369 85.33 58.775C85.392 59.1 85.423 59.535 85.423 59.938V64.108L86.229 64.341V64.635C85.795 64.805 85.268 64.898 84.601 64.898C84.275 64.898 83.903 64.868 83.594 64.758V64.495C83.98 64.325 84.151 64.03 84.151 63.473V60.62C84.151 58.899 83.64 58.418 82.679 58.418C82.059 58.418 81.469 58.635 81.144 58.898V64.108L82.012 64.341V64.635C81.47 64.821 80.988 64.898 80.214 64.898C79.842 64.898 79.407 64.868 79.051 64.758L79.05 64.495ZM91.7 64.495C92.118 64.341 92.521 64.03 92.521 63.658V58.418L91.53 58V57.674C92.228 57.472 92.94 57.379 93.375 57.379H93.871L93.793 58.216V64.108L94.661 64.341V64.635C94.134 64.821 93.653 64.898 92.863 64.898C92.507 64.898 92.057 64.868 91.7 64.758V64.495ZM92.35 55.069C92.35 54.589 92.691 54.155 93.234 54.155C93.668 54.155 94.04 54.48 94.04 54.992C94.04 55.535 93.668 55.953 93.172 55.953C92.707 55.953 92.35 55.581 92.35 55.069ZM97.068 62.496V62.48C96.37 62.2 95.673 61.395 95.673 60.325C95.673 58.588 97.068 57.255 98.758 57.255C99.394 57.255 100.168 57.519 100.432 57.767C100.711 57.503 101.3 57.271 101.796 57.271C102.06 57.271 102.308 57.317 102.463 57.364L102.354 58.387C101.809 58.2712 101.252 58.2143 100.695 58.217V58.232C101.207 58.62 101.579 59.286 101.579 59.922C101.579 61.72 100.106 62.945 98.432 62.945C98.091 62.945 97.734 62.868 97.471 62.759C97.238 62.899 96.975 63.225 96.975 63.503C96.975 63.969 97.362 64.217 97.967 64.217L100.137 64.201C101.439 64.186 102.168 64.79 102.168 65.938C102.168 67.41 100.541 68.65 98.386 68.65C96.433 68.65 95.425 67.86 95.425 66.837C95.425 66.015 96.061 65.349 96.897 65.115V65.101C96.324 64.898 95.982 64.481 95.982 63.891C95.982 63.301 96.479 62.697 97.068 62.496ZM98.587 67.751C100.06 67.751 101.037 67.022 101.037 66.278C101.037 65.674 100.634 65.333 99.89 65.333H97.394C96.944 65.534 96.603 66.046 96.603 66.573C96.603 67.209 97.285 67.751 98.587 67.751ZM100.215 59.968C100.215 58.666 99.486 58.046 98.665 58.046C97.781 58.046 97.037 58.883 97.037 60.232C97.037 61.534 97.766 62.17 98.525 62.17C99.471 62.17 100.215 61.488 100.215 59.968ZM103.479 64.495C103.882 64.341 104.301 64.03 104.301 63.658V58.418L103.293 58V57.659C103.898 57.4857 104.524 57.3916 105.153 57.379H105.525V58.464H105.541L105.975 57.984C106.394 57.534 106.812 57.302 107.339 57.302C107.882 57.302 108.145 57.535 108.145 57.968C108.145 58.263 108.052 58.604 107.896 58.898C107.625 58.6752 107.287 58.5498 106.936 58.542C106.456 58.542 106.006 58.759 105.571 59.178V64.108L106.641 64.341V64.635C106.114 64.821 105.603 64.898 104.719 64.898C104.269 64.898 103.835 64.868 103.479 64.758V64.495ZM112.771 60.744V60.324C112.771 58.651 112.369 58.294 111.393 58.294C110.539 58.294 109.718 58.651 109.066 59.302C109.035 59.1487 109.02 58.9925 109.021 58.836C109.021 57.844 109.749 57.271 111.563 57.271C113.129 57.271 114.059 58.061 114.059 59.348C114.059 59.689 114.012 60.464 113.996 60.914L113.95 63.426C114.059 63.706 114.291 63.999 114.57 64.216C114.338 64.496 113.919 64.806 113.516 65.006C113.219 64.8167 112.973 64.5557 112.803 64.247C112.369 64.666 111.531 64.991 110.71 64.991C109.547 64.991 108.741 64.263 108.741 63.271C108.741 61.906 110.229 60.744 112.771 60.744ZM111.283 64.062C111.763 64.062 112.385 63.875 112.771 63.642V61.472C111.02 61.472 110.074 62.201 110.074 63.038C110.074 63.658 110.493 64.062 111.283 64.062ZM116.367 60.526L116.413 58.464H115.561V57.954L117.235 56.294L117.747 56.232L117.685 57.627H119.731L119.623 58.464H117.639L117.607 60.418C117.592 61.068 117.592 61.658 117.592 62.232C117.592 63.488 117.964 63.922 118.537 63.922C118.987 63.922 119.375 63.767 119.685 63.519L119.84 63.581C119.777 64.495 119.235 64.961 118.165 64.961C116.925 64.961 116.32 64.31 116.32 62.805C116.32 62.061 116.352 61.24 116.367 60.526ZM120.802 64.495C121.221 64.341 121.623 64.03 121.623 63.658V58.418L120.631 58V57.674C121.329 57.472 122.042 57.379 122.477 57.379H122.973L122.895 58.216V64.108L123.763 64.341V64.635C123.236 64.821 122.755 64.898 121.965 64.898C121.608 64.898 121.158 64.868 120.802 64.758V64.495ZM121.453 55.069C121.453 54.589 121.793 54.155 122.337 54.155C122.771 54.155 123.143 54.48 123.143 54.992C123.143 55.535 122.771 55.953 122.274 55.953C121.81 55.953 121.453 55.581 121.453 55.069ZM128.323 57.255C130.229 57.255 131.703 58.682 131.703 60.836C131.703 63.395 129.92 65.006 128.075 65.006C126.199 65.006 124.68 63.689 124.68 61.426C124.68 58.883 126.416 57.255 128.323 57.255ZM128.168 64.108C129.207 64.108 130.292 63.101 130.292 60.976C130.292 59.162 129.315 58.155 128.215 58.155C127.145 58.155 126.091 59.225 126.091 61.271C126.091 63.146 127.067 64.108 128.168 64.108ZM132.827 64.495C133.23 64.341 133.648 64.03 133.648 63.658V58.418L132.642 58V57.659C133.247 57.4857 133.873 57.3916 134.502 57.379H134.874V58.216C135.4 57.689 136.269 57.348 137.168 57.348C138.455 57.348 139.338 58.17 139.338 59.768V64.108L140.145 64.341V64.635C139.727 64.805 139.184 64.898 138.517 64.898C138.191 64.898 137.819 64.868 137.509 64.758V64.495C137.896 64.325 138.067 64.03 138.067 63.473V60.51C138.067 58.99 137.432 58.417 136.517 58.417C135.881 58.417 135.262 58.634 134.92 58.897V64.107L135.788 64.34V64.634C135.262 64.82 134.766 64.897 133.99 64.897C133.618 64.897 133.184 64.867 132.827 64.757V64.495ZM148.204 60.744V60.324C148.204 58.651 147.802 58.294 146.824 58.294C145.972 58.294 145.15 58.651 144.499 59.302C144.468 59.1486 144.452 58.9925 144.453 58.836C144.453 57.844 145.182 57.271 146.995 57.271C148.561 57.271 149.491 58.061 149.491 59.348C149.491 59.689 149.444 60.464 149.43 60.914L149.383 63.426C149.491 63.706 149.723 63.999 150.003 64.216C149.771 64.496 149.352 64.806 148.948 65.006C148.651 64.8167 148.405 64.5557 148.235 64.247C147.802 64.666 146.964 64.991 146.143 64.991C144.979 64.991 144.173 64.263 144.173 63.271C144.173 61.906 145.663 60.744 148.204 60.744ZM146.716 64.062C147.197 64.062 147.816 63.875 148.204 63.642V61.472C146.454 61.472 145.507 62.201 145.507 63.038C145.507 63.658 145.926 64.062 146.716 64.062ZM151.232 64.495C151.636 64.341 152.055 64.03 152.055 63.658V58.418L151.047 58V57.659C151.652 57.4857 152.278 57.3916 152.907 57.379H153.279V58.216C153.806 57.689 154.674 57.348 155.573 57.348C156.86 57.348 157.744 58.17 157.744 59.768V64.108L158.55 64.341V64.635C158.13 64.805 157.589 64.898 156.922 64.898C156.597 64.898 156.225 64.868 155.914 64.758V64.495C156.302 64.325 156.473 64.03 156.473 63.473V60.51C156.473 58.99 155.837 58.417 154.922 58.417C154.287 58.417 153.666 58.634 153.325 58.897V64.107L154.193 64.34V64.634C153.666 64.82 153.17 64.897 152.396 64.897C152.023 64.897 151.589 64.867 151.232 64.757V64.495ZM163.192 57.287C163.564 57.287 164.015 57.333 164.262 57.395V54.667L163.208 54.247V53.907C163.835 53.733 164.481 53.6389 165.131 53.627H165.627L165.533 54.496V63.379C165.643 63.689 165.828 64.015 166.123 64.279C165.813 64.558 165.472 64.774 165.037 65.007C164.726 64.7532 164.472 64.4362 164.293 64.077C163.797 64.589 162.944 64.961 162.309 64.961C160.743 64.961 159.487 63.658 159.487 61.596C159.487 58.806 161.177 57.287 163.192 57.287ZM164.278 63.457V58.325C163.911 58.2112 163.53 58.1539 163.146 58.155C161.828 58.155 160.836 59.193 160.836 61.348C160.836 63.038 161.72 63.953 162.696 63.953C163.286 63.953 163.922 63.751 164.278 63.457ZM170.585 64.465C171.268 64.278 171.485 63.937 171.485 63.101V55.643L170.508 55.379V54.93C171.073 54.8579 171.643 54.8215 172.213 54.821H172.786L177.096 61.906L177.127 61.891V55.597L176.135 55.349V55.023C176.646 54.868 177.158 54.759 177.685 54.759C178.305 54.759 178.584 54.806 178.987 54.93V55.209C178.306 55.426 178.104 55.705 178.104 56.667V64.79L177.375 64.96L172.477 56.883L172.461 56.899V64.062L173.406 64.31V64.65C172.957 64.821 172.508 64.914 171.996 64.914C171.376 64.914 170.957 64.867 170.585 64.759V64.465ZM183.988 60.744V60.324C183.988 58.651 183.586 58.294 182.609 58.294C181.756 58.294 180.935 58.651 180.283 59.302C180.251 59.1487 180.236 58.9925 180.237 58.836C180.237 57.844 180.966 57.271 182.779 57.271C184.346 57.271 185.275 58.061 185.275 59.348C185.275 59.689 185.229 60.464 185.213 60.914L185.167 63.426C185.275 63.706 185.507 63.999 185.787 64.216C185.555 64.496 185.136 64.806 184.732 65.006C184.435 64.8166 184.19 64.5556 184.02 64.247C183.586 64.666 182.748 64.991 181.927 64.991C180.764 64.991 179.958 64.263 179.958 63.271C179.958 61.906 181.446 60.744 183.988 60.744ZM182.5 64.062C182.98 64.062 183.602 63.875 183.988 63.642V61.472C182.236 61.472 181.291 62.201 181.291 63.038C181.291 63.658 181.71 64.062 182.5 64.062ZM187.584 60.526L187.63 58.464H186.777V57.954L188.452 56.294L188.964 56.232L188.901 57.627H190.948L190.84 58.464H188.855L188.825 60.418C188.809 61.068 188.809 61.658 188.809 62.232C188.809 63.488 189.181 63.922 189.754 63.922C190.204 63.922 190.592 63.767 190.901 63.519L191.057 63.581C190.994 64.495 190.452 64.961 189.382 64.961C188.142 64.961 187.537 64.31 187.537 62.805C187.537 62.061 187.568 61.24 187.584 60.526ZM192.708 58.418L191.824 57.984V57.659C192.521 57.457 193.126 57.364 193.561 57.364H194.072L193.979 58.232V61.736C193.979 63.364 194.49 63.891 195.482 63.891C196.02 63.881 196.545 63.7255 197.002 63.441V58.418L196.102 57.984V57.659C196.816 57.457 197.421 57.364 197.854 57.364H198.366L198.273 58.232V63.472C198.382 63.736 198.614 64.015 198.863 64.278C198.63 64.526 198.195 64.821 197.809 65.007C197.485 64.7834 197.232 64.4713 197.08 64.108C196.692 64.465 195.809 64.93 194.848 64.93C193.529 64.93 192.708 64.17 192.708 62.387V58.418ZM200.162 64.495C200.565 64.341 200.984 64.03 200.984 63.658V58.418L199.977 58V57.659C200.582 57.4857 201.208 57.3916 201.837 57.379H202.209V58.464H202.225L202.658 57.984C203.078 57.534 203.495 57.302 204.022 57.302C204.565 57.302 204.828 57.535 204.828 57.968C204.828 58.263 204.735 58.604 204.58 58.898C204.309 58.6752 203.971 58.5498 203.62 58.542C203.139 58.542 202.69 58.759 202.255 59.178V64.108L203.325 64.341V64.635C202.798 64.821 202.286 64.898 201.402 64.898C200.953 64.898 200.519 64.868 200.162 64.758V64.495ZM209.454 60.744V60.324C209.454 58.651 209.052 58.294 208.074 58.294C207.222 58.294 206.4 58.651 205.749 59.302C205.718 59.1486 205.702 58.9925 205.703 58.836C205.703 57.844 206.432 57.271 208.245 57.271C209.811 57.271 210.741 58.061 210.741 59.348C210.741 59.689 210.694 60.464 210.68 60.914L210.633 63.426C210.741 63.706 210.973 63.999 211.253 64.216C211.021 64.496 210.602 64.806 210.198 65.006C209.901 64.8167 209.655 64.5557 209.485 64.247C209.052 64.666 208.214 64.991 207.393 64.991C206.229 64.991 205.423 64.263 205.423 63.271C205.423 61.906 206.913 60.744 209.454 60.744ZM207.966 64.062C208.447 64.062 209.066 63.875 209.454 63.642V61.472C207.704 61.472 206.757 62.201 206.757 63.038C206.757 63.658 207.176 64.062 207.966 64.062ZM212.482 64.495C212.886 64.341 213.305 64.03 213.305 63.658V54.667L212.297 54.247V53.907C212.902 53.7337 213.528 53.6396 214.157 53.627H214.653L214.575 54.496V64.108L215.443 64.341V64.635C214.916 64.821 214.42 64.898 213.646 64.898C213.273 64.898 212.839 64.868 212.482 64.758V64.495ZM216.629 64.495C217.048 64.341 217.451 64.03 217.451 63.658V58.418L216.46 58V57.674C217.157 57.472 217.87 57.379 218.305 57.379H218.801L218.723 58.216V64.108L219.591 64.341V64.635C219.064 64.821 218.583 64.898 217.793 64.898C217.437 64.898 216.986 64.868 216.63 64.758V64.495H216.629ZM217.28 55.069C217.28 54.589 217.621 54.155 218.164 54.155C218.598 54.155 218.97 54.48 218.97 54.992C218.97 55.535 218.598 55.953 218.102 55.953C217.637 55.953 217.28 55.581 217.28 55.069ZM220.798 63.085C221.495 63.736 222.162 64.062 222.983 64.062C223.852 64.062 224.302 63.642 224.302 63.101C224.302 62.557 223.992 62.216 222.968 61.782L222.193 61.457C221.293 61.069 220.798 60.418 220.798 59.534C220.798 58.31 221.883 57.255 223.495 57.255C224.735 57.255 225.231 57.627 225.231 58.216C225.231 58.449 225.201 58.651 225.154 58.868C224.658 58.527 223.976 58.278 223.387 58.278C222.395 58.278 221.93 58.712 221.93 59.24C221.93 59.798 222.209 60.108 223.139 60.464L223.976 60.79C225.092 61.224 225.511 61.798 225.511 62.712C225.511 63.906 224.363 64.992 222.627 64.992C221.263 64.992 220.658 64.558 220.658 63.721C220.658 63.503 220.705 63.255 220.798 63.085ZM230.58 60.744V60.324C230.58 58.651 230.177 58.294 229.2 58.294C228.347 58.294 227.525 58.651 226.874 59.302C226.843 59.1486 226.827 58.9925 226.828 58.836C226.828 57.844 227.557 57.271 229.37 57.271C230.936 57.271 231.866 58.061 231.866 59.348C231.866 59.689 231.819 60.464 231.805 60.914L231.758 63.426C231.866 63.706 232.098 63.999 232.378 64.216C232.146 64.496 231.727 64.806 231.323 65.006C231.026 64.8167 230.78 64.5557 230.61 64.247C230.177 64.666 229.339 64.991 228.518 64.991C227.354 64.991 226.548 64.263 226.548 63.271C226.548 61.906 228.038 60.744 230.579 60.744H230.58ZM229.09 64.062C229.572 64.062 230.191 63.875 230.58 63.642V61.472C228.828 61.472 227.882 62.201 227.882 63.038C227.882 63.658 228.301 64.062 229.091 64.062H229.09ZM234.175 60.526L234.221 58.464H233.368V57.954L235.043 56.294L235.555 56.232L235.492 57.627H237.539L237.429 58.464H235.445L235.415 60.418C235.399 61.068 235.399 61.658 235.399 62.232C235.399 63.488 235.771 63.922 236.345 63.922C236.795 63.922 237.182 63.767 237.492 63.519L237.647 63.581C237.585 64.495 237.043 64.961 235.973 64.961C234.733 64.961 234.128 64.31 234.128 62.805C234.128 62.061 234.159 61.24 234.175 60.526ZM238.61 64.495C239.028 64.341 239.432 64.03 239.432 63.658V58.418L238.439 58V57.674C239.137 57.472 239.849 57.379 240.284 57.379H240.78L240.702 58.216V64.108L241.57 64.341V64.635C241.043 64.821 240.563 64.898 239.772 64.898C239.416 64.898 238.966 64.868 238.609 64.758V64.495H238.61ZM239.26 55.069C239.26 54.589 239.602 54.155 240.145 54.155C240.578 54.155 240.95 54.48 240.95 54.992C240.95 55.535 240.578 55.953 240.082 55.953C239.617 55.953 239.261 55.581 239.261 55.069H239.26ZM246.13 57.255C248.037 57.255 249.51 58.682 249.51 60.836C249.51 63.395 247.728 65.006 245.883 65.006C244.007 65.006 242.487 63.689 242.487 61.426C242.487 58.883 244.224 57.256 246.131 57.256L246.13 57.255ZM245.976 64.108C247.014 64.108 248.1 63.101 248.1 60.976C248.1 59.162 247.123 58.155 246.021 58.155C244.952 58.155 243.898 59.225 243.898 61.271C243.898 63.146 244.875 64.108 245.976 64.108ZM250.635 64.495C251.038 64.341 251.457 64.03 251.457 63.658V58.418L250.449 58V57.659C251.054 57.4857 251.68 57.3916 252.309 57.379H252.682V58.216C253.208 57.689 254.076 57.348 254.976 57.348C256.263 57.348 257.146 58.17 257.146 59.768V64.108L257.952 64.341V64.635C257.533 64.805 256.992 64.898 256.324 64.898C255.999 64.898 255.627 64.868 255.316 64.758V64.495C255.704 64.325 255.875 64.03 255.875 63.473V60.51C255.875 58.99 255.239 58.417 254.325 58.417C253.689 58.417 253.068 58.634 252.728 58.897V64.107L253.596 64.34V64.634C253.068 64.82 252.572 64.897 251.798 64.897C251.426 64.897 250.991 64.867 250.635 64.757V64.495ZM61.674 79.987H62.124L62.232 80.375C62.465 81.228 62.961 81.6 64.14 81.6C65.287 81.6 66.17 80.933 66.17 79.987C66.17 79.383 65.767 78.81 64.821 78.251L63.349 77.383C62.403 76.825 61.938 76.05 61.938 75.026C61.938 73.491 63.364 72.313 65.178 72.313C66.124 72.313 66.728 72.422 67.348 72.67L67.209 74.856H66.759L66.697 74.546C66.497 73.601 66.062 73.29 65.023 73.29C63.907 73.29 63.193 73.987 63.193 74.747C63.193 75.383 63.52 75.879 64.341 76.313L65.876 77.15C66.961 77.724 67.503 78.546 67.503 79.538C67.503 81.166 65.923 82.561 64.062 82.561C63.085 82.561 62.341 82.468 61.674 82.235V79.987ZM71.981 74.871C73.655 74.871 74.663 75.987 74.663 77.771C74.663 78.065 74.663 78.375 74.647 78.763H70.074C70.074 80.499 71.082 81.507 72.369 81.507C73.129 81.507 73.966 81.243 74.555 80.84C74.585 80.918 74.616 81.088 74.616 81.243C74.616 81.94 73.593 82.592 71.95 82.592C70.183 82.592 68.741 81.212 68.741 79.042C68.741 76.345 70.369 74.871 71.981 74.871ZM73.423 77.956C73.423 76.437 72.771 75.709 71.857 75.709C71.004 75.709 70.105 76.731 70.105 77.956H73.423ZM75.814 82.096C76.218 81.94 76.637 81.631 76.637 81.259V76.019L75.629 75.601V75.259C76.2343 75.0859 76.8595 74.9918 77.489 74.979H77.861V76.065H77.877L78.311 75.585C78.729 75.135 79.147 74.902 79.675 74.902C80.218 74.902 80.48 75.135 80.48 75.569C80.48 75.863 80.388 76.205 80.232 76.499C79.9608 76.2764 79.6228 76.1511 79.272 76.143C78.791 76.143 78.342 76.359 77.907 76.778V81.708L78.977 81.94V82.235C78.45 82.421 77.938 82.499 77.055 82.499C76.605 82.499 76.171 82.468 75.815 82.359L75.814 82.096ZM81.477 75.802L80.842 75.352V74.979H83.802V75.353L82.919 75.723L84.593 80.639H84.608L86.329 75.771L85.445 75.353V74.979H87.833V75.353L87.399 75.709L84.639 82.546L84.112 82.576L81.477 75.802ZM88.755 82.096C89.174 81.94 89.576 81.631 89.576 81.259V76.019L88.584 75.601V75.274C89.282 75.074 89.995 74.979 90.43 74.979H90.926L90.848 75.817V81.708L91.716 81.94V82.235C91.189 82.421 90.708 82.499 89.918 82.499C89.562 82.499 89.111 82.468 88.755 82.359V82.096ZM89.406 72.67C89.406 72.19 89.747 71.755 90.29 71.755C90.724 71.755 91.096 72.081 91.096 72.593C91.096 73.135 90.724 73.553 90.228 73.553C89.763 73.553 89.406 73.182 89.406 72.67ZM96.305 74.887C97.561 74.887 97.979 75.29 97.979 75.802C97.979 76.097 97.901 76.359 97.793 76.607C97.204 76.143 96.646 75.895 95.994 75.895C94.924 75.895 94.01 76.949 94.01 78.747C94.01 80.592 94.986 81.522 96.196 81.522C96.801 81.522 97.482 81.259 97.963 80.902C98.0159 81.0244 98.0425 81.1566 98.041 81.29C98.041 82.019 97.25 82.592 95.777 82.592C94.087 82.592 92.661 81.181 92.661 79.026C92.661 76.483 94.258 74.887 96.305 74.887ZM102.13 74.871C103.806 74.871 104.813 75.987 104.813 77.771C104.813 78.065 104.813 78.375 104.798 78.763H100.225C100.225 80.499 101.231 81.507 102.519 81.507C103.279 81.507 104.115 81.243 104.704 80.84C104.735 80.918 104.767 81.088 104.767 81.243C104.767 81.94 103.743 82.592 102.1 82.592C100.333 82.592 98.89 81.212 98.89 79.042C98.89 76.345 100.519 74.871 102.13 74.871ZM103.572 77.956C103.572 76.437 102.922 75.709 102.007 75.709C101.154 75.709 100.255 76.731 100.255 77.956H103.572Z" fill="white"/>
<path d="M61.147 99.664C61.411 99.54 61.612 99.37 61.69 99.075L63.628 90.781L62.791 90.595V90.224C63.194 90.114 63.922 90.037 64.388 90.037H64.898L66.263 97.432H66.279L68.837 90.037H69.225C69.612 90.037 70.263 90.068 70.713 90.161V90.533L69.983 90.72L70.341 99.308L71.193 99.54V99.85C70.728 100.006 70.372 100.083 69.922 100.083C69.286 100.083 68.914 100.036 68.558 99.928V99.664C68.853 99.524 69.038 99.339 69.038 98.858L68.945 91.99H68.93L66.108 100.13L65.643 100.099L64.124 91.99H64.108L62.62 99.292L63.504 99.54V99.85C63.095 100.013 62.6573 100.093 62.217 100.083C61.845 100.083 61.457 100.021 61.147 99.928V99.664ZM72.482 97.339L72.979 94.192L73.056 93.277L72.126 92.982V92.688C72.622 92.5053 73.1475 92.4162 73.676 92.425C73.956 92.425 74.173 92.44 74.374 92.518L73.676 97.075C73.6061 97.6258 73.5647 98.1799 73.552 98.735C73.552 99.246 73.738 99.479 74.172 99.618V99.882C73.8037 100.033 73.4081 100.107 73.01 100.099C72.514 100.099 72.266 99.835 72.266 99.386C72.266 98.951 72.406 97.959 72.482 97.339ZM73.227 90.177C73.227 89.665 73.63 89.216 74.095 89.216C74.498 89.216 74.809 89.526 74.809 89.96C74.809 90.486 74.389 90.92 73.939 90.92C73.521 90.92 73.227 90.642 73.227 90.177ZM76.388 93.277L75.442 92.982V92.688C75.9327 92.5039 76.454 92.4146 76.978 92.425C77.178 92.425 77.396 92.456 77.613 92.533L77.117 94.905H77.132C77.846 93.323 78.868 92.394 79.922 92.394C80.604 92.394 81.147 92.874 81.147 93.819C81.147 94.315 81.007 95.106 80.915 95.773L80.635 97.447C80.59 97.804 80.512 98.409 80.512 98.734C80.512 99.246 80.76 99.447 81.24 99.54V99.804C80.884 99.99 80.48 100.099 80 100.099C79.52 100.099 79.24 99.835 79.24 99.386C79.24 98.998 79.35 98.238 79.427 97.742L79.721 95.959C79.799 95.479 79.876 94.812 79.876 94.394C79.876 93.696 79.566 93.463 79.194 93.463C78.326 93.463 77.086 95.138 77.024 97.339L76.931 99.959H75.613L76.388 93.277ZM82.787 97.339L83.283 94.192L83.36 93.277L82.43 92.982V92.688C82.926 92.5053 83.4515 92.4162 83.98 92.425C84.26 92.425 84.477 92.44 84.678 92.518L83.98 97.075C83.9103 97.6258 83.869 98.1799 83.856 98.735C83.856 99.246 84.043 99.479 84.476 99.618V99.882C84.1077 100.034 83.7121 100.107 83.314 100.099C82.818 100.099 82.57 99.835 82.57 99.386C82.57 98.951 82.709 97.959 82.787 97.339ZM83.531 90.177C83.531 89.665 83.934 89.216 84.399 89.216C84.803 89.216 85.112 89.526 85.112 89.96C85.112 90.486 84.693 90.92 84.244 90.92C83.825 90.92 83.531 90.642 83.531 90.177ZM85.578 98.626C86.012 99.044 86.523 99.276 87.098 99.276C87.826 99.276 88.415 98.858 88.415 98.207C88.415 97.695 88.214 97.354 87.455 96.673L86.911 96.177C86.198 95.525 85.997 95.107 85.997 94.425C85.997 93.401 86.974 92.378 88.399 92.378C89.531 92.378 90.089 92.718 90.089 93.215C90.089 93.495 89.98 93.819 89.811 94.021C89.361 93.557 88.71 93.261 88.121 93.261C87.438 93.261 87.082 93.634 87.082 94.13C87.082 94.58 87.268 94.843 88.043 95.541L88.632 96.067C89.376 96.734 89.624 97.184 89.624 97.867C89.624 99.091 88.384 100.16 86.756 100.16C85.779 100.16 85.346 99.85 85.346 99.276C85.346 98.998 85.438 98.812 85.578 98.626ZM91.664 94.47L91.865 93.479C91.5751 93.4792 91.2853 93.4638 90.997 93.433V93.23C91.493 92.533 92.269 91.85 93.09 91.37H93.322L93.06 92.642H93.509C93.943 92.642 94.284 92.61 94.702 92.533C94.702 93.2 94.33 93.494 93.354 93.494H92.92L92.656 95.106C92.532 95.851 92.346 97.138 92.346 97.758C92.346 98.78 92.857 99.23 93.54 99.23C93.788 99.23 93.943 99.2 94.176 99.122V99.402C94.036 99.772 93.478 100.146 92.749 100.146C91.726 100.146 91.184 99.463 91.184 98.238C91.184 97.278 91.416 95.664 91.664 94.47ZM96.277 93.277L95.332 92.982V92.688C95.828 92.502 96.293 92.425 96.836 92.425C97.037 92.425 97.286 92.456 97.487 92.533L97.021 94.781H97.037L97.859 93.417C98.262 92.75 98.681 92.44 99.161 92.44C99.502 92.44 99.673 92.657 99.673 93.014C99.673 93.262 99.611 93.571 99.502 93.819C99.3459 93.7752 99.1841 93.7546 99.022 93.758C98.045 93.758 97.068 94.828 96.929 97.695L96.805 99.959H95.519L96.277 93.277ZM101.723 100.083L100.699 93.262L100.018 92.982V92.657C100.498 92.487 100.838 92.409 101.288 92.409C101.49 92.409 101.707 92.456 101.924 92.518L102.622 98.796H102.637C103.521 97.23 104.343 94.766 104.343 93.773C104.343 93.339 104.125 93.075 103.8 92.89V92.642C104.08 92.502 104.404 92.409 104.776 92.409C105.304 92.409 105.583 92.689 105.583 93.339C105.583 94.021 105.133 95.386 104.203 97.199L102.451 100.626C101.319 102.843 100.095 103.726 99.041 103.726C98.281 103.726 97.831 103.4 97.831 102.92C97.831 102.749 97.862 102.517 97.939 102.362C98.359 102.595 98.854 102.672 99.382 102.672C100.079 102.672 100.9 102.067 101.506 100.61L101.723 100.083ZM111.984 92.347C113.24 92.347 114.139 93.169 114.139 94.937C114.139 98.223 112.341 100.16 110.806 100.16C109.596 100.16 108.589 99.23 108.589 97.401C108.589 94.13 110.279 92.347 111.984 92.347ZM112.868 95.247C112.868 93.867 112.356 93.247 111.674 93.247C110.837 93.247 109.814 94.673 109.814 96.858C109.814 98.626 110.402 99.292 111.085 99.292C111.829 99.292 112.868 98.007 112.868 95.247ZM116.04 93.634H115.218C115.218 93.154 115.56 92.766 116.133 92.766L116.288 91.448C116.474 89.851 117.668 88.844 119.125 88.844C120.582 88.844 120.799 89.061 120.799 89.448C120.799 89.649 120.737 89.928 120.629 90.177C120.07 89.836 119.589 89.697 118.969 89.697C118.164 89.697 117.544 90.317 117.436 91.293L117.265 92.781H117.932C118.365 92.781 118.722 92.766 119.172 92.719C119.172 93.354 119.001 93.619 117.932 93.619H117.172L116.304 101.727C116.148 103.184 115.513 103.788 114.784 103.788C114.396 103.788 114.009 103.664 113.824 103.493V103.261C114.521 103.044 115.017 102.595 115.109 101.819L116.04 93.634ZM120.364 99.928V99.664C120.674 99.571 121 99.292 121.154 98.92L124.844 90.61C124.922 90.44 124.954 90.254 124.954 90.099L126.209 89.929L127.495 99.339L128.286 99.54V99.85C127.898 100.006 127.496 100.083 126.953 100.083C126.441 100.083 126.007 100.036 125.573 99.928V99.664C125.945 99.556 126.131 99.324 126.084 98.812L125.867 96.579H123.186L122.038 99.37L122.891 99.54V99.85C122.488 100.006 121.914 100.083 121.418 100.083C121.061 100.08 120.706 100.028 120.364 99.928ZM125.744 95.789L125.278 91.587H125.263L123.495 95.851L125.743 95.789H125.744ZM129.036 98.626C129.471 99.044 129.981 99.276 130.556 99.276C131.284 99.276 131.873 98.858 131.873 98.207C131.873 97.695 131.672 97.354 130.913 96.673L130.369 96.177C129.656 95.525 129.455 95.107 129.455 94.425C129.455 93.401 130.432 92.378 131.857 92.378C132.989 92.378 133.547 92.718 133.547 93.215C133.547 93.495 133.439 93.819 133.269 94.021C132.819 93.557 132.168 93.261 131.579 93.261C130.896 93.261 130.54 93.634 130.54 94.13C130.54 94.58 130.726 94.843 131.501 95.541L132.09 96.067C132.834 96.734 133.082 97.184 133.082 97.867C133.082 99.091 131.842 100.16 130.215 100.16C129.237 100.16 128.804 99.85 128.804 99.276C128.804 98.998 128.896 98.812 129.036 98.626Z" fill="white"/>
<path d="M135.89 100.083L134.867 93.262L134.186 92.982V92.657C134.666 92.487 135.006 92.409 135.456 92.409C135.658 92.409 135.875 92.456 136.092 92.518L136.79 98.796H136.805C137.688 97.23 138.511 94.766 138.511 93.773C138.511 93.339 138.293 93.075 137.968 92.89V92.642C138.248 92.502 138.572 92.409 138.944 92.409C139.472 92.409 139.751 92.689 139.751 93.339C139.751 94.021 139.301 95.386 138.371 97.199L136.619 100.626C135.487 102.843 134.263 103.726 133.209 103.726C132.449 103.726 131.999 103.4 131.999 102.92C131.999 102.749 132.03 102.517 132.107 102.362C132.527 102.595 133.022 102.672 133.55 102.672C134.247 102.672 135.068 102.067 135.674 100.61L135.891 100.083H135.89ZM140.585 97.339L141.67 89.649L140.693 89.354V89.061C141.189 88.89 141.654 88.812 142.243 88.812C142.507 88.812 142.771 88.844 142.957 88.905L141.794 97.029C141.717 97.525 141.67 98.269 141.67 98.734C141.67 99.246 141.918 99.479 142.367 99.618V99.882C142.042 100.021 141.639 100.099 141.174 100.099C140.662 100.099 140.398 99.835 140.398 99.37C140.398 98.936 140.507 97.928 140.585 97.339ZM143.838 97.54L144.194 95.71C144.303 95.185 144.428 94.315 144.428 93.835C144.428 93.323 144.164 93.075 143.714 92.967V92.704C144.07 92.534 144.458 92.424 144.938 92.424C145.435 92.424 145.698 92.688 145.698 93.138C145.698 93.665 145.528 94.658 145.373 95.541L145.033 97.261C144.954 97.603 144.893 98.114 144.893 98.424C144.893 98.858 145.109 99.091 145.435 99.091C146.165 99.091 147.45 97.788 147.637 95.433L147.807 92.75C148.248 92.5618 148.722 92.4619 149.202 92.456L148.768 94.874C148.566 95.929 148.381 97.339 148.381 98.27C148.381 99.292 148.566 99.463 149.094 99.54V99.866C148.644 100.006 148.179 100.099 147.698 100.099C147.45 100.099 147.249 100.067 147.062 99.99L147.482 97.866H147.466C146.861 98.936 145.761 100.13 144.861 100.13C144.18 100.13 143.668 99.571 143.668 98.703C143.668 98.347 143.776 97.866 143.838 97.54ZM151.194 93.277L150.249 92.982V92.688C150.739 92.504 151.26 92.4148 151.784 92.425C151.985 92.425 152.202 92.456 152.42 92.533L151.924 94.921H151.938C152.637 93.354 153.598 92.394 154.698 92.394C155.381 92.394 155.783 92.858 155.783 93.479C155.783 93.758 155.737 94.083 155.69 94.285L155.535 94.843H155.551C156.109 93.587 157.303 92.393 158.264 92.393C158.946 92.393 159.458 92.89 159.458 93.789C159.458 94.362 159.334 95.075 159.226 95.804L158.992 97.214C158.931 97.618 158.822 98.394 158.822 98.734C158.822 99.246 159.086 99.416 159.566 99.524V99.788C159.183 99.9855 158.757 100.087 158.326 100.083C157.83 100.083 157.566 99.819 157.566 99.37C157.566 98.936 157.706 97.99 157.783 97.494L158.047 95.944C158.125 95.447 158.217 94.766 158.217 94.347C158.217 93.711 157.985 93.448 157.644 93.448C156.729 93.448 155.582 94.937 155.474 96.796L155.318 99.959H153.938C154.017 99.587 154.094 98.919 154.141 98.563L154.527 95.851C154.574 95.386 154.652 94.781 154.652 94.409C154.652 93.711 154.419 93.449 154.017 93.449C153.148 93.449 151.893 95.075 151.83 97.339L151.737 99.959H150.42L151.194 93.277ZM163.237 97.447C163.237 94.254 165.067 92.409 167.176 92.409C167.672 92.409 168.385 92.518 168.896 92.657L168.354 95.37C168.168 96.177 168.013 97.618 167.997 98.284C167.997 99.276 168.198 99.463 168.741 99.54V99.866C168.338 100.006 167.841 100.099 167.361 100.099C167.14 100.097 166.92 100.06 166.71 99.99L167.066 97.68H167.052C166.447 99.215 165.47 100.176 164.648 100.176C163.92 100.176 163.238 99.23 163.238 97.447H163.237ZM167.129 95.943L167.562 93.37C167.298 93.3079 167.028 93.2767 166.757 93.277C165.501 93.277 164.432 94.595 164.432 97.23C164.432 98.548 164.834 99.106 165.207 99.106C165.873 99.106 166.772 98.067 167.129 95.943ZM170.856 93.277L169.911 92.982V92.688C170.401 92.504 170.922 92.4148 171.446 92.425C171.647 92.425 171.864 92.456 172.082 92.533L171.586 94.905H171.601C172.314 93.323 173.337 92.394 174.391 92.394C175.073 92.394 175.616 92.874 175.616 93.819C175.616 94.315 175.476 95.106 175.384 95.773L175.104 97.447C175.059 97.804 174.98 98.409 174.98 98.734C174.98 99.246 175.229 99.447 175.709 99.54V99.804C175.353 99.99 174.949 100.099 174.469 100.099C173.989 100.099 173.709 99.835 173.709 99.386C173.709 98.998 173.819 98.238 173.896 97.742L174.189 95.959C174.268 95.479 174.345 94.812 174.345 94.394C174.345 93.696 174.035 93.463 173.663 93.463C172.795 93.463 171.555 95.138 171.493 97.339L171.399 99.959H170.082L170.856 93.277ZM176.816 97.447C176.816 94.331 178.6 92.409 180.676 92.409C180.863 92.409 181.096 92.425 181.266 92.44L181.716 89.65L180.692 89.354V89.061C181.172 88.89 181.669 88.812 182.336 88.812C182.577 88.8085 182.817 88.8398 183.049 88.905L181.917 95.323C181.809 95.975 181.577 97.695 181.577 98.284C181.577 99.292 181.793 99.463 182.32 99.54V99.866C181.84 100.021 181.452 100.099 180.94 100.099C180.677 100.099 180.476 100.052 180.29 99.99L180.677 97.65H180.661C180.088 99.09 179.111 100.176 178.228 100.176C177.53 100.176 176.816 99.262 176.816 97.447ZM180.708 95.929L181.143 93.354C180.898 93.3032 180.648 93.2774 180.398 93.277C179.111 93.277 178.011 94.487 178.011 97.23C178.011 98.518 178.383 99.106 178.785 99.106C179.406 99.106 180.383 98.099 180.708 95.929ZM185.372 99.664C185.636 99.54 185.837 99.37 185.914 99.075L187.853 90.781L187.016 90.595V90.224C187.418 90.114 188.146 90.037 188.612 90.037H189.124L190.488 97.432H190.504L193.062 90.037H193.449C193.837 90.037 194.487 90.068 194.937 90.161V90.533L194.209 90.72L194.565 99.308L195.418 99.54V99.85C194.953 100.006 194.596 100.083 194.146 100.083C193.511 100.083 193.139 100.036 192.782 99.928V99.664C193.077 99.524 193.262 99.339 193.262 98.858L193.17 91.99H193.154L190.333 100.13L189.868 100.099L188.348 91.99H188.333L186.845 99.292L187.729 99.54V99.85C187.294 100.02 186.922 100.083 186.441 100.083C186.069 100.083 185.681 100.021 185.372 99.928V99.664ZM196.708 97.339L197.204 94.192L197.281 93.277L196.351 92.982V92.688C196.847 92.5053 197.373 92.4162 197.901 92.425C198.181 92.425 198.397 92.44 198.6 92.518L197.901 97.075C197.831 97.6258 197.79 98.1799 197.777 98.735C197.777 99.246 197.964 99.479 198.397 99.618V99.882C198.028 100.034 197.632 100.107 197.234 100.099C196.738 100.099 196.49 99.835 196.49 99.386C196.49 98.951 196.63 97.959 196.708 97.339ZM197.452 90.177C197.452 89.665 197.855 89.216 198.32 89.216C198.723 89.216 199.033 89.526 199.033 89.96C199.033 90.486 198.614 90.92 198.165 90.92C197.746 90.92 197.452 90.642 197.452 90.177ZM199.512 102.052C199.512 102.656 199.992 103.075 200.86 103.075C201.992 103.075 202.89 102.238 203.108 100.439L203.402 97.711H203.387C202.797 99.184 201.806 100.161 200.984 100.161C200.302 100.161 199.574 99.276 199.574 97.401C199.574 94.425 201.325 92.409 203.434 92.409C204.038 92.409 204.705 92.518 205.232 92.657L204.627 95.634C204.488 96.378 204.395 97.959 204.395 98.766C204.395 102.3 202.658 103.804 200.612 103.804C199.217 103.804 198.396 103.199 198.396 102.378C198.396 101.634 199.156 101.044 199.93 101.044C199.62 101.37 199.512 101.68 199.512 102.052ZM203.48 95.835L203.837 93.355C203.583 93.2979 203.323 93.2717 203.062 93.277C201.868 93.277 200.768 94.563 200.768 97.23C200.768 98.563 201.17 99.106 201.558 99.106C202.209 99.106 203.17 98.067 203.48 95.835ZM207.13 93.277L206.186 92.982V92.688C206.682 92.502 207.146 92.425 207.689 92.425C207.891 92.425 208.139 92.456 208.341 92.533L207.875 94.781H207.891L208.713 93.417C209.115 92.75 209.534 92.44 210.015 92.44C210.355 92.44 210.526 92.657 210.526 93.014C210.526 93.262 210.465 93.571 210.356 93.819C210.2 93.7751 210.037 93.7545 209.875 93.758C208.898 93.758 207.922 94.828 207.782 97.695L207.658 99.959H206.372L207.13 93.277ZM210.534 97.447C210.534 94.254 212.364 92.409 214.473 92.409C214.969 92.409 215.682 92.518 216.193 92.657L215.65 95.37C215.465 96.177 215.31 97.618 215.294 98.284C215.294 99.276 215.495 99.463 216.038 99.54V99.866C215.635 100.006 215.138 100.099 214.658 100.099C214.437 100.097 214.217 100.06 214.007 99.99L214.363 97.68H214.349C213.744 99.215 212.767 100.176 211.945 100.176C211.217 100.176 210.535 99.23 210.535 97.447H210.534ZM214.426 95.943L214.859 93.37C214.595 93.3079 214.325 93.2767 214.054 93.277C212.798 93.277 211.729 94.595 211.729 97.23C211.729 98.548 212.131 99.106 212.504 99.106C213.17 99.106 214.069 98.067 214.426 95.943ZM217.922 94.47L218.123 93.479C217.833 93.4792 217.543 93.4638 217.255 93.433V93.23C217.751 92.533 218.526 91.85 219.348 91.37H219.58L219.317 92.642H219.767C220.201 92.642 220.542 92.61 220.96 92.533C220.96 93.2 220.588 93.494 219.611 93.494H219.178L218.914 95.106C218.79 95.851 218.604 97.138 218.604 97.758C218.604 98.78 219.115 99.23 219.798 99.23C220.046 99.23 220.201 99.2 220.434 99.122V99.402C220.294 99.772 219.735 100.146 219.007 100.146C217.983 100.146 217.441 99.463 217.441 98.238C217.441 97.278 217.674 95.665 217.921 94.471L217.922 94.47ZM221.979 97.339L222.475 94.192L222.552 93.277L221.622 92.982V92.688C222.118 92.5053 222.644 92.4162 223.172 92.425C223.452 92.425 223.668 92.44 223.869 92.518L223.172 97.075C223.102 97.6258 223.061 98.1799 223.048 98.735C223.048 99.246 223.234 99.479 223.668 99.618V99.882C223.3 100.034 222.904 100.107 222.506 100.099C222.01 100.099 221.762 99.835 221.762 99.386C221.762 98.951 221.9 97.959 221.979 97.339ZM222.723 90.177C222.723 89.665 223.125 89.216 223.591 89.216C223.994 89.216 224.304 89.526 224.304 89.96C224.304 90.486 223.884 90.92 223.436 90.92C223.016 90.92 222.723 90.642 222.723 90.177ZM228.3 92.347C229.557 92.347 230.455 93.169 230.455 94.937C230.455 98.223 228.657 100.16 227.122 100.16C225.913 100.16 224.905 99.23 224.905 97.401C224.905 94.13 226.594 92.347 228.3 92.347ZM229.185 95.247C229.185 93.867 228.673 93.247 227.99 93.247C227.153 93.247 226.13 94.673 226.13 96.858C226.13 98.626 226.719 99.292 227.401 99.292C228.146 99.292 229.185 98.007 229.185 95.247ZM232.372 93.277L231.427 92.982V92.688C231.917 92.504 232.438 92.4148 232.962 92.425C233.163 92.425 233.38 92.456 233.598 92.533L233.102 94.905H233.116C233.83 93.323 234.853 92.394 235.907 92.394C236.589 92.394 237.132 92.874 237.132 93.819C237.132 94.315 236.992 95.106 236.899 95.773L236.62 97.447C236.574 97.804 236.496 98.409 236.496 98.734C236.496 99.246 236.744 99.447 237.225 99.54V99.804C236.868 99.99 236.465 100.099 235.985 100.099C235.505 100.099 235.225 99.835 235.225 99.386C235.225 98.998 235.334 98.238 235.411 97.742L235.705 95.959C235.783 95.479 235.86 94.812 235.86 94.394C235.86 93.696 235.55 93.463 235.179 93.463C234.311 93.463 233.07 95.138 233.008 97.339L232.915 99.959H231.598L232.372 93.277Z" fill="white"/>
</svg>
