<?xml version="1.0" encoding="utf-8"?>
<!-- Generator: Adobe Illustrator 21.0.2, SVG Export Plug-In . SVG Version: 6.00 Build 0)  -->
<svg version="1.1" id="Layer_1" xmlns="http://www.w3.org/2000/svg" xmlns:xlink="http://www.w3.org/1999/xlink" x="0px" y="0px"
	 width="467.8px" height="120px" viewBox="0 0 467.8 120" style="enable-background:new 0 0 467.8 120;" xml:space="preserve">
<style type="text/css">
	.st0{fill:#C4A006;}
	.st1{fill:#FDB913;}
	.st2{fill:#D6B85A;}
	.st3{fill:#C49F06;}
	.st4{fill:#D5A80B;}
	.st5{fill:#E6E7E8;}
	.st6{fill:#C18F0D;}
	.st7{fill:#4D4D4F;}
</style>
<g>
	<g>
		<path class="st0" d="M259.6,42.5l-2.2,0.2c0.2,0,0.3-0.1,0.4-0.2l2.2-0.2C259.9,42.4,259.8,42.5,259.6,42.5"/>
		<path class="st0" d="M258.5,23.1l2.2-0.2c-0.3,1.6-0.6,7.4-0.3,8.7c0.3,1.4,0.1,9.8-0.4,10.6l-2.2,0.2c0.5-0.8,0.7-9.2,0.4-10.6
			C257.8,30.5,258.1,24.7,258.5,23.1"/>
		<path class="st0" d="M258.2,9.1l2.2-0.2c-0.2,0.9,0,1.3,0.2,1.5l-2.2,0.2C258.2,10.4,258,10,258.2,9.1"/>
		<path class="st0" d="M261,14.8l2.2-0.2c-0.2,0-0.3,0-0.4,0.1c-0.8,0.3-1.6,5.4-1.9,7.3c-0.1,0.4-0.1,0.7-0.1,0.9l-2.2,0.2
			c0-0.2,0.1-0.5,0.1-0.9c0.3-1.9,1.1-7,1.9-7.3C260.6,14.9,260.8,14.8,261,14.8"/>
		<path class="st0" d="M258.3,10.6l2.2-0.2c0,0.1,0.1,0.2,0.3,0.3c0.4,0.2,1.2,0.5,2.8,0.7l-2.2,0.2c-1.6-0.2-2.4-0.5-2.8-0.7
			C258.5,10.7,258.4,10.6,258.3,10.6"/>
		<path class="st0" d="M256.3,0.2l2.2-0.2c0.2,0,0.4,0,0.5,0c0.7,0,1.3,0.2,1.8,0.5c0.8,0.4,1.4,1.1,1.8,1.9
			c0.4,0.8,0.6,1.7,0.5,2.6c-0.2,2.3-2.3,3.6-2.8,4l-2.2,0.2c0.6-0.3,2.7-1.7,2.8-4c0.1-0.9-0.1-1.8-0.5-2.6
			c-0.4-0.8-1.1-1.5-1.8-1.9c-0.6-0.3-1.2-0.5-1.8-0.5C256.7,0.2,256.5,0.2,256.3,0.2"/>
		<path class="st0" d="M261.5,11.5l2.2-0.2c2,0.4,3.9,1.3,4.4,1.6l-2.2,0.2C265.3,12.9,263.4,11.9,261.5,11.5"/>
		<path class="st0" d="M265.8,13.1L268,13c0.4,0.2,2.5,0.7,3.8,1c0.9,0.2,1.2,0.3,1.4,0.4l-2.2,0.2c-0.1-0.1-0.5-0.1-1.4-0.4
			C268.3,13.8,266.3,13.3,265.8,13.1"/>
		<path class="st0" d="M271,14.5l2.2-0.2c0.2,0,0.6,0.1,1.6,0.5c0.9,0.3,2.1,0.7,3.1,1.2c1.3,0.6,2.5,0.9,3.4,1.1
			c0.5,0.1,1,0.2,1.3,0.4l-2.2,0.2c-0.4-0.1-0.8-0.2-1.3-0.4c-1-0.2-2.2-0.5-3.4-1.1c-1-0.5-2.3-0.9-3.1-1.2
			C271.5,14.7,271.1,14.6,271,14.5"/>
		<path class="st0" d="M281.7,57.8l-2.2,0.2l0.2-0.1c0.7-0.6,3-9.7,3-11.5l2.2-0.2c0,1.7-2.3,10.9-3,11.5L281.7,57.8"/>
		<path class="st0" d="M288,19.6l-2.2,0.2l-0.3,0c-1.1-0.1-2.5-0.9-3.6-1.5c-0.6-0.3-1-0.5-1.4-0.7l2.2-0.2c0.3,0.1,0.8,0.4,1.4,0.7
			c1.1,0.6,2.5,1.3,3.6,1.5L288,19.6"/>
		<path class="st0" d="M288.9,19.3l2.2-0.2c-0.5,1.2-0.4,1.8-0.3,2.1l-2.2,0.2C288.5,21.1,288.4,20.5,288.9,19.3"/>
		<path class="st0" d="M289.5,27.4l2.2-0.2c-0.8,0.1-2.9,5.5-3.8,7.8c-0.2,0.5-0.3,0.9-0.4,1.1c-0.7,1.7-2.6,8.3-2.6,10l-2.2,0.2
			c0-1.8,1.8-8.3,2.6-10c0.1-0.2,0.3-0.6,0.4-1.1C286.6,32.9,288.7,27.5,289.5,27.4"/>
		<path class="st0" d="M288.6,21.4l2.2-0.2c0.1,0.2,0.4,1,2.6,2.4l-2.2,0.2C289,22.4,288.6,21.7,288.6,21.4"/>
		<path class="st0" d="M288.5,7.3c0.7-0.1,1.5-0.1,2.2-0.2c0.6,0,1.1,0.1,1.7,0.3l-2.2,0.2C289.6,7.3,289,7.2,288.5,7.3"/>
		<path class="st0" d="M305.5,61.2l2.2-0.2c-1,1.5-4,7.8-4.3,9.7c-0.3,1.9-4.2,10.6-4.9,10.8l-2.2,0.2c0.8-0.2,4.6-8.9,4.9-10.8
			C301.5,69,304.5,62.7,305.5,61.2"/>
		<path class="st0" d="M298.4,81.5L298.4,81.5l-2.1,0.2l-0.1,0C296.8,81.6,297.7,81.6,298.4,81.5"/>
		<path class="st0" d="M291.2,23.8l2.2-0.2c1.4,1,1.7,1.8,2,2.3c0.1,0.2,0.2,0.4,0.3,0.5l-2.2,0.2c-0.1-0.1-0.2-0.3-0.2-0.5
			C292.9,25.6,292.6,24.8,291.2,23.8"/>
		<path class="st0" d="M290.2,7.6l2.2-0.2c1.2,0.7,2.1,1.9,2.5,3.4c0.4,1.5,0.4,3.1,0,4.6c-0.8,2.6-2.9,3.5-3.8,3.7l-2.2,0.2
			c0.9-0.3,3-1.1,3.8-3.7c0.4-1.5,0.4-3.1,0-4.6C292.3,9.5,291.4,8.3,290.2,7.6"/>
		<path class="st0" d="M293.4,26.6l2.2-0.2c0.2,0.3,1.6,1.4,2.7,2.3l-2.2,0.2C295,28.1,293.6,26.9,293.4,26.6"/>
		<polyline class="st0" points="296.1,29 298.3,28.8 299.5,29.8 297.3,30 		"/>
		<path class="st0" d="M297.3,30l2.2-0.2c0.3,0.3,0.5,0.4,0.5,0.5l-2.2,0.2C297.7,30.4,297.6,30.2,297.3,30"/>
		<path class="st0" d="M311.6,42.4c-0.7,0.1-1.5,0.1-2.2,0.2c-0.1,0-0.2,0-0.4-0.1l-0.3-0.2c-1-0.8-2.1-2.4-3-3.6
			c-0.5-0.7-0.9-1.3-1.2-1.6c-0.3-0.4-0.6-0.5-0.8-0.7c-0.4-0.2-0.8-0.5-1.8-1.8c-0.9-1.1-1.9-2.2-2.7-2.9c-0.8-0.7-1.2-1-1.4-1.2
			l2.2-0.2c0.2,0.1,0.6,0.4,1.4,1.1c0.8,0.7,1.8,1.7,2.7,2.9c1,1.3,1.4,1.6,1.8,1.8c0.2,0.2,0.5,0.3,0.8,0.7
			c0.3,0.3,0.8,0.9,1.2,1.6c0.9,1.3,2,2.8,3,3.6l0.3,0.2C311.4,42.4,311.5,42.4,311.6,42.4"/>
		<path class="st0" d="M311,53.4l2.2-0.2c-0.9,0.1-3.6,4.6-4.8,6.5c-0.3,0.6-0.6,1-0.8,1.3l-2.2,0.2c0.2-0.3,0.4-0.7,0.8-1.3
			C307.4,58,310.1,53.5,311,53.4"/>
		<path class="st0" d="M312.1,43.6l2.2-0.2c-0.7,1.1-0.7,1.9-0.7,2.4c0,0.5,0.4,2.1,2.3,4.9l-2.4,0c-1.9-2.8-2.1-4.2-2.1-4.7
			C311.3,45.5,311.4,44.7,312.1,43.6"/>
		<path class="st0" d="M313.5,50.7l2.2-0.2c1,1.9,1.3,5.4,1.6,7.7c0.1,0.8,0.1,1.5,0.2,1.7l-2.2,0.2c-0.1-0.2-0.1-0.9-0.2-1.7
			C314.8,56.1,314.5,52.6,313.5,50.7"/>
		<path class="st0" d="M315.3,60.1l2.2-0.2c0.2,0.6,0.6,2.4,0.8,3.5c0.4,2,0.6,2.6,0.6,2.8l-2.2,0.2c0-0.2-0.2-0.9-0.6-2.8
			C315.9,62.5,315.5,60.7,315.3,60.1"/>
		<path class="st0" d="M316.7,66.4l2.2-0.2c0.5,4.3,0.1,6.5,0.2,7.5l-1.9,0.6C317.1,71.7,316.9,69,316.7,66.4"/>
		<path class="st0" d="M312.6,28.7l2.2-0.2c0.5,0,0.9,0.1,1.3,0.3c0.6,0.3,1.1,0.8,1.5,1.5c1.8,2.7,2.2,7.9,0.8,11
			c-0.6,1.3-1.6,2.1-2.9,2.2c-0.7,0.1-1.5,0.1-2.2,0.2c1.2-0.1,2.3-0.8,2.9-2.2c1.4-3.1,1.1-8.3-0.8-11c-0.5-0.7-1-1.2-1.5-1.5
			C313.5,28.8,313.1,28.7,312.6,28.7"/>
		<path class="st1" d="M317.2,74.3c-0.4-0.3-1.4-4.2-2.7-7.9c-0.6-1.7-1.1-4.2-1.6-6.6c-0.6-2.9-1.3-6.2-1.8-6.4
			c-0.8-0.4-3.6,4.4-4.9,6.5c-0.3,0.6-0.6,1-0.7,1.2c-1,1.5-4,7.8-4.3,9.7c-0.3,1.9-4.2,10.6-4.9,10.8l-0.3,0
			c-0.5-0.3-1.1-1.5-2-3.8c1.1-4.2,1.3-4.7,2-6.3c0.3-0.6,0.5-1.2,0.8-1.8c0.7-1.6,1.3-3.1,1.8-3.5c0.5-0.4,4.2-10,4.5-11.4
			c0.1-0.2,0.2-0.6,0.4-1.2c0.7-2.2,2.4-7.5,1.8-9.8c-0.6-2.9-6.8-9.5-7.3-9.8c0,0-0.1,0-0.3-0.1c-0.7-0.4-2.2-1.5-3.6-3
			c-1.2-1.3-2.5-2.6-3.5-3.2c-0.4-0.2-0.7-0.3-1-0.3c-0.8,0-2.9,5.5-3.8,7.8c-0.2,0.5-0.3,0.9-0.4,1.1c-0.7,1.7-2.6,8.2-2.6,10
			c0,1.7-2.3,10.9-3,11.5c-0.2,0.1-0.4,0.1-0.6,0c-0.5-0.3-1.1-1-2.1-2.2c0.4-4.1,0.5-4.7,0.9-6.3c0.1-0.6,0.3-1.2,0.4-1.8
			c0.4-1.6,0.7-3.2,1.1-3.8c0.4-0.6,2.4-10.1,2.5-11.3c0-0.2,0.1-0.6,0.2-1.2c0.3-2.1,1.1-7,0.2-8.5c-0.3-0.6-1.3-1.3-2.5-2
			c-3.3-1.8-8.6-3.5-9-3.5c0,0-0.2,0-0.9-0.1c-0.5-0.1-1.4-0.4-2.6-0.9c-2.3-1-5.9-1.8-6.8-1.4c-0.8,0.3-1.6,5.4-1.9,7.3
			c-0.1,0.4-0.1,0.7-0.1,0.9c-0.3,1.6-0.6,7.4-0.3,8.7c0.3,1.4,0.1,9.8-0.4,10.6c-0.2,0.2-0.5,0.4-1.5-0.2c-0.3-0.2-0.8-0.4-1.3-0.8
			c-0.5-3.7-0.5-4.2-0.5-5.6c0-0.5,0-1.1,0-1.7c0-1.5,0-2.9,0.3-3.5c0.3-0.7,0-8.9-0.1-9.7c-0.8-4.6-1.7-6.1-2.3-6.6
			c-0.1-0.1-0.2-0.2-0.4-0.2c-1.7-0.9-5.7-1.3-8-1.5l-0.9-0.1c-3.1-0.7-6.3-1.4-9-1.9l0-0.5c0.1,0,1,0,3.2,0.1
			c3.7,0.2,9.8,0.4,13.9,0.5c1.4,0,2.4-0.2,4.1-0.5c0.5-0.1,0.8-0.3,0.8-0.6c0-0.3-0.2-0.6-0.2-0.7c-2.2-1.7-3.4-3.2-3.4-4.6
			c0-2.4,2-4.2,4.5-4.1c0.7,0,1.3,0.2,1.8,0.5c0.8,0.4,1.4,1.1,1.8,1.9c0.4,0.8,0.6,1.7,0.5,2.6c-0.2,2.3-2.3,3.6-2.9,4
			c-0.2,0.9,0,1.3,0.2,1.5c0,0,0.1,0.2,0.3,0.3c0.4,0.2,1.2,0.5,2.8,0.7c2,0.4,3.9,1.3,4.4,1.6c0.4,0.2,2.5,0.7,3.8,1.1
			c0.9,0.2,1.2,0.3,1.4,0.4c0.2,0,0.6,0.1,1.6,0.5c0.8,0.3,2.1,0.7,3.1,1.2c1.3,0.6,2.5,0.9,3.4,1.1c0.5,0.1,1,0.2,1.3,0.4
			c0.4,0.1,0.8,0.4,1.4,0.7c1.1,0.6,2.5,1.3,3.6,1.5c0.5,0.1,0.8-0.1,1-0.5c0.1-0.4,0.1-0.9,0-1.1l-0.1-0.3c-2-3.4-2.1-5.5-1.8-6.7
			c0.7-3,3.2-4.6,5.5-3.5c1.2,0.7,2.1,1.9,2.5,3.4c0.4,1.5,0.4,3.1,0,4.6c-0.8,2.6-2.9,3.5-3.8,3.7c-0.5,1.2-0.4,1.8-0.3,2.1
			c0.1,0.2,0.4,1,2.6,2.4c1.4,1,1.7,1.8,2,2.3c0.1,0.2,0.2,0.4,0.3,0.5c0.2,0.3,1.6,1.4,2.7,2.4l1.2,1c0.3,0.3,0.5,0.4,0.5,0.5
			c0.2,0.1,0.6,0.4,1.4,1.1c0.7,0.7,1.8,1.7,2.7,2.9c1,1.3,1.4,1.6,1.8,1.8c0.2,0.1,0.5,0.3,0.8,0.7c0.3,0.3,0.7,0.9,1.2,1.6
			c0.9,1.3,2,2.8,3,3.6l0.3,0.2c0.3,0.1,0.5,0.1,0.7,0c0.3-0.4,0.4-1.3,0.4-1.7c-1.2-5.4-0.9-8-0.4-9.2c0.6-1.6,1.6-2.6,2.7-2.8
			c0.5-0.1,1,0,1.5,0.3c0.6,0.3,1.1,0.8,1.5,1.5c1.8,2.7,2.2,7.8,0.8,11c-0.8,1.8-2.3,2.5-4.2,2c-0.7,1.1-0.7,1.9-0.7,2.4
			c0,0.5,0.2,1.3,1.8,4c0.1,0.1,0.3,0.6,0.4,0.7c1,1.9,1.3,5.4,1.6,7.7c0.1,0.8,0.1,1.5,0.2,1.7c0.2,0.6,0.6,2.4,0.8,3.5
			c0.4,2,0.6,2.6,0.6,2.8C316.9,69,317.1,71.7,317.2,74.3"/>
		<path class="st1" d="M316.5,71.7c0.1,0.4,0.2,0.8,0.3,1.1c-0.1-2.1-0.3-4.3-0.4-6.4c0-0.2-1.1-5.2-1.4-6.1c-0.1-0.3-0.1-1-0.2-1.9
			c-0.2-2.1-0.7-5.5-1.5-7.5c-0.8-1.8-1.8-2.2-2.3-4.9c-0.2-0.9,0.5-2.1,1.1-3.1c1.1,0.1,2.9,0.5,4-1.8c1.3-2.9,1-7.7-0.7-10.2
			c-0.4-0.6-0.9-1.1-1.4-1.4c-0.4-0.2-0.9-0.3-1.4-0.3c-1,0.2-2,1.1-2.5,2.6c-0.5,1.2-0.8,3.6,0.4,8.5c0,0.2,0.1,0.3,0.1,0.4
			c0,0.4-0.1,1.3-0.3,1.7c-0.2,0.4-0.5,0.9-1.1,0.5l-0.3-0.2c-1-0.8-2.2-2.4-3.1-3.7c-0.5-0.7-0.9-1.3-1.2-1.6
			c-0.3-0.3-0.5-0.5-0.8-0.6c-0.4-0.2-0.8-0.5-1.9-1.9c-1.4-1.9-3.7-3.7-4.1-4c0,0-0.9-0.8-1.7-1.5c-1.2-1-2.5-2.1-2.8-2.4
			c-0.1-0.2-0.2-0.4-0.3-0.6c-0.2-0.5-0.5-1.2-1.7-2c-1.9-1.2-2.8-2.1-3-2.8c-0.3-0.9,0-1.8,0.5-2.9c0.8-0.3,2.9-1,3.7-3.4
			c0.4-1.3,0.4-2.8,0-4.1c-0.4-1.4-1.2-2.5-2.2-3c-2.2-1.1-4.6,0.4-5.2,3.2c-0.2,1.1-0.1,3,1.7,6.2c0.1,0.3,0.5,1.3,0.1,2.1
			c-0.3,0.6-0.6,0.8-1.3,0.7c-1.2-0.1-2.6-0.9-3.7-1.5c-0.6-0.3-1-0.5-1.4-0.7c-0.4-0.1-0.8-0.2-1.3-0.4c-1-0.2-2.2-0.5-3.5-1.1
			c-2-0.9-4.7-1.6-4.7-1.6c0,0-0.7-0.2-1.4-0.4c-1.4-0.4-3.4-0.8-3.7-1l-0.2-0.1c-0.6-0.3-2.4-1.2-4.1-1.5c-1.4-0.2-2.4-0.4-2.9-0.7
			c-0.2-0.1-0.4-0.3-0.5-0.4c-0.3-0.5-0.4-1.5-0.2-2.4c0.4-0.4,2.6-1.5,2.8-3.6c0.1-0.7-0.1-1.5-0.4-2.1c-0.4-0.7-1-1.3-1.7-1.7
			c-0.5-0.3-1.1-0.4-1.7-0.5c-2.3-0.1-4.2,1.6-4.2,3.6c0,1.1,1.1,2.6,3.1,4c0.3,0.3,0.7,0.7,0.5,1.5c-0.1,0.5-0.4,0.9-1.1,1
			c-1.7,0.3-2.7,0.5-4.2,0.5c-4-0.1-10.1-0.3-13.8-0.5c1.9,0.4,3.8,0.8,5.7,1.3l0.9,0.1c2.4,0.2,6.4,0.6,8.1,1.5
			c0.2,0.1,0.3,0.2,0.4,0.3c1,0.8,1.8,3,2.5,6.8c0.2,0.9,0.5,9.4,0.1,10.3c-0.2,0.5-0.2,1.8-0.2,3.2c0,0.5,0,1.1,0,1.7
			c0,1.4,0,1.8,0.4,5.1c0.5,0.4,0.9,0.6,1.2,0.8c0.9,0.5,1.2,0.3,1.2,0.3c0.3-0.5,0.7-8.6,0.3-10c-0.4-1.6,0-7.5,0.3-9.1
			c0-0.2,0.1-0.5,0.1-0.9c0.6-3.8,1.3-7.3,2.1-7.6c1.1-0.4,4.9,0.6,7,1.5c2.1,0.8,3.2,1,3.3,1c0.2-0.1,3.1,0.8,5.6,1.9
			c1.4,0.6,2.6,1.1,3.5,1.6c1.5,0.8,2.4,1.5,2.7,2.1c1,1.7,0.3,6.4-0.1,9c-0.1,0.6-0.1,1-0.2,1.1c-0.1,0.9-2,10.9-2.6,11.7
			c-0.4,0.5-0.7,2-1.1,3.6c-0.1,0.6-0.3,1.2-0.4,1.8c-0.4,1.5-0.5,2.1-0.9,5.8c1,1.3,1.5,1.8,1.9,2c0.2,0.1,0.3,0.1,0.4,0
			c0.4-0.4,2.8-9.2,2.8-11c0-1.9,1.9-8.5,2.6-10.3c0.1-0.2,0.2-0.6,0.4-1.1c1.6-4.1,3.1-8,4-8.1c0.3,0,0.7,0.1,1.1,0.3
			c0.9,0.5,2,1.5,3.6,3.3c1.8,1.9,3.4,2.9,3.7,3.1c0.7,0.3,7,7.1,7.6,10.2c0.6,2.5-1.1,7.8-1.9,10.3c-0.2,0.5-0.3,1-0.3,1.2
			c-0.2,1-3.9,11.1-4.6,11.6c-0.4,0.4-1.1,1.9-1.7,3.3c-0.3,0.6-0.5,1.2-0.8,1.8c-0.7,1.5-0.8,2-1.9,5.8c1,2.6,1.5,3.3,1.7,3.4
			c0.6-0.1,4.5-8.3,4.8-10.4c0.3-2,3.3-8.4,4.4-9.9c0.2-0.2,0.4-0.7,0.7-1.2c2.1-3.6,4.3-7.1,5.2-6.6c0.7,0.4,1.2,2.8,2,6.8
			c0.5,2.4,1,4.8,1.6,6.5C315.5,68.2,316.1,70.3,316.5,71.7"/>
		<path class="st2" d="M213,70.1l-6.1-10.8l47.9-19.3c0.1,0.4,0.1,0.9,0.2,1.5c0.5,0.4,0.9,0.6,1.3,0.8c0.5,0.3,0.9,0.4,1.1,0.4
			c0.1,0,0.1,0,0.2,0l2.1-0.1c0.2,0,0.3-0.1,0.4-0.2c0.2-0.4,0.4-2.4,0.5-4.6l17.8-7.2l-1.9,13.9L213,70.1"/>
		<path class="st3" d="M257.5,42.6c0.1,0,0.2-0.1,0.3-0.2l2.2-0.2c-0.1,0.1-0.2,0.2-0.4,0.2L257.5,42.6"/>
		<path class="st3" d="M257.8,42.4c0.2-0.3,0.4-2,0.5-3.9l2.2-0.9c-0.1,2.2-0.3,4.3-0.5,4.6L257.8,42.4"/>
		<path class="st4" d="M257.4,42.6c-0.2,0-0.6-0.1-1.1-0.4c-0.3-0.2-0.8-0.4-1.3-0.8c-0.1-0.6-0.1-1.1-0.2-1.5l0.3-0.1
			c0,0.3,0.1,0.7,0.1,1.2c0.5,0.3,0.9,0.6,1.2,0.8c0.5,0.3,0.8,0.3,1,0.3c0.1,0,0.2-0.1,0.2-0.1c0.1-0.2,0.3-1.6,0.4-3.3l0.3-0.1
			c-0.1,1.9-0.3,3.6-0.5,3.9c-0.1,0.1-0.1,0.2-0.3,0.2C257.5,42.6,257.4,42.6,257.4,42.6"/>
		<path class="st4" d="M257.3,42.1c-0.2,0-0.5-0.1-1-0.3c-0.3-0.2-0.7-0.4-1.2-0.8c0-0.4-0.1-0.8-0.1-1.2l2.9-1.2
			c-0.1,1.7-0.2,3.1-0.4,3.3C257.5,42.1,257.5,42.1,257.3,42.1"/>
		<path class="st2" d="M223.3,88.1l-6.1-10.8l60.2-24.3c-0.1,0.7-0.2,1.6-0.3,2.7c0.9,1.2,1.6,1.9,2.1,2.2c0.1,0.1,0.2,0.1,0.4,0.1
			c0,0,0,0,0.1,0l2.1-0.2l0.2-0.1c0.5-0.4,1.6-4.3,2.3-7.6l4.3-1.7l-1.9,13.9L223.3,88.1"/>
		<path class="st3" d="M279.6,58c0.1,0,0.1,0,0.2-0.1c0.4-0.3,1.4-3.7,2.1-6.8l2.4-1c-0.7,3.2-1.8,7.2-2.3,7.6l-0.2,0.1L279.6,58"/>
		<path class="st4" d="M279.5,58c-0.1,0-0.2,0-0.4-0.1c-0.5-0.3-1.1-1-2.1-2.2c0.1-1.2,0.2-2,0.3-2.7l0.3-0.1
			c-0.1,0.6-0.2,1.5-0.3,2.5c1,1.3,1.5,1.8,1.9,2c0.1,0.1,0.2,0.1,0.2,0.1c0.1,0,0.1,0,0.1,0c0.3-0.2,1.2-3.2,1.9-6.1l0.4-0.2
			c-0.7,3-1.7,6.4-2.1,6.8C279.7,57.9,279.6,58,279.5,58C279.6,58,279.5,58,279.5,58"/>
		<path class="st4" d="M279.5,57.4c-0.1,0-0.1,0-0.2-0.1c-0.3-0.2-0.9-0.7-1.9-2c0.1-1.1,0.2-1.9,0.3-2.5l3.8-1.5
			c-0.7,2.9-1.6,5.9-1.9,6.1C279.6,57.4,279.5,57.4,279.5,57.4"/>
		<path class="st0" d="M240.7,10.7c0,0-48.4-5.6-52.5,35.4c-4.3,42.4,93.7,107.3,127.2,38.2c4-8.2,3.8-14.4,3.7-14.4
			c-0.4-0.1,0,0.3-3.4-0.8c0,0-2.7,35.9-47.2,29.4c-41.8-6.1-56.7-42.3-56.7-42.3c-3.3-8.2-9.2-43.3,28.7-44l1.4,0.1"/>
		<path class="st5" d="M240.7,10.7c0,0-48.4-5.6-52.5,35.4c-4.3,42.4,93.7,107.3,127.2,38.2c4-8.2,3.6-14.5,3.7-14.4l0.1-0.2
			c-0.1,0,1.2,8.7-2.9,17.5c-34.6,74.1-136.8,5.5-132.6-39.9c4-43.9,57.9-36.9,57.9-36.9L240.7,10.7"/>
		<path class="st6" d="M240.7,10.7c0,0-48.4-5.6-52.5,35.4c-4.3,42.4,93.7,107.3,127.2,38.2c4-8.2,3.6-14.5,3.7-14.4l0-0.4
			c-0.1,0,1.3,8.9-2.8,17.7c-34.6,74.1-136.8,5.5-132.6-39.9c4-43.9,58-36.8,58-36.8L240.7,10.7"/>
		<path class="st6" d="M240.7,10.7L240.7,10.7c0-0.1-2.2-0.3-5.8-0.3c-13,0-43.6,3.5-46.8,35.7c-0.1,0.9-0.1,1.8-0.1,2.7
			c0,28.7,43.4,65.8,81.6,65.8c18.2,0,35.3-8.5,45.9-30.3c2-4.1,2.9-7.7,3.3-10.3c0.2-1.3,0.3-2.3,0.3-3c0-0.4,0-0.6,0-0.8l0-0.2
			l0-0.1v0l-0.1,0l0,0l0,0l-0.1,0l0,0l-0.1,0v0.1l0.1,0l-0.1,0v0.1v-0.1l0,0.1l0,0v-0.1l0,0.1l0.1,0l0-0.5l0-0.1l-0.1,0l0,0
			l-0.1,0.1v0c0,0.1,0.2,1.5,0.2,3.7c0,3.4-0.5,8.7-2.9,14c-11,23.6-28.9,32.7-48,32.7c-19.8,0-41-9.8-57.2-23.5
			c-16.2-13.6-27.5-31.1-27.5-46.4c0-0.9,0-1.8,0.1-2.7c3-33.1,34.6-37.2,49.8-37.2c2.5,0,4.5,0.1,5.9,0.2c1.4,0.1,2.2,0.2,2.2,0.2
			l0-0.1l0-0.1l-1.1,0.1l-0.1,0L240.7,10.7L240.7,10.7L240.7,10.7L240.7,10.7L240.7,10.7L240.7,10.7l1.1-0.1l0-0.1
			c0,0-3.2-0.4-8.1-0.4c-15.3,0-46.9,4.1-50,37.3c-0.1,0.9-0.1,1.8-0.1,2.7c0,30.6,45.1,69.9,84.8,69.9c19.1,0,37.1-9.1,48.1-32.8
			c2.5-5.3,3-10.7,3-14.1c0-2.1-0.2-3.5-0.2-3.7h0l0,0l0,0h0l0,0l-0.1,0l0.1,0l0,0l-0.1,0l0.1,0l-0.1,0v0.1l0.1,0l-0.1,0v0.1v-0.1
			l0,0.1l0,0v-0.1l0,0.1l0-0.1l-0.1,0l0,0.4l0.1,0l0-0.1l0,0l-0.1,0l0,0.1c0,0.8,0,6.7-3.7,14.3c-10.6,21.8-27.6,30.2-45.8,30.2
			c-19.1,0-39.4-9.3-55-22.1C198.9,79.5,188,63.1,188,48.8c0-0.9,0-1.8,0.1-2.7c3.2-32.1,33.7-35.6,46.7-35.6
			C238.4,10.5,240.6,10.8,240.7,10.7l0.1,0.1L240.7,10.7"/>
	</g>
	<path class="st7" d="M7.7,37.5c0,2-1.9,3.7-5.5,3.7c-0.7,0-1.4-0.1-1.7-0.2l-0.1-0.2L0,38.6l0.2-0.2l0.1,0c0.3,0.6,0.6,1.2,0.9,1.7
		c0.1,0.2,0.2,0.3,0.3,0.3c0.3,0.2,0.9,0.3,1.4,0.3c1.9,0,3.3-0.9,3.3-2.5c0-1.4-1-2.1-2.9-2.9c-1.8-0.7-3-1.6-3-3.1
		c0-1.9,2.1-3.7,5.1-3.7c0.7,0,1.4,0.1,1.7,0.2l0.1,0.2l0.2,2.3l-0.2,0.2l-0.1,0c-0.2-0.6-0.5-1.2-0.8-1.8c-0.1-0.1-0.1-0.2-0.3-0.3
		c-0.2-0.1-0.6-0.2-1.2-0.2c-1.8,0-3,1.1-3,2.5c0,1.2,0.8,1.8,2.4,2.6C6.2,34.9,7.7,35.7,7.7,37.5 M15.9,32.4l0.1-0.3l0,0l-3.8,0
		c0.1-0.8,0.2-2.2,0.3-2.8l-0.1-0.1c-0.1,0-0.6,0.3-0.9,0.4c-0.3,0.1-0.4,0.3-0.5,0.5c-0.1,0.5-0.3,1.5-0.3,1.9H9.3
		c-0.2,0-0.3,0.1-0.4,0.3l-0.1,0.3l0.1,0.1l1.8,0c-0.2,1.4-0.3,3.4-0.3,4.8c0,2.9,1.1,3.8,3,3.8c0.4,0,0.7,0,0.9-0.1
		c0.7-0.2,1.5-0.5,1.9-0.7l0.1-0.1L16,40.1c-0.5,0.2-1,0.4-1.3,0.4c-0.2,0-0.5,0.1-0.7,0.1c-1.4,0-2-1-2-3.7c0-1.4,0.1-2.8,0.2-4.3
		L15.9,32.4z M16.6,32.2L16.6,32.2l0.1,0.3h1c0.2,0,0.2,0.1,0.2,0.3c0,0.5,0.1,2.7,0.1,3.6c0,1.1,0.1,3.6,0.1,4
		c0,0.2-0.1,0.2-0.3,0.2l-1,0.2L16.7,41l0,0c0.4,0,1.1,0,2,0c0.8,0,1.6,0,2,0l0.1-0.1l-0.1-0.2l-1-0.2c-0.1,0-0.2-0.1-0.2-0.3
		c0-0.4,0-2.9,0.1-3.9c0-1,0.1-3.8,0.2-4.6c0-0.1,0-0.2-0.2-0.2L16.6,32.2z M18.6,28.6c-0.6,0-1,0.5-1,0.9c0,0.5,0.5,0.9,1,0.9
		c0.5,0,0.9-0.4,0.9-0.9C19.6,29,19.2,28.6,18.6,28.6L18.6,28.6z M21.9,37.3c0,2.7,1.6,3.9,3.8,3.9c0.8,0,1.1-0.1,1.5-0.2
		c0.8-0.3,1.6-0.7,2-1l0.1-0.1l-0.1-0.2c-0.5,0.3-1,0.5-1.6,0.7c-0.3,0.1-0.7,0.1-1.1,0.1c-1.5,0-2.7-1.1-2.7-3.4
		c0-1.4,0.4-2.6,0.8-3.3c0.6-1,1.4-1.7,2.3-1.7c0.3,0,0.7,0.1,0.9,0.2c0.1,0.1,0.2,0.2,0.3,0.4c0.2,0.5,0.4,1,0.7,1.6l0.1,0l0.2-0.2
		l-0.1-2.1L28.8,32c-0.3-0.1-0.8-0.3-1.6-0.3c-1.3,0-2.4,0.5-3.3,1.3C22.6,34.1,21.9,35.8,21.9,37.3L21.9,37.3z M29.8,27.7
		L29.8,27.7l0.1,0.3l1.2,0c0.1,0,0.2,0.1,0.2,0.3c0,0.6,0,5.4,0,6.1c0,0.8,0,5.5,0,6c0,0.2,0,0.2-0.2,0.3l-0.9,0.2L30.1,41l0.1,0.1
		c0.3,0,0.9,0,1.8,0c0.9,0,1.8,0,2.1,0l0.1-0.1L34,40.8l-1.1-0.2c-0.1,0-0.2-0.1-0.2-0.2c0-0.4,0.1-1.5,0.2-2c0.5-2.1,2-5.4,3.5-5.4
		c1.1,0,1.5,1.8,1.5,4.3c0,0.9,0,2.7-0.1,3.1c0,0.2-0.1,0.3-0.2,0.3l-1,0.2L36.5,41l0.1,0c0.4,0,1,0,2,0c0.9,0,1.6,0,1.9,0l0.1,0
		l-0.1-0.2l-1-0.2c-0.2,0-0.2-0.1-0.2-0.4c0-0.5,0.2-2.5,0.2-3.9c0-2.3-0.4-4.6-2-4.6c-2.2,0-3.8,3.3-4.3,4.7
		c-0.1,0.2-0.2,0.5-0.2,0.8h-0.1c0-0.3,0-0.6,0-0.9c0.1-1.8,0.3-8.7,0.3-8.8c0-0.1,0-0.2-0.2-0.2L29.8,27.7z M48.1,32.4l0.1-0.3l0,0
		l-3.8,0c0.1-0.8,0.2-2.2,0.3-2.8l-0.1-0.1c-0.1,0-0.6,0.3-0.9,0.4c-0.3,0.1-0.4,0.3-0.5,0.5c-0.1,0.5-0.3,1.5-0.3,1.9h-1.5
		c-0.2,0-0.3,0.1-0.4,0.3L41,32.6l0.1,0.1l1.8,0c-0.2,1.4-0.3,3.4-0.3,4.8c0,2.9,1.1,3.8,3,3.8c0.4,0,0.7,0,0.9-0.1
		c0.7-0.2,1.5-0.5,1.9-0.7l0.1-0.1l-0.1-0.2c-0.5,0.2-1,0.4-1.3,0.4c-0.2,0-0.5,0.1-0.7,0.1c-1.4,0-2-1-2-3.7c0-1.4,0.1-2.8,0.2-4.3
		L48.1,32.4z M48.9,32.2L48.9,32.2l0.1,0.3h1c0.2,0,0.2,0.1,0.2,0.3c0,0.5,0.1,2.7,0.1,3.6c0,1.1,0.1,3.6,0.1,4
		c0,0.2-0.1,0.2-0.3,0.2l-1,0.2L49,41l0,0c0.4,0,1.1,0,2,0c0.8,0,1.6,0,2,0L53,41l-0.1-0.2l-1-0.2c-0.1,0-0.2-0.1-0.2-0.3
		c0-0.4,0-2.9,0.1-3.9c0-1,0.1-3.8,0.2-4.6l-0.2-0.2L48.9,32.2z M50.8,28.6c-0.6,0-1,0.5-1,0.9c0,0.5,0.5,0.9,1,0.9
		c0.5,0,0.9-0.4,0.9-0.9C51.8,29,51.4,28.6,50.8,28.6L50.8,28.6z M63.2,40.6c-0.2,0-0.3-0.1-0.2-0.4c0-0.5,0.2-2.7,0.2-3.9
		c0-2.4-0.4-4.6-2-4.6c-2.1,0-3.7,3.2-4.3,4.8c0,0.1-0.2,0.5-0.2,0.7h-0.1c0-0.3,0-0.6,0-0.9c0.1-1.1,0.2-3.9,0.2-4.4l-0.1-0.1
		l-2.8,0.5l-0.1,0.1l0.1,0.2l0.9,0c0.2,0,0.2,0.2,0.2,0.4c0,0.5,0.1,2.7,0.1,3.5c0,1.1,0,3.4,0,4c0,0.1-0.1,0.2-0.2,0.2l-1,0.2
		L53.9,41l0,0c0.5,0,1.1,0,1.9,0c0.9,0,1.5,0,2.1,0l0.1,0l-0.1-0.2l-1.1-0.2c-0.1,0-0.2-0.1-0.2-0.2c0-0.5,0.1-1.6,0.2-2.1
		c0.5-2.1,2.1-5.3,3.4-5.3c1.1,0,1.5,1.9,1.5,4.3c0,0.7,0,2.7-0.1,3.1c0,0.1-0.1,0.2-0.3,0.3l-0.9,0.2L60.3,41l0,0c0.4,0,1.1,0,2,0
		c0.8,0,1.4,0,1.9,0l0,0l-0.1-0.2L63.2,40.6z M65.5,35.4c0,1.4,1.2,2.4,2.6,2.6c-0.6,0.2-1.4,0.6-2.2,0.9c-0.1,0.1-0.2,0.1-0.2,0.3
		c0,0.4,0.1,0.6,0.4,0.8c0.3,0.2,0.9,0.4,1.6,0.5c-2.3,1.2-3.1,1.6-3.1,2.6c0,1.3,1.8,1.9,4.2,1.9c3.2,0,5.4-1.3,5.4-3
		c0-1.5-1.6-1.9-4.2-2.2c-1.4-0.2-2.9-0.4-2.9-0.7c0-0.3,0.7-0.6,1.6-0.8c0.4-0.1,0.7-0.2,1-0.2c2.1-0.3,3.6-1.5,3.6-3.5
		c0-0.8-0.3-1.7-1-2.1l1.9-0.2l0.1-0.2l-0.1,0l-2.5,0c-0.2,0-0.3,0-0.5,0c-0.3,0-0.8-0.1-1.5-0.1C67.3,31.7,65.5,33.3,65.5,35.4
		L65.5,35.4z M69.4,44.6c-1.7,0-2.9-0.7-2.9-1.8c0-1,0.8-1.6,1.6-2.1c0.2-0.1,0.4-0.1,0.6-0.1c2.4,0.4,4,0.6,4,2
		C72.6,43.7,71.1,44.6,69.4,44.6L69.4,44.6z M69.4,37.7c-1.1,0-2.1-1-2.1-2.6c0-1.7,0.8-3,2.3-3c1.3,0,2,1.2,2,2.7
		C71.6,36.8,70.6,37.7,69.4,37.7L69.4,37.7z M78.4,28.6L78.4,28.6c0,0.2,0,0.3,0.1,0.3l0.9,0.2c0.2,0,0.3,0.2,0.3,0.4
		c0,0.4,0.1,4.4,0.1,5.2c0,0.9,0.1,5,0.1,5.6c0,0.2-0.1,0.3-0.2,0.3l-1,0.2L78.6,41l0.1,0.1c0.4,0,0.9,0,1.6,0c0.7,0,1.4,0,1.8,0
		l0-0.1l-0.1-0.2l-1.3-0.2c-0.1,0-0.2-0.1-0.2-0.3c0-0.6,0.2-7.1,0.2-8.9c0-0.2,0-0.4,0-0.7l0.1,0c0.1,0.2,0.2,0.4,0.3,0.6
		c1.6,2.6,5,7.9,6.3,9.8c0.1,0.1,0.2,0.2,0.3,0.2c0.2,0,0.5-0.1,0.6-0.1l0.1-0.1c0-0.7,0.1-5.3,0.1-6.2c0.1-1.4,0.2-4.5,0.2-5.2
		c0-0.4,0.1-0.5,0.3-0.5l0.6-0.1l0.1-0.2l-0.1-0.1h-3.4l0,0.1l0.1,0.2l1,0.2c0.2,0,0.3,0.2,0.3,0.4c0.1,0.9,0.2,7.3,0.2,9.1
		c0,0.2,0,0.5,0,0.8l-0.1,0c-0.1-0.2-0.3-0.5-0.4-0.7c-1.3-2.2-5-8.5-5.9-10l-0.2-0.1H78.4z M94.7,41.2c3,0,4.8-2.5,4.8-5.2
		c0-2.5-1.3-4.3-3.9-4.3c-2.9,0-4.8,2.5-4.8,5.3C90.8,39.6,92.3,41.2,94.7,41.2L94.7,41.2z M95.1,40.8c-1.5,0-2.5-1.6-2.5-4
		c0-2.7,1-4.7,2.7-4.7c1.6,0,2.4,1.7,2.4,4.1C97.7,38.9,96.9,40.8,95.1,40.8L95.1,40.8z M103.5,37c0-0.2,0-0.5,0-0.7
		c0.1-1.1,0.2-3.9,0.2-4.4c0-0.1,0-0.2-0.2-0.2l-2.8,0.5l-0.1,0.1l0.1,0.2h1c0.2,0,0.2,0.2,0.2,0.3c0,0.5,0.1,2.5,0.1,3.5
		c0,1,0,3.6,0,4c0,0.2-0.1,0.2-0.2,0.2l-0.9,0.2l-0.1,0.2l0,0c0.3,0,1,0,1.9,0c1.1,0,2.1,0,2.5,0l0-0.1l-0.1-0.2l-1.6-0.2
		c-0.1,0-0.2-0.1-0.2-0.2c0-0.3,0.1-1.4,0.2-1.9c0.4-2.4,1.6-5.7,3.1-5.7c0.3,0,0.5,0.1,0.6,0.3c0.2,0.4,0.4,0.9,0.6,1.3l0,0
		l0.2-0.1L108,32l-0.1-0.1c-0.1-0.1-0.3-0.2-0.6-0.2c-2,0-3.1,2.9-3.6,4.6c0,0.2-0.1,0.4-0.1,0.7H103.5z M124.2,40.6
		c-0.2,0-0.2-0.1-0.2-0.4c0-0.4,0.2-2.7,0.2-4c0-3.1-0.7-4.5-2-4.5c-2.2,0-3.5,2.9-4,4.3c-0.1,0.2-0.2,0.5-0.2,0.7h-0.1
		c0-0.3,0-0.5,0-0.7c0-2.2-0.5-4.3-1.9-4.3c-2.2,0-3.5,3.1-4.1,4.6c-0.1,0.2-0.1,0.4-0.2,0.6h-0.1c0-0.2,0-0.5,0-0.7
		c0.1-1,0.2-4,0.2-4.4c0-0.1,0-0.2-0.2-0.2l-2.9,0.5l-0.1,0.1l0.1,0.2h1c0.2,0,0.2,0.1,0.2,0.3c0,0.5,0.1,2.6,0.1,3.4
		c0,1.1,0,3.5,0,4.1c0,0.2-0.1,0.2-0.2,0.2l-0.9,0.2L109,41l0,0c0.5,0,1,0,1.8,0c0.9,0,1.5,0,2,0l0.1,0l-0.1-0.2l-1-0.2
		c-0.1,0-0.2-0.1-0.2-0.2c0-0.4,0.1-1.5,0.2-2c0.4-2,1.7-5.4,3.2-5.4c1.1,0,1.5,1.8,1.5,4.4c0,0.6,0,2.6,0,3c0,0.2-0.1,0.3-0.3,0.3
		l-0.8,0.2l-0.1,0.2l0.1,0c0.4,0,1,0,1.9,0c0.8,0,1.5,0,1.9,0l0-0.1l-0.1-0.2l-1-0.2c-0.2,0-0.2-0.1-0.2-0.3c0-0.3,0.1-1.3,0.2-2
		c0.3-2.1,1.6-5.4,3.1-5.4c1.1,0,1.5,1.8,1.5,4.3c0,0.6,0,2.6-0.1,3c0,0.2-0.1,0.3-0.2,0.3l-0.8,0.2l-0.1,0.2l0,0c0.4,0,1,0,1.9,0
		c0.8,0,1.4,0,1.9,0l0-0.1l-0.1-0.2L124.2,40.6z M133.9,35.7c0-1.7-1-4-3.4-4c-2.4,0-4.2,2.8-4.2,5.4c0,2.8,1.7,4.1,3.8,4.1
		c0.7,0,1.2-0.1,1.5-0.2c0.8-0.2,1.8-0.8,2.2-1l0.1-0.1c0-0.1-0.1-0.2-0.1-0.2c-0.4,0.2-1.1,0.6-1.6,0.7c-0.2,0.1-0.8,0.2-1.3,0.2
		c-1.4,0-2.6-1.1-2.7-3c0-0.3-0.1-0.8,0-1.1c0.9,0.1,4.6,0,5.4-0.2C133.8,36.2,133.9,36,133.9,35.7L133.9,35.7z M130.3,32.1
		c1.3,0,1.9,2.1,1.9,3.3c0,0.4-0.2,0.5-0.4,0.5c-0.6,0.1-2.6,0.2-3.7,0.2C128.2,33.6,129.2,32.1,130.3,32.1L130.3,32.1z M137.9,37
		c0-0.2,0-0.5,0-0.7c0.1-1.1,0.2-3.9,0.2-4.4c0-0.1,0-0.2-0.2-0.2l-2.8,0.5l-0.1,0.1l0.1,0.2h1c0.2,0,0.2,0.2,0.2,0.3
		c0,0.5,0.1,2.5,0.1,3.5c0,1,0,3.6,0,4c0,0.2-0.1,0.2-0.2,0.2l-0.9,0.2l-0.1,0.2l0,0c0.3,0,1,0,1.9,0c1.1,0,2.1,0,2.5,0l0-0.1
		l-0.1-0.2l-1.6-0.2c-0.1,0-0.2-0.1-0.2-0.2c0-0.3,0.1-1.4,0.2-1.9c0.4-2.4,1.6-5.7,3.1-5.7c0.3,0,0.5,0.1,0.6,0.3
		c0.2,0.4,0.4,0.9,0.6,1.3l0,0l0.2-0.1l-0.1-2.3l-0.1-0.1c-0.1-0.1-0.3-0.2-0.6-0.2c-2,0-3.1,2.9-3.6,4.6c0,0.2-0.1,0.4-0.1,0.7
		H137.9z M143.2,32.2L143.2,32.2l0.1,0.3h1c0.2,0,0.2,0.1,0.2,0.3c0,0.5,0.1,2.7,0.1,3.6c0,1.1,0.1,3.6,0.1,4c0,0.2-0.1,0.2-0.3,0.2
		l-1,0.2l-0.1,0.2l0,0c0.4,0,1.1,0,2,0c0.8,0,1.6,0,2,0l0.1-0.1l-0.1-0.2l-1-0.2c-0.1,0-0.2-0.1-0.2-0.3c0-0.4,0-2.9,0.1-3.9
		c0-1,0.1-3.8,0.2-4.6c0-0.1,0-0.2-0.2-0.2L143.2,32.2z M145.2,28.6c-0.6,0-1,0.5-1,0.9c0,0.5,0.5,0.9,1,0.9c0.5,0,0.9-0.4,0.9-0.9
		C146.1,29,145.8,28.6,145.2,28.6L145.2,28.6z M157.6,40.6c-0.2,0-0.3-0.1-0.2-0.4c0-0.5,0.2-2.7,0.2-3.9c0-2.4-0.4-4.6-2-4.6
		c-2.1,0-3.7,3.2-4.3,4.8c0,0.1-0.2,0.5-0.2,0.7H151c0-0.3,0-0.6,0-0.9c0.1-1.1,0.2-3.9,0.2-4.4l-0.1-0.1l-2.8,0.5l-0.1,0.1l0.1,0.2
		l0.9,0c0.2,0,0.2,0.2,0.2,0.4c0,0.5,0.1,2.7,0.1,3.5c0,1.1,0,3.4,0,4l-0.2,0.2l-1,0.2l-0.1,0.2l0,0c0.5,0,1.1,0,1.9,0
		c0.9,0,1.5,0,2.1,0l0.1,0l-0.1-0.2l-1.1-0.2c-0.1,0-0.2-0.1-0.2-0.2c0-0.5,0.1-1.6,0.2-2.1c0.5-2.1,2.1-5.3,3.4-5.3
		c1.1,0,1.5,1.9,1.5,4.3c0,0.7,0,2.7-0.1,3.1c0,0.1-0.1,0.2-0.3,0.3l-0.9,0.2l-0.1,0.2l0,0c0.4,0,1.1,0,2,0c0.8,0,1.4,0,1.9,0l0,0
		l-0.1-0.2L157.6,40.6z M159.9,35.4c0,1.4,1.2,2.4,2.6,2.6c-0.6,0.2-1.4,0.6-2.2,0.9c-0.1,0.1-0.2,0.1-0.2,0.3
		c0,0.4,0.1,0.6,0.4,0.8c0.3,0.2,0.9,0.4,1.6,0.5c-2.3,1.2-3.1,1.6-3.1,2.6c0,1.3,1.8,1.9,4.2,1.9c3.2,0,5.4-1.3,5.4-3
		c0-1.5-1.6-1.9-4.2-2.2c-1.4-0.2-2.9-0.4-2.9-0.7c0-0.3,0.7-0.6,1.6-0.8c0.4-0.1,0.7-0.2,1-0.2c2.1-0.3,3.6-1.5,3.6-3.5
		c0-0.8-0.3-1.7-1-2.1l1.9-0.2l0.1-0.2l-0.1,0l-2.5,0c-0.2,0-0.3,0-0.5,0c-0.3,0-0.8-0.1-1.5-0.1C161.7,31.7,159.9,33.3,159.9,35.4
		L159.9,35.4z M163.7,44.6c-1.7,0-2.9-0.7-2.9-1.8c0-1,0.8-1.6,1.6-2.1c0.2-0.1,0.4-0.1,0.6-0.1c2.4,0.4,4,0.6,4,2
		C167,43.7,165.5,44.6,163.7,44.6L163.7,44.6z M163.7,37.7c-1.1,0-2.1-1-2.1-2.6c0-1.7,0.8-3,2.3-3c1.3,0,2,1.2,2,2.7
		C166,36.8,165,37.7,163.7,37.7L163.7,37.7z M127,52.8c-0.5,0-0.7,0.1-0.8,0.5c-0.9,2.5-3.1,8.6-4.1,11.2c-0.1,0.3-0.2,0.3-0.4,0.4
		l-0.6,0.2l-0.1,0.2l0,0.1c0.3,0,0.9,0,1.5,0c0.8,0,1.7,0,2.1,0l0.1,0l-0.1-0.2l-1.2-0.2c-0.1,0-0.2-0.1-0.2-0.3
		c0.2-0.9,0.7-2.6,0.9-3.3l0.2-0.2c1.2-0.1,3.8-0.1,4.7-0.1c0.3,0.9,1,2.7,1.4,3.6c0.1,0.2,0,0.3-0.2,0.3l-1.1,0.2l-0.1,0.2l0.1,0
		c0.5,0,1.3,0,2.3,0c0.7,0,1.5,0,1.8,0l0.1,0l-0.1-0.2l-0.8-0.2c-0.2,0-0.3-0.2-0.4-0.4c-0.8-2.6-2.9-9-3.7-11.5l-0.1-0.1
		C127.8,52.8,127.4,52.8,127,52.8L127,52.8z M126.6,53.8c0.1,0.3,0.2,0.6,0.3,0.8c0.6,1.7,1.7,4.8,2.1,5.9c-0.9,0-3.4,0-4.4-0.1
		c-0.1,0-0.1,0-0.1-0.2c0.4-1.3,1.2-3.8,1.9-5.6C126.3,54.4,126.4,54.1,126.6,53.8L126.6,53.8z M136,61.2c0-0.2,0-0.5,0-0.7
		c0.1-1.1,0.2-3.9,0.2-4.4c0-0.1,0-0.2-0.2-0.2l-2.8,0.5l-0.1,0.1l0.1,0.2h1c0.2,0,0.2,0.2,0.2,0.3c0,0.5,0.1,2.5,0.1,3.5
		c0,1,0,3.6,0,4c0,0.2-0.1,0.2-0.2,0.2l-0.9,0.2l-0.1,0.2l0,0c0.3,0,1,0,1.9,0c1.1,0,2.1,0,2.5,0l0-0.1l-0.1-0.2l-1.6-0.2
		c-0.1,0-0.2-0.1-0.2-0.2c0-0.3,0.1-1.4,0.2-1.9c0.4-2.4,1.6-5.7,3.1-5.7c0.3,0,0.5,0.1,0.6,0.3c0.2,0.4,0.4,0.9,0.6,1.3l0,0
		l0.2-0.1l-0.1-2.3l-0.1-0.1c-0.1-0.1-0.3-0.2-0.6-0.2c-2,0-3.1,2.9-3.6,4.6c0,0.2-0.1,0.4-0.1,0.7H136z M143.7,60.6
		c0-0.3,0-0.7,0.1-1.1c0-1.8,0.2-7.5,0.2-7.7c0-0.1,0-0.2-0.2-0.2l-3,0.3l-0.1,0.1l0.1,0.2l1.1,0c0.1,0,0.2,0.1,0.2,0.3
		c0,0.4,0,4.1,0,5.5c0,2.1,0,5.3,0,7.2l0.3,0.1l0.1,0l0.7-1.2c0.1-0.1,0.1-0.1,0.2,0c0.7,0.8,1.6,1.4,2.9,1.4c2.7,0,4.3-2.9,4.3-6
		c0-1.8-0.8-3.4-2.4-3.4c-2.1,0-3.6,2.5-4.3,4C144,60,143.9,60.3,143.7,60.6L143.7,60.6z M146.3,65c-1.1,0-2.3-1.1-2.5-2.4l-0.1-0.4
		c0-0.1,0-0.2,0.1-0.4c0.5-2.1,2-5,3.6-5c1,0,1.6,1.4,1.6,3.1C149,62.9,148,65,146.3,65L146.3,65z M159.8,59.8c0-1.7-1-4-3.4-4
		c-2.4,0-4.2,2.8-4.2,5.4c0,2.8,1.7,4,3.8,4c0.7,0,1.2-0.1,1.5-0.2c0.8-0.2,1.8-0.8,2.2-1l0.1-0.1c0-0.1-0.1-0.2-0.1-0.2
		c-0.4,0.2-1.1,0.6-1.6,0.7c-0.2,0.1-0.8,0.2-1.3,0.2c-1.4,0-2.6-1.1-2.7-3c0-0.3-0.1-0.8,0-1.1c0.9,0.1,4.6,0,5.4-0.2
		C159.6,60.4,159.8,60.2,159.8,59.8L159.8,59.8z M156.2,56.3c1.3,0,1.9,2.1,1.9,3.3c0,0.4-0.2,0.5-0.4,0.5c-0.6,0.1-2.6,0.2-3.7,0.2
		C154,57.8,155,56.3,156.2,56.3L156.2,56.3z M160.9,56.4L160.9,56.4l0.1,0.3h1c0.2,0,0.2,0.1,0.2,0.3c0,0.5,0.1,2.7,0.1,3.6
		c0,1.1,0.1,3.6,0.1,4c0,0.2-0.1,0.2-0.3,0.2l-1,0.2l-0.1,0.2l0,0c0.4,0,1.1,0,2,0c0.8,0,1.6,0,2,0l0.1-0.1l-0.1-0.2l-1-0.2
		c-0.1,0-0.2-0.1-0.2-0.3c0-0.4,0-2.9,0.1-3.9c0-1,0.1-3.8,0.2-4.6l-0.2-0.2L160.9,56.4z M162.9,52.8c-0.6,0-1,0.5-1,0.9
		c0,0.5,0.5,0.9,1,0.9c0.5,0,0.9-0.4,0.9-0.9C163.8,53.2,163.4,52.8,162.9,52.8L162.9,52.8z M171.3,51.8L171.3,51.8l0.1,0.3l1.4,0.1
		c0.1,0,0.2,0.1,0.2,0.3c0,0.6,0,3.1,0.1,3.7c0,0.3,0,0.7,0.1,1l-0.1,0l-0.3-0.4c-0.5-0.5-1.1-0.9-2.2-0.9c-2.7,0-4.3,2.8-4.3,6
		c0,2,0.9,3.5,2.5,3.5c1.9,0,3.2-1.9,4.1-4.1c0.1-0.2,0.1-0.4,0.2-0.6l0.1,0c0,0.3-0.1,0.8-0.1,1c0,0.6,0,3,0,3.4l0.1,0.2
		c0.2,0,0.6,0,1.2,0c0.5,0,1,0,1.4,0l0.1,0l-0.1-0.2l-1.1-0.2c-0.1,0-0.2-0.1-0.2-0.3c0-0.2,0-4.8,0.1-5.4c0-1,0.2-7.3,0.2-7.4
		l-0.1-0.1L171.3,51.8z M169.5,64.4c-1,0-1.7-1.4-1.7-3.1c0-2.8,0.9-5.1,2.7-5.1c1.2,0,2.1,1.2,2.4,2.1c0,0.2,0.1,0.4,0.1,0.6
		c0,0.1,0,0.3-0.1,0.4C172.2,62.4,170.8,64.4,169.5,64.4L169.5,64.4z"/>
	<path class="st7" d="M338.9,71.7l-0.1-0.2l0.1-0.1c0.9-0.1,3.2-0.3,5-0.3c4.4,0,7,1.9,7,5.7c0,4.4-3.1,6.9-7.3,6.9
		c-0.6,0-1.9,0-2.4,0c-0.8,0-1.6,0-2.1,0l-0.1-0.1l0.1-0.2l0.9-0.2c0.1,0,0.2-0.1,0.2-0.3c0-0.8,0-4.7,0-5.5c0-0.9-0.1-4.7-0.1-5.3
		c0-0.2,0-0.3-0.2-0.3 M343.6,83.3c1.8,0,4.1-1.4,4.1-6.5c0-3.2-1.4-5.4-4-5.4c-0.4,0-0.4,0.1-0.5,0.3c-0.1,1.4-0.3,10.5-0.3,11.1
		C342.9,83.1,343.2,83.3,343.6,83.3L343.6,83.3z M361,78.3c0,0.2-0.2,0.5-0.4,0.6c-0.7,0.2-4.4,0.2-5.3,0.2c0,0.5,0,1.1,0.1,1.4
		c0.3,1.5,1.5,2.5,2.6,2.5c0.5,0,1-0.1,1.4-0.1c0.4-0.1,1-0.3,1.5-0.5c0,0,0.1,0.1,0.1,0.2l-0.1,0.1c-0.5,0.3-1.4,0.8-2.3,1
		c-0.4,0.1-0.9,0.2-1.8,0.2c-2.5,0-4.4-1.2-4.4-4.2c0-2.7,2-5.3,4.8-5.3C359.9,74.3,361,76.6,361,78.3L361,78.3z M356.8,74.7
		c-0.8,0-1.6,1.2-1.6,4c1.1,0.1,2.3,0,2.6-0.1c0.2-0.1,0.3-0.2,0.3-0.6C358.2,76.8,357.9,74.7,356.8,74.7L356.8,74.7z M356.8,73.4
		c0,0-0.3-0.1-0.2-0.3c0.5-0.8,0.8-1.7,1-2c0.1-0.2,0.2-0.2,0.4-0.2c0.2,0,0.6,0.1,0.8,0.1l0,0.1C358.6,71.5,357.5,72.8,356.8,73.4
		L356.8,73.4L356.8,73.4z M365.9,71.2L365.9,71.2c-0.1,0.2,0,0.3,0,0.3l0.8,0.2c0.2,0,0.3,0.2,0.3,0.4c0,0.6,0.2,4.6,0.2,5.5
		c0,1.1,0.1,4.7,0.1,5.3c0,0.2-0.1,0.3-0.2,0.3l-1,0.2l-0.1,0.2l0,0.1c0.3,0,1,0,1.7,0c0.8,0,1.5,0,1.8,0l0.1-0.1l-0.1-0.2l-1.3-0.2
		c-0.1,0-0.2-0.1-0.2-0.3c0-1.3,0.2-5.5,0.3-7.1c0-0.2,0-0.4,0-0.7l0.1,0c0.1,0.1,0.2,0.3,0.3,0.5c1.6,2.1,4.5,6,6.1,8
		c0.2,0.2,0.3,0.2,0.5,0.2c0.2,0,0.7-0.1,0.9-0.2l0.1-0.2c0-0.7,0.1-4.9,0.2-6c0.1-1.5,0.2-4.6,0.3-5.3c0-0.3,0.1-0.4,0.3-0.5
		l0.7-0.2l0.1-0.3l-0.1-0.1h-3.9l0,0.1l0.1,0.3l1.1,0.2c0.2,0,0.3,0.1,0.3,0.4c0.2,1.4,0.2,6.4,0.3,7.9c0,0.3,0,0.6,0,0.9l-0.1,0.1
		c-0.1-0.2-0.2-0.4-0.4-0.6c-1.5-2.2-4.9-7.5-5.9-9l-0.2-0.1H365.9z M383.2,83.8c-2.8,0-4.4-1.7-4.4-4.3c0-2.7,1.7-5.2,5.4-5.2
		c3.2,0,4.5,2,4.5,4.4C388.7,81.4,386.9,83.8,383.2,83.8L383.2,83.8z M383.9,83.4c1.4,0,1.9-1.9,1.9-4.4c0-2.3-0.6-4.3-1.9-4.3
		c-1.3,0-2,1.8-2,4.5C381.8,81.4,382.6,83.4,383.9,83.4L383.9,83.4z M393.7,79.1c0-0.2,0-0.4,0-0.6c0.1-1.1,0.2-3.7,0.2-4
		c0-0.1,0-0.2-0.2-0.2l-3.9,0.6l-0.1,0.1l0.1,0.2l0.9,0.1c0.2,0,0.2,0.1,0.2,0.3c0,0.6,0.1,2.6,0.1,3.5c0,0.8,0.1,3.3,0.1,3.8
		c0,0.2-0.1,0.2-0.2,0.3l-1,0.2l-0.1,0.2l0,0c0.2,0,1.3,0,2.5,0c1.4,0,2.5,0,3.1,0l0-0.1l-0.1-0.2l-1.6-0.2c-0.1,0-0.2-0.1-0.2-0.2
		c0-0.5,0.1-1.8,0.2-2.4c0.5-2.7,1.5-4.8,2.6-4.8c0.2,0,0.4,0.1,0.6,0.3c0.2,0.4,0.6,0.9,0.8,1.4l0.1,0l0.2-0.2l-0.1-2.8l-0.1-0.1
		c-0.1-0.1-0.4-0.2-0.6-0.2c-1.8,0-2.9,2.4-3.3,4.3C393.8,78.7,393.8,78.9,393.7,79.1L393.7,79.1z M415.7,83.1
		c-0.2,0-0.2-0.1-0.2-0.3c0-0.5,0.2-2.7,0.2-4.3c0-2.8-0.9-4.3-2.4-4.3c-2.2,0-3.4,2.2-3.8,3.6c-0.1,0.2-0.1,0.5-0.2,0.6l-0.1,0
		v-0.6c-0.1-2.2-0.9-3.6-2.3-3.6c-2.2,0-3.4,2.3-3.9,3.8c0,0.1-0.1,0.4-0.2,0.6l-0.1,0c0-0.2,0-0.5,0-0.6c0.1-1.1,0.2-3.4,0.2-3.6
		l-0.1-0.1l-3.9,0.5l-0.1,0.1c0,0.1,0.1,0.2,0.1,0.2l0.9,0c0.2,0,0.2,0.1,0.2,0.3c0.1,0.5,0.1,2.7,0.1,3.4c0,0.9,0,3.1,0,4
		c0,0.2-0.1,0.2-0.2,0.3l-0.9,0.2l-0.1,0.2l0.1,0c0.7,0,1.2,0,2.3,0c1.1,0,1.7,0,2.5,0l0.1-0.1l-0.1-0.2l-0.9-0.2
		c-0.1,0-0.2-0.1-0.2-0.2c0-0.8,0.1-2,0.2-2.7c0.4-2,1.2-4.1,2.4-4.1c1.1,0,1.4,1.9,1.4,4c0,0.7,0,2.3,0,2.7c0,0.2-0.1,0.2-0.2,0.3
		l-0.9,0.2l-0.1,0.2l0.1,0.1c0.5,0,1.3,0,2.5,0c1.2,0,1.9,0,2.6,0l0-0.1l-0.1-0.2l-1.1-0.2c-0.2,0-0.2-0.1-0.2-0.3
		c0-0.3,0-1.5,0.2-2.5c0.3-1.9,1.1-4.2,2.4-4.2c1.1,0,1.4,1.9,1.4,3.9c0,0.6,0,2.3-0.1,2.9c0,0.1-0.1,0.2-0.2,0.2l-0.9,0.2l-0.1,0.2
		l0.1,0c0.5,0,1.3,0,2.5,0c1.1,0,1.8,0,2.4,0l0.1-0.1l-0.1-0.2L415.7,83.1z M427.3,74.4L427.3,74.4l0,0.3l0.9,0.2
		c0.2,0,0.2,0.1,0.2,0.4c-0.5,2-1.6,5.5-2.2,7.1c-0.1,0.2-0.1,0.4-0.2,0.6h-0.1c-0.1-0.2-0.1-0.4-0.2-0.6c-0.5-1.6-1.6-5.6-2-7.3
		c0-0.1,0-0.3,0.1-0.3l0.9-0.1l0.1-0.2l0,0h-4l0,0l0.1,0.2l0.6,0.1c0.1,0,0.2,0.2,0.2,0.3c0.6,2,2.3,6.9,3,8.4l0.1,0.1h0.5
		c0.7,0,0.8-0.1,0.9-0.3c0.6-1.2,2.8-6.5,3.4-8.1c0.1-0.3,0.2-0.4,0.3-0.4l0.5-0.1l0.1-0.2l0-0.1H427.3z M434.6,83.8
		c-2.4,0-3.8-1.6-3.8-4.2c0-2.8,1.8-5.3,4.8-5.3c2.6,0,3.9,1.8,3.9,4.3C439.4,81.3,437.6,83.8,434.6,83.8L434.6,83.8z M435,83.4
		c1.7,0,2.6-2,2.6-4.7c0-2.4-0.9-4.1-2.4-4.1c-1.6,0-2.7,2-2.7,4.7C432.5,81.8,433.5,83.4,435,83.4L435,83.4z M444.8,83.8
		c-2.4,0-3.8-1.6-3.8-4.2c0-2.8,1.8-5.3,4.8-5.3c2.6,0,3.9,1.8,3.9,4.3C449.6,81.3,447.8,83.8,444.8,83.8L444.8,83.8z M445.2,83.4
		c1.7,0,2.6-2,2.6-4.7c0-2.4-0.9-4.1-2.4-4.1c-1.6,0-2.7,2-2.7,4.7C442.7,81.8,443.7,83.4,445.2,83.4L445.2,83.4z M453.5,79.5
		c0-0.2,0-0.5,0-0.7c0.1-1.1,0.2-3.9,0.2-4.4c0-0.1,0-0.2-0.2-0.2l-2.8,0.5l-0.1,0.1l0.1,0.2h1c0.2,0,0.2,0.2,0.2,0.3
		c0,0.5,0.1,2.5,0.1,3.5c0,1,0,3.6,0,4c0,0.2-0.1,0.2-0.2,0.2l-0.9,0.2l-0.1,0.2l0,0c0.3,0,1,0,1.9,0c1.1,0,2.1,0,2.5,0l0-0.1
		l-0.1-0.2l-1.6-0.2c-0.1,0-0.2-0.1-0.2-0.2c0-0.3,0.1-1.4,0.2-1.9c0.4-2.4,1.6-5.7,3.1-5.7c0.3,0,0.5,0.1,0.6,0.3
		c0.2,0.4,0.4,0.9,0.6,1.3l0,0l0.2-0.1l-0.1-2.3l-0.1-0.1c-0.1-0.1-0.3-0.2-0.6-0.2c-2,0-3.1,2.9-3.6,4.6c0,0.2-0.1,0.4-0.1,0.7
		H453.5z M326.4,103.1c0.1-0.3,0.2-0.5,0.2-0.7c0.6-1.5,2.1-4,4.3-4c1.6,0,2.4,1.6,2.4,3.4c0,3.1-1.5,6-4.3,6
		c-1.3,0-2.1-0.6-2.9-1.4c-0.1-0.1-0.1-0.1-0.2,0l-0.7,1.2l-0.1,0l-0.3-0.1c0-1.8,0-5.1,0-7.2c0-1.4,0-5.1,0-5.5
		c0-0.2-0.1-0.3-0.2-0.3l-1.1,0l-0.1-0.2l0.1-0.1l3-0.3c0.2,0,0.2,0,0.2,0.2c0,0.2-0.2,6-0.2,7.7
		C326.3,102.4,326.3,102.8,326.4,103.1L326.4,103.1z M328.9,107.6c1.7,0,2.6-2.1,2.6-5c0-1.6-0.5-3.1-1.6-3.1c-1.6,0-3.1,2.8-3.6,5
		c0,0.1-0.1,0.3-0.1,0.4l0.1,0.4C326.6,106.5,327.8,107.6,328.9,107.6L328.9,107.6z M342.4,102.4c0,0.3-0.2,0.5-0.5,0.6
		c-0.8,0.2-4.5,0.2-5.4,0.2c0,0.4,0,0.9,0,1.1c0.1,1.8,1.3,3,2.7,3c0.5,0,1.1-0.1,1.3-0.2c0.5-0.1,1.2-0.5,1.6-0.7
		c0,0,0.1,0.1,0.1,0.2l-0.1,0.1c-0.4,0.3-1.4,0.8-2.2,1c-0.3,0.1-0.8,0.2-1.5,0.2c-2.2,0-3.8-1.2-3.8-4c0-2.6,1.8-5.4,4.2-5.4
		C341.4,98.5,342.4,100.7,342.4,102.4L342.4,102.4z M338.7,98.8c-1.2,0-2.1,1.5-2.2,4c1.1,0.1,3.1,0,3.7-0.2
		c0.2-0.1,0.4-0.2,0.4-0.5C340.6,101,340.1,98.8,338.7,98.8L338.7,98.8z M350.4,99.2c0,0,0.1-0.2,0.1-0.3l0,0l-3.8,0
		c0.1-0.8,0.2-2.2,0.3-2.8l-0.1-0.1c-0.1,0-0.6,0.3-0.9,0.4c-0.3,0.1-0.4,0.3-0.5,0.5c-0.1,0.5-0.3,1.4-0.3,1.9h-1.5
		c-0.2,0-0.3,0.1-0.4,0.3l-0.1,0.3l0.1,0.1l1.8,0c-0.2,1.4-0.3,3.4-0.3,4.8c0,2.9,1.1,3.8,3,3.8c0.4,0,0.7,0,0.9-0.1
		c0.7-0.2,1.5-0.5,1.9-0.7l0.1-0.1l-0.1-0.2c-0.5,0.2-1,0.4-1.3,0.4c-0.2,0-0.5,0.1-0.7,0.1c-1.4,0-2-1-2-3.7c0-1.4,0.1-2.8,0.2-4.3
		L350.4,99.2z M354,103.7c0-0.2,0-0.5,0-0.7c0.1-1.1,0.2-3.9,0.2-4.4c0-0.1,0-0.2-0.2-0.2l-2.8,0.5l-0.1,0.1l0.1,0.2h1
		c0.2,0,0.2,0.2,0.2,0.3c0,0.5,0.1,2.5,0.1,3.5c0,1,0,3.6,0,4c0,0.2-0.1,0.2-0.2,0.2l-0.9,0.2l-0.1,0.2l0,0c0.3,0,1,0,1.9,0
		c1.1,0,2.1,0,2.5,0l0-0.1l-0.1-0.2l-1.6-0.2c-0.1,0-0.2-0.1-0.2-0.2c0-0.3,0.1-1.4,0.2-1.9c0.4-2.4,1.6-5.7,3.1-5.7
		c0.3,0,0.5,0.1,0.6,0.3c0.2,0.4,0.4,0.9,0.6,1.3l0,0l0.2-0.1l-0.1-2.3l-0.1-0.1c-0.1-0.1-0.3-0.2-0.6-0.2c-2,0-3.1,2.9-3.6,4.6
		c0,0.2-0.1,0.4-0.1,0.7H354z M363.1,108c-2.4,0-3.8-1.6-3.8-4.2c0-2.8,1.8-5.3,4.8-5.3c2.6,0,3.9,1.8,3.9,4.3
		C368,105.5,366.2,108,363.1,108L363.1,108z M363.6,107.6c1.7,0,2.6-2,2.6-4.7c0-2.4-0.9-4.1-2.4-4.1c-1.6,0-2.7,2-2.7,4.7
		C361.1,106,362.1,107.6,363.6,107.6L363.6,107.6z M376.2,99.2c0.1,0,0.2,0.1,0.2,0.3c0,0.4,0,1.4-0.1,1.8c-0.5,2.8-1.8,5.7-3.2,5.7
		c-1.1,0-1.5-1.4-1.5-4.3c0-1.1,0.1-3.4,0.2-4l-0.1-0.2l-2.6,0.5l-0.1,0.1l0.2,0.2h0.9c0.2,0,0.3,0.1,0.2,0.3
		c-0.1,0.8-0.3,2.9-0.3,4c0,2.7,0.7,4.4,2.2,4.4c1.8,0,3.1-1.9,3.9-4.2c0.1-0.2,0.1-0.4,0.2-0.6h0.1c0,0.3,0,0.6,0,0.8
		c0,0.9-0.1,3.3-0.1,3.7c0,0.1,0,0.2,0.1,0.2c0.3,0,0.7,0,1.2,0c0.5,0,1,0,1.5,0l0.1,0l-0.1-0.2l-0.9-0.2c-0.2,0-0.2-0.1-0.2-0.3
		c0-0.4-0.1-3-0.1-4c0-1,0-3.7,0-4.5l-0.1-0.1l-2.6,0.5l-0.1,0.1l0.1,0.2L376.2,99.2z M384,107.1c-0.1-0.2-0.1-0.4-0.2-0.6
		c-0.5-1.9-1.1-5.4-1.5-7.1c0-0.2,0-0.3,0.2-0.3l1-0.1l0.1-0.2l0-0.1h-4l-0.1,0.1l0.1,0.2l0.6,0.1l0.2,0.3c0.6,2,1.7,6.7,2.4,8.5
		l0.1,0.1h0.4c0.8,0,0.9-0.1,1-0.3c0.6-1.3,1.8-4.2,2.3-5.5c0.1-0.2,0.2-0.6,0.3-0.9h0.1c0.1,0.3,0.2,0.7,0.3,0.9
		c0.4,1.4,1.3,4.2,1.9,5.7l0.1,0.1h0.4c0.7,0,0.9-0.1,0.9-0.2c0.7-1.4,2.6-6.8,3.1-8.1c0.1-0.2,0.2-0.4,0.4-0.4l0.4-0.1l0.1-0.2
		l0-0.1h-3.1l-0.1,0l0.1,0.2l0.9,0.1c0.2,0,0.3,0.1,0.2,0.4c-0.4,1.8-1.3,5.2-1.9,7c-0.1,0.2-0.1,0.4-0.2,0.6h-0.1
		c-0.1-0.2-0.1-0.5-0.2-0.6c-0.6-1.8-1.6-5.6-2.2-7.4L388,99c-0.1,0-0.3,0-0.4,0c-0.6,0.1-0.7,0.1-0.8,0.4c-0.8,2.3-1.8,5.4-2.5,7
		C384.2,106.6,384.1,106.9,384,107.1L384,107.1z M397.4,103.1c0.1-0.3,0.2-0.5,0.2-0.7c0.6-1.5,2.1-4,4.3-4c1.6,0,2.4,1.6,2.4,3.4
		c0,3.1-1.5,6-4.3,6c-1.3,0-2.1-0.6-2.9-1.4c-0.1-0.1-0.1-0.1-0.2,0l-0.7,1.2l-0.1,0l-0.3-0.1c0-1.8,0-5.1,0-7.2c0-1.4,0-5.1,0-5.5
		c0-0.2-0.1-0.3-0.2-0.3l-1.1,0l-0.1-0.2l0.1-0.1l3-0.3c0.2,0,0.2,0,0.2,0.2c0,0.2-0.2,6-0.2,7.7
		C397.3,102.4,397.3,102.8,397.4,103.1L397.4,103.1z M399.9,107.6c1.7,0,2.6-2.1,2.6-5c0-1.6-0.5-3.1-1.6-3.1c-1.6,0-3.1,2.8-3.6,5
		c0,0.1-0.1,0.3-0.1,0.4l0.1,0.4C397.6,106.5,398.7,107.6,399.9,107.6L399.9,107.6z M411.6,102.8c0-0.4-0.1-1.1-0.2-1.5
		c-0.2-1.3-0.7-2.1-1.8-2.1c-1.1,0-2.2,0.7-3,1.6l-0.1,0l-0.1-0.3c1-1.2,2.3-2.1,4.2-2.1c2.2,0,2.6,2,2.6,4c0,0.5,0,1.7-0.1,2.3
		c0,0.7-0.1,1.9-0.1,2.3c0,0.2,0.1,0.2,0.2,0.3l1,0.2l0.1,0.2l-0.1,0c-0.2,0-0.8,0-1.3,0c-0.5,0-0.9,0-1.1,0l-0.1-0.1
		c0-0.3,0-1.4,0-1.9c0-0.2,0-0.5,0-0.6l-0.1,0c-0.1,0.2-0.2,0.4-0.3,0.6c-0.6,1-1.8,2.3-3.5,2.3c-1.2,0-2.3-0.9-2.3-2.6
		c0-1.6,1-3.6,3.5-3.6c1,0,1.7,0.4,2.1,0.7C411.3,102.6,411.4,102.7,411.6,102.8L411.6,102.8z M408.8,107.2c1.1,0,2.2-1.2,2.7-2.8
		c0.1-0.1,0.1-0.3,0.1-0.5c0-0.1-0.1-0.3-0.1-0.5c-0.3-0.5-1-1.3-2.2-1.3c-1.3,0-2,1.3-2,2.9C407.3,106.4,407.8,107.2,408.8,107.2
		L408.8,107.2z M421.2,102.8c0-0.4-0.1-1.1-0.2-1.5c-0.2-1.3-0.7-2.1-1.8-2.1c-1.1,0-2.2,0.7-3,1.6l-0.1,0l-0.1-0.3
		c1-1.2,2.3-2.1,4.2-2.1c2.2,0,2.6,2,2.6,4c0,0.5,0,1.7-0.1,2.3c0,0.7-0.1,1.9-0.1,2.3c0,0.2,0.1,0.2,0.2,0.3l1,0.2l0.1,0.2l-0.1,0
		c-0.2,0-0.8,0-1.3,0c-0.5,0-0.9,0-1.1,0l-0.1-0.1c0-0.3,0-1.4,0-1.9c0-0.2,0-0.5,0-0.6l-0.1,0c-0.1,0.2-0.2,0.4-0.3,0.6
		c-0.6,1-1.8,2.3-3.5,2.3c-1.2,0-2.3-0.9-2.3-2.6c0-1.6,1-3.6,3.5-3.6c1,0,1.7,0.4,2.1,0.7C420.9,102.6,421.1,102.7,421.2,102.8
		L421.2,102.8z M418.4,107.2c1.1,0,2.2-1.2,2.7-2.8c0.1-0.1,0.1-0.3,0.1-0.5c0-0.1-0.1-0.3-0.1-0.5c-0.3-0.5-1-1.3-2.2-1.3
		c-1.3,0-2,1.3-2,2.9C416.9,106.4,417.5,107.2,418.4,107.2L418.4,107.2z M427.4,103.7c0-0.2,0-0.5,0-0.7c0.1-1.1,0.2-3.9,0.2-4.4
		c0-0.1,0-0.2-0.2-0.2l-2.8,0.5l-0.1,0.1l0.1,0.2h1c0.2,0,0.2,0.2,0.2,0.3c0,0.5,0.1,2.5,0.1,3.5c0,1,0,3.6,0,4
		c0,0.2-0.1,0.2-0.2,0.2l-0.9,0.2l-0.1,0.2l0,0c0.3,0,1,0,1.9,0c1.1,0,2.1,0,2.5,0l0-0.1l-0.1-0.2l-1.6-0.2c-0.1,0-0.2-0.1-0.2-0.2
		c0-0.3,0.1-1.4,0.2-1.9c0.4-2.4,1.6-5.7,3.1-5.7c0.3,0,0.5,0.1,0.6,0.3c0.2,0.4,0.4,0.9,0.6,1.3l0,0l0.2-0.1l-0.1-2.3l-0.1-0.1
		c-0.1-0.1-0.3-0.2-0.6-0.2c-2,0-3.1,2.9-3.6,4.6c0,0.2-0.1,0.4-0.1,0.7H427.4z M432.4,94.4L432.4,94.4l0.1,0.3l1.2,0
		c0.1,0,0.2,0.1,0.2,0.3c0,0.6,0,5.4,0,6.1c0,0.8,0,5.5,0,6c0,0.2,0,0.2-0.2,0.3l-0.9,0.2l-0.1,0.2l0.1,0.1c0.3,0,0.9,0,1.8,0
		c0.9,0,1.8,0,2.1,0l0.1-0.1l-0.1-0.2l-1.1-0.2c-0.1,0-0.2-0.1-0.2-0.2c0-0.4,0.1-1.5,0.2-2c0.5-2.1,2-5.4,3.5-5.4
		c1.1,0,1.5,1.8,1.5,4.3c0,0.9,0,2.7-0.1,3.1c0,0.2-0.1,0.3-0.2,0.3l-1,0.2l-0.1,0.2l0.1,0c0.4,0,1,0,2,0c0.9,0,1.6,0,1.9,0l0.1,0
		l-0.1-0.2l-1-0.2c-0.2,0-0.2-0.1-0.2-0.4c0-0.5,0.2-2.5,0.2-3.9c0-2.3-0.4-4.6-2-4.6c-2.2,0-3.8,3.3-4.3,4.7
		c-0.1,0.2-0.2,0.5-0.2,0.8h-0.1c0-0.3,0-0.6,0-0.9c0.1-1.8,0.3-8.7,0.3-8.8c0-0.1,0-0.2-0.2-0.2L432.4,94.4z M451.7,102.4
		c0,0.3-0.2,0.5-0.5,0.6c-0.8,0.2-4.5,0.2-5.4,0.2c0,0.4,0,0.9,0,1.1c0.1,1.8,1.3,3,2.7,3c0.5,0,1.1-0.1,1.3-0.2
		c0.5-0.1,1.2-0.5,1.6-0.7c0,0,0.1,0.1,0.1,0.2l-0.1,0.1c-0.4,0.3-1.4,0.8-2.2,1c-0.3,0.1-0.8,0.2-1.5,0.2c-2.2,0-3.8-1.2-3.8-4
		c0-2.6,1.8-5.4,4.2-5.4C450.7,98.5,451.7,100.7,451.7,102.4L451.7,102.4z M448.1,98.8c-1.2,0-2.1,1.5-2.2,4c1.1,0.1,3.1,0,3.7-0.2
		c0.2-0.1,0.4-0.2,0.4-0.5C450,101,449.5,98.8,448.1,98.8L448.1,98.8z M455.7,98.5l0.2,0.2c0,0.8-0.1,3.6-0.2,4.6
		c0,0.9-0.1,3.4-0.1,3.9c0,0.2,0.1,0.2,0.2,0.3l1,0.2l0.1,0.2l-0.1,0.1c-0.4,0-1.1,0-2,0c-0.9,0-1.6,0-2,0l0,0l0.1-0.2l1-0.2
		c0.1,0,0.2-0.1,0.3-0.2c0-0.4,0-2.9-0.1-4c0-0.9-0.1-3.1-0.1-3.6c0-0.2,0-0.3-0.2-0.3h-1l-0.1-0.2l0.1-0.1L455.7,98.5z M454.8,95.3
		c0.6,0,0.9,0.4,0.9,0.9c0,0.5-0.4,0.9-0.9,0.9c-0.5,0-1-0.3-1-0.9C453.8,95.8,454.2,95.3,454.8,95.3L454.8,95.3z M466.5,94.1
		c0.1,0,0.1,0,0.1,0.1c0,0.1-0.2,6.4-0.2,7.4c0,0.6-0.1,5.2-0.1,5.4c0,0.2,0.1,0.2,0.2,0.3l1.1,0.2l0.1,0.2l-0.1,0
		c-0.4,0-0.9,0-1.4,0c-0.6,0-1,0-1.2,0l-0.1-0.2c0-0.4,0-2.8,0-3.4c0-0.3,0-0.8,0.1-1l-0.1,0c-0.1,0.2-0.1,0.4-0.2,0.6
		c-0.9,2.3-2.3,4.1-4.1,4.1c-1.6,0-2.5-1.4-2.5-3.5c0-3.2,1.6-6,4.3-6c1,0,1.7,0.4,2.2,0.9l0.3,0.4l0.1,0c0-0.3-0.1-0.7-0.1-1
		c0-0.6,0-3.1-0.1-3.7c0-0.1-0.1-0.3-0.2-0.3l-1.4-0.1l-0.1-0.2l0,0L466.5,94.1z M461.5,107c1.3,0,2.7-2.1,3.4-5
		c0-0.2,0.1-0.3,0.1-0.4c0-0.2,0-0.4-0.1-0.6c-0.3-0.9-1.2-2.1-2.4-2.1c-1.8,0-2.7,2.2-2.7,5.1C459.8,105.6,460.4,107,461.5,107
		L461.5,107z"/>
</g>
</svg>
