<svg xmlns="http://www.w3.org/2000/svg" xmlns:xlink="http://www.w3.org/1999/xlink" viewBox="19 100 526 83" version="1.0"><defs><g/><clipPath id="4f0e14eb87"><rect x="0" width="526" y="0" height="83"/></clipPath></defs><g transform="matrix(1, 0, 0, 1, 19, 100)"><g clip-path="url(#4f0e14eb87)"><g fill="#315395" fill-opacity="1"><g transform="translate(4.771314, 63.547979)"><g><path d="M 21.359375 -39.546875 L 18.84375 -39.546875 C 18.414062 -39.546875 18.007812 -39.503906 17.625 -39.421875 C 17.25 -39.335938 16.925781 -39.15625 16.65625 -38.875 C 16.382812 -38.601562 16.164062 -38.210938 16 -37.703125 C 15.832031 -37.203125 15.75 -36.523438 15.75 -35.671875 L 15.75 0.109375 C 15.75 1.921875 15.539062 3.53125 15.125 4.9375 C 14.71875 6.34375 14.15625 7.570312 13.4375 8.625 C 12.71875 9.6875 11.851562 10.582031 10.84375 11.3125 C 9.84375 12.050781 8.753906 12.644531 7.578125 13.09375 C 6.398438 13.539062 5.15625 13.863281 3.84375 14.0625 C 2.53125 14.269531 1.191406 14.375 -0.171875 14.375 L -2.34375 14.375 L -2.34375 10.890625 L -1.25 10.890625 C -0.300781 10.890625 0.625 10.707031 1.53125 10.34375 C 2.4375 9.988281 3.238281 9.390625 3.9375 8.546875 C 4.644531 7.710938 5.210938 6.609375 5.640625 5.234375 C 6.066406 3.867188 6.28125 2.179688 6.28125 0.171875 L 6.28125 -35.90625 C 6.28125 -36.695312 6.203125 -37.332031 6.046875 -37.8125 C 5.890625 -38.289062 5.671875 -38.65625 5.390625 -38.90625 C 5.109375 -39.164062 4.78125 -39.335938 4.40625 -39.421875 C 4.039062 -39.503906 3.65625 -39.546875 3.25 -39.546875 L 0.734375 -39.546875 L 0.734375 -42.703125 L 21.359375 -42.703125 Z M 21.359375 -39.546875 "/></g></g></g><g fill="#315395" fill-opacity="1"><g transform="translate(22.844196, 63.547979)"><g><path d="M 13.03125 -14.046875 L 11.3125 -8.90625 C 11.15625 -8.414062 10.992188 -7.84375 10.828125 -7.1875 C 10.660156 -6.539062 10.578125 -5.972656 10.578125 -5.484375 C 10.578125 -5.097656 10.65625 -4.757812 10.8125 -4.46875 C 10.96875 -4.175781 11.171875 -3.9375 11.421875 -3.75 C 11.671875 -3.5625 11.957031 -3.421875 12.28125 -3.328125 C 12.601562 -3.234375 12.941406 -3.1875 13.296875 -3.1875 L 15.796875 -3.1875 L 15.796875 0 L 0.234375 0 L 0.234375 -3.1875 L 0.96875 -3.1875 C 1.488281 -3.1875 1.96875 -3.242188 2.40625 -3.359375 C 2.84375 -3.472656 3.25 -3.691406 3.625 -4.015625 C 4.007812 -4.335938 4.375 -4.78125 4.71875 -5.34375 C 5.0625 -5.90625 5.40625 -6.632812 5.75 -7.53125 L 18.71875 -42.703125 L 26.9375 -42.703125 L 39.4375 -7.484375 C 39.726562 -6.640625 40.035156 -5.941406 40.359375 -5.390625 C 40.679688 -4.835938 41.03125 -4.398438 41.40625 -4.078125 C 41.789062 -3.753906 42.195312 -3.523438 42.625 -3.390625 C 43.050781 -3.253906 43.5 -3.1875 43.96875 -3.1875 L 45.046875 -3.1875 L 45.046875 0 L 25.296875 0 L 25.296875 -3.1875 L 27.640625 -3.1875 C 27.929688 -3.1875 28.234375 -3.226562 28.546875 -3.3125 C 28.859375 -3.40625 29.132812 -3.539062 29.375 -3.71875 C 29.613281 -3.90625 29.8125 -4.144531 29.96875 -4.4375 C 30.125 -4.726562 30.203125 -5.078125 30.203125 -5.484375 C 30.203125 -5.972656 30.144531 -6.441406 30.03125 -6.890625 C 29.914062 -7.335938 29.800781 -7.726562 29.6875 -8.0625 L 27.578125 -14.046875 Z M 23.21875 -27.515625 C 23.007812 -28.203125 22.789062 -28.921875 22.5625 -29.671875 C 22.34375 -30.421875 22.117188 -31.179688 21.890625 -31.953125 C 21.671875 -32.734375 21.457031 -33.507812 21.25 -34.28125 C 21.050781 -35.050781 20.875 -35.785156 20.71875 -36.484375 C 20.539062 -35.878906 20.332031 -35.21875 20.09375 -34.5 C 19.863281 -33.78125 19.613281 -33.039062 19.34375 -32.28125 C 19.082031 -31.519531 18.820312 -30.757812 18.5625 -30 C 18.300781 -29.238281 18.050781 -28.507812 17.8125 -27.8125 L 14.28125 -17.703125 L 26.375 -17.703125 Z M 23.21875 -27.515625 "/></g></g></g><g fill="#315395" fill-opacity="1"><g transform="translate(63.931233, 63.547979)"><g><path d="M 25.421875 -4.171875 C 26.878906 -4.171875 28.175781 -4.34375 29.3125 -4.6875 C 30.457031 -5.03125 31.476562 -5.472656 32.375 -6.015625 C 33.269531 -6.554688 34.050781 -7.164062 34.71875 -7.84375 C 35.394531 -8.53125 35.984375 -9.207031 36.484375 -9.875 C 36.796875 -9.632812 37.046875 -9.269531 37.234375 -8.78125 C 37.421875 -8.300781 37.515625 -7.804688 37.515625 -7.296875 C 37.515625 -6.460938 37.289062 -5.582031 36.84375 -4.65625 C 36.394531 -3.726562 35.644531 -2.875 34.59375 -2.09375 C 33.539062 -1.320312 32.144531 -0.679688 30.40625 -0.171875 C 28.675781 0.328125 26.535156 0.578125 23.984375 0.578125 C 20.515625 0.578125 17.484375 0.0507812 14.890625 -1 C 12.304688 -2.050781 10.15625 -3.539062 8.4375 -5.46875 C 6.726562 -7.394531 5.441406 -9.707031 4.578125 -12.40625 C 3.722656 -15.113281 3.296875 -18.113281 3.296875 -21.40625 C 3.296875 -24.644531 3.734375 -27.609375 4.609375 -30.296875 C 5.492188 -32.984375 6.796875 -35.289062 8.515625 -37.21875 C 10.234375 -39.144531 12.382812 -40.644531 14.96875 -41.71875 C 17.550781 -42.789062 20.535156 -43.328125 23.921875 -43.328125 C 26.222656 -43.328125 28.222656 -43.144531 29.921875 -42.78125 C 31.628906 -42.414062 33.046875 -41.921875 34.171875 -41.296875 C 35.304688 -40.679688 36.15625 -39.945312 36.71875 -39.09375 C 37.28125 -38.25 37.5625 -37.34375 37.5625 -36.375 C 37.5625 -35.632812 37.398438 -34.945312 37.078125 -34.3125 C 36.765625 -33.675781 36.289062 -33.125 35.65625 -32.65625 C 35.019531 -32.1875 34.234375 -31.820312 33.296875 -31.5625 C 32.367188 -31.300781 31.300781 -31.171875 30.09375 -31.171875 C 30.09375 -32.160156 29.984375 -33.144531 29.765625 -34.125 C 29.554688 -35.113281 29.191406 -36.003906 28.671875 -36.796875 C 28.148438 -37.597656 27.472656 -38.25 26.640625 -38.75 C 25.804688 -39.25 24.765625 -39.5 23.515625 -39.5 C 21.628906 -39.5 20.03125 -39.097656 18.71875 -38.296875 C 17.414062 -37.492188 16.367188 -36.320312 15.578125 -34.78125 C 14.796875 -33.25 14.226562 -31.359375 13.875 -29.109375 C 13.519531 -26.859375 13.34375 -24.289062 13.34375 -21.40625 C 13.34375 -18.53125 13.554688 -16.007812 13.984375 -13.84375 C 14.421875 -11.6875 15.113281 -9.890625 16.0625 -8.453125 C 17.019531 -7.023438 18.257812 -5.953125 19.78125 -5.234375 C 21.3125 -4.523438 23.191406 -4.171875 25.421875 -4.171875 Z M 25.421875 -4.171875 "/></g></g></g><g fill="#315395" fill-opacity="1"><g transform="translate(99.936464, 63.547979)"><g><path d="M 25.96875 -31.84375 C 26.613281 -32.519531 27.15625 -33.132812 27.59375 -33.6875 C 28.03125 -34.25 28.378906 -34.769531 28.640625 -35.25 C 28.898438 -35.726562 29.085938 -36.179688 29.203125 -36.609375 C 29.328125 -37.035156 29.390625 -37.453125 29.390625 -37.859375 C 29.390625 -38.523438 29.132812 -38.984375 28.625 -39.234375 C 28.125 -39.484375 27.257812 -39.609375 26.03125 -39.609375 L 26.03125 -42.703125 L 42.234375 -42.703125 L 42.234375 -39.609375 C 41.421875 -39.609375 40.648438 -39.484375 39.921875 -39.234375 C 39.191406 -38.984375 38.472656 -38.625 37.765625 -38.15625 C 37.066406 -37.6875 36.375 -37.128906 35.6875 -36.484375 C 35.007812 -35.835938 34.320312 -35.128906 33.625 -34.359375 L 25.734375 -25.671875 L 36.859375 -8 C 37.453125 -7.070312 38.015625 -6.300781 38.546875 -5.6875 C 39.078125 -5.070312 39.613281 -4.578125 40.15625 -4.203125 C 40.707031 -3.835938 41.265625 -3.578125 41.828125 -3.421875 C 42.398438 -3.265625 43.015625 -3.1875 43.671875 -3.1875 L 43.90625 -3.1875 L 43.90625 0 L 40.6875 0 C 39.175781 0 37.84375 -0.046875 36.6875 -0.140625 C 35.539062 -0.242188 34.535156 -0.390625 33.671875 -0.578125 C 32.804688 -0.773438 32.0625 -1.023438 31.4375 -1.328125 C 30.8125 -1.628906 30.265625 -1.984375 29.796875 -2.390625 C 29.328125 -2.804688 28.898438 -3.269531 28.515625 -3.78125 C 28.140625 -4.300781 27.769531 -4.867188 27.40625 -5.484375 L 19.34375 -19.25 L 16.6875 -17.171875 L 16.6875 -7.0625 C 16.6875 -6.207031 16.765625 -5.523438 16.921875 -5.015625 C 17.085938 -4.515625 17.304688 -4.128906 17.578125 -3.859375 C 17.859375 -3.585938 18.191406 -3.40625 18.578125 -3.3125 C 18.960938 -3.226562 19.375 -3.1875 19.8125 -3.1875 L 22.3125 -3.1875 L 22.3125 0 L 1.671875 0 L 1.671875 -3.1875 L 4.171875 -3.1875 C 4.597656 -3.1875 5 -3.222656 5.375 -3.296875 C 5.75 -3.378906 6.078125 -3.539062 6.359375 -3.78125 C 6.640625 -4.019531 6.859375 -4.378906 7.015625 -4.859375 C 7.171875 -5.335938 7.25 -5.96875 7.25 -6.75 L 7.25 -35.90625 C 7.25 -36.695312 7.171875 -37.332031 7.015625 -37.8125 C 6.859375 -38.289062 6.640625 -38.65625 6.359375 -38.90625 C 6.078125 -39.164062 5.75 -39.335938 5.375 -39.421875 C 5 -39.503906 4.597656 -39.546875 4.171875 -39.546875 L 1.671875 -39.546875 L 1.671875 -42.703125 L 22.3125 -42.703125 L 22.3125 -39.546875 L 19.8125 -39.546875 C 19.375 -39.546875 18.960938 -39.503906 18.578125 -39.421875 C 18.191406 -39.335938 17.859375 -39.15625 17.578125 -38.875 C 17.304688 -38.601562 17.085938 -38.210938 16.921875 -37.703125 C 16.765625 -37.203125 16.6875 -36.523438 16.6875 -35.671875 L 16.6875 -21.703125 Z M 25.96875 -31.84375 "/></g></g></g><g fill="#315395" fill-opacity="1"><g transform="translate(139.884476, 63.547979)"><g><path d="M 15.796875 0.578125 C 13.109375 0.578125 10.867188 0.328125 9.078125 -0.171875 C 7.285156 -0.679688 5.847656 -1.332031 4.765625 -2.125 C 3.691406 -2.925781 2.925781 -3.820312 2.46875 -4.8125 C 2.007812 -5.8125 1.78125 -6.796875 1.78125 -7.765625 C 1.78125 -8.796875 1.96875 -9.660156 2.34375 -10.359375 C 2.726562 -11.066406 3.234375 -11.644531 3.859375 -12.09375 C 4.492188 -12.539062 5.21875 -12.859375 6.03125 -13.046875 C 6.84375 -13.242188 7.6875 -13.34375 8.5625 -13.34375 C 8.5625 -11.632812 8.765625 -10.128906 9.171875 -8.828125 C 9.578125 -7.535156 10.140625 -6.457031 10.859375 -5.59375 C 11.585938 -4.726562 12.453125 -4.078125 13.453125 -3.640625 C 14.453125 -3.203125 15.546875 -2.984375 16.734375 -2.984375 C 17.898438 -2.984375 18.941406 -3.144531 19.859375 -3.46875 C 20.773438 -3.800781 21.554688 -4.257812 22.203125 -4.84375 C 22.847656 -5.425781 23.332031 -6.113281 23.65625 -6.90625 C 23.988281 -7.695312 24.15625 -8.550781 24.15625 -9.46875 C 24.15625 -10.476562 23.953125 -11.375 23.546875 -12.15625 C 23.140625 -12.945312 22.519531 -13.675781 21.6875 -14.34375 C 20.863281 -15.019531 19.820312 -15.664062 18.5625 -16.28125 C 17.3125 -16.894531 15.847656 -17.554688 14.171875 -18.265625 C 12.085938 -19.117188 10.328125 -20 8.890625 -20.90625 C 7.460938 -21.8125 6.3125 -22.789062 5.4375 -23.84375 C 4.5625 -24.894531 3.929688 -26.03125 3.546875 -27.25 C 3.171875 -28.476562 2.984375 -29.820312 2.984375 -31.28125 C 2.984375 -33.113281 3.351562 -34.769531 4.09375 -36.25 C 4.832031 -37.726562 5.851562 -38.992188 7.15625 -40.046875 C 8.457031 -41.097656 10.003906 -41.90625 11.796875 -42.46875 C 13.585938 -43.039062 15.535156 -43.328125 17.640625 -43.328125 C 19.847656 -43.328125 21.75 -43.144531 23.34375 -42.78125 C 24.9375 -42.414062 26.253906 -41.921875 27.296875 -41.296875 C 28.335938 -40.679688 29.109375 -39.945312 29.609375 -39.09375 C 30.117188 -38.25 30.375 -37.34375 30.375 -36.375 C 30.375 -35.664062 30.222656 -35.007812 29.921875 -34.40625 C 29.617188 -33.800781 29.160156 -33.273438 28.546875 -32.828125 C 27.941406 -32.378906 27.175781 -32.03125 26.25 -31.78125 C 25.320312 -31.53125 24.242188 -31.40625 23.015625 -31.40625 C 23.015625 -32.238281 22.898438 -33.132812 22.671875 -34.09375 C 22.453125 -35.0625 22.085938 -35.957031 21.578125 -36.78125 C 21.078125 -37.613281 20.421875 -38.300781 19.609375 -38.84375 C 18.804688 -39.394531 17.832031 -39.671875 16.6875 -39.671875 C 15.882812 -39.671875 15.125 -39.550781 14.40625 -39.3125 C 13.6875 -39.082031 13.054688 -38.734375 12.515625 -38.265625 C 11.984375 -37.796875 11.5625 -37.21875 11.25 -36.53125 C 10.9375 -35.84375 10.78125 -35.050781 10.78125 -34.15625 C 10.78125 -33.3125 10.914062 -32.519531 11.1875 -31.78125 C 11.457031 -31.039062 11.957031 -30.316406 12.6875 -29.609375 C 13.414062 -28.898438 14.414062 -28.1875 15.6875 -27.46875 C 16.96875 -26.757812 18.625 -26 20.65625 -25.1875 C 22.695312 -24.34375 24.4375 -23.484375 25.875 -22.609375 C 27.320312 -21.734375 28.503906 -20.789062 29.421875 -19.78125 C 30.347656 -18.78125 31.019531 -17.679688 31.4375 -16.484375 C 31.863281 -15.285156 32.078125 -13.957031 32.078125 -12.5 C 32.078125 -10.570312 31.695312 -8.804688 30.9375 -7.203125 C 30.175781 -5.597656 29.082031 -4.21875 27.65625 -3.0625 C 26.238281 -1.914062 24.53125 -1.019531 22.53125 -0.375 C 20.539062 0.257812 18.296875 0.578125 15.796875 0.578125 Z M 15.796875 0.578125 "/></g></g></g><g fill="#315395" fill-opacity="1"><g transform="translate(170.983135, 63.547979)"><g><path d="M 43.796875 -21.40625 C 43.796875 -18.113281 43.347656 -15.113281 42.453125 -12.40625 C 41.566406 -9.707031 40.265625 -7.394531 38.546875 -5.46875 C 36.828125 -3.539062 34.710938 -2.050781 32.203125 -1 C 29.703125 0.0507812 26.828125 0.578125 23.578125 0.578125 C 20.171875 0.578125 17.195312 0.0507812 14.65625 -1 C 12.113281 -2.050781 10.003906 -3.539062 8.328125 -5.46875 C 6.648438 -7.394531 5.390625 -9.710938 4.546875 -12.421875 C 3.710938 -15.140625 3.296875 -18.15625 3.296875 -21.46875 C 3.296875 -24.78125 3.710938 -27.785156 4.546875 -30.484375 C 5.390625 -33.179688 6.65625 -35.484375 8.34375 -37.390625 C 10.03125 -39.296875 12.140625 -40.769531 14.671875 -41.8125 C 17.210938 -42.851562 20.203125 -43.375 23.640625 -43.375 C 26.867188 -43.375 29.734375 -42.851562 32.234375 -41.8125 C 34.734375 -40.769531 36.835938 -39.289062 38.546875 -37.375 C 40.265625 -35.457031 41.566406 -33.148438 42.453125 -30.453125 C 43.347656 -27.753906 43.796875 -24.738281 43.796875 -21.40625 Z M 13.34375 -21.40625 C 13.34375 -18.550781 13.523438 -16.003906 13.890625 -13.765625 C 14.265625 -11.523438 14.863281 -9.628906 15.6875 -8.078125 C 16.507812 -6.523438 17.566406 -5.335938 18.859375 -4.515625 C 20.148438 -3.703125 21.722656 -3.296875 23.578125 -3.296875 C 25.441406 -3.296875 27.019531 -3.703125 28.3125 -4.515625 C 29.613281 -5.335938 30.660156 -6.523438 31.453125 -8.078125 C 32.253906 -9.628906 32.832031 -11.523438 33.1875 -13.765625 C 33.550781 -16.003906 33.734375 -18.550781 33.734375 -21.40625 C 33.734375 -24.269531 33.550781 -26.820312 33.1875 -29.0625 C 32.832031 -31.300781 32.253906 -33.195312 31.453125 -34.75 C 30.660156 -36.300781 29.617188 -37.476562 28.328125 -38.28125 C 27.046875 -39.09375 25.484375 -39.5 23.640625 -39.5 C 21.765625 -39.5 20.175781 -39.09375 18.875 -38.28125 C 17.570312 -37.476562 16.507812 -36.300781 15.6875 -34.75 C 14.863281 -33.195312 14.265625 -31.300781 13.890625 -29.0625 C 13.523438 -26.820312 13.34375 -24.269531 13.34375 -21.40625 Z M 13.34375 -21.40625 "/></g></g></g><g fill="#315395" fill-opacity="1"><g transform="translate(214.114577, 63.547979)"><g><path d="M 35.0625 0 L 11.71875 -32.953125 L 11.71875 -7.0625 C 11.71875 -6.207031 11.800781 -5.523438 11.96875 -5.015625 C 12.132812 -4.515625 12.351562 -4.128906 12.625 -3.859375 C 12.894531 -3.585938 13.21875 -3.40625 13.59375 -3.3125 C 13.976562 -3.226562 14.375 -3.1875 14.78125 -3.1875 L 17.296875 -3.1875 L 17.296875 0 L 1.671875 0 L 1.671875 -3.1875 L 4.171875 -3.1875 C 4.597656 -3.1875 5 -3.226562 5.375 -3.3125 C 5.75 -3.40625 6.078125 -3.585938 6.359375 -3.859375 C 6.640625 -4.128906 6.859375 -4.515625 7.015625 -5.015625 C 7.171875 -5.523438 7.25 -6.207031 7.25 -7.0625 L 7.25 -35.90625 C 7.25 -36.695312 7.164062 -37.332031 7 -37.8125 C 6.832031 -38.289062 6.609375 -38.65625 6.328125 -38.90625 C 6.046875 -39.164062 5.71875 -39.335938 5.34375 -39.421875 C 4.976562 -39.503906 4.585938 -39.546875 4.171875 -39.546875 L 1.671875 -39.546875 L 1.671875 -42.703125 L 14.953125 -42.703125 L 36.078125 -12.859375 L 36.078125 -35.90625 C 36.078125 -36.695312 35.992188 -37.332031 35.828125 -37.8125 C 35.660156 -38.289062 35.4375 -38.65625 35.15625 -38.90625 C 34.875 -39.164062 34.546875 -39.335938 34.171875 -39.421875 C 33.804688 -39.503906 33.421875 -39.546875 33.015625 -39.546875 L 30.5 -39.546875 L 30.5 -42.703125 L 46.125 -42.703125 L 46.125 -39.546875 L 43.609375 -39.546875 C 43.203125 -39.546875 42.8125 -39.503906 42.4375 -39.421875 C 42.070312 -39.335938 41.75 -39.15625 41.46875 -38.875 C 41.1875 -38.601562 40.96875 -38.210938 40.8125 -37.703125 C 40.65625 -37.203125 40.578125 -36.523438 40.578125 -35.671875 L 40.578125 0 Z M 35.0625 0 "/></g></g></g><g fill="#315395" fill-opacity="1"><g transform="translate(257.30443, 63.547979)"><g/></g></g><g fill="#315395" fill-opacity="1"><g transform="translate(268.893613, 63.547979)"><g><path d="M 35.296875 0 L 31.171875 -4.375 C 30.429688 -3.632812 29.609375 -2.960938 28.703125 -2.359375 C 27.796875 -1.753906 26.796875 -1.234375 25.703125 -0.796875 C 24.617188 -0.359375 23.4375 -0.0195312 22.15625 0.21875 C 20.882812 0.457031 19.5 0.578125 18 0.578125 C 15.539062 0.578125 13.363281 0.289062 11.46875 -0.28125 C 9.582031 -0.851562 8 -1.679688 6.71875 -2.765625 C 5.4375 -3.859375 4.460938 -5.191406 3.796875 -6.765625 C 3.128906 -8.347656 2.796875 -10.144531 2.796875 -12.15625 C 2.796875 -13.90625 3.070312 -15.394531 3.625 -16.625 C 4.1875 -17.863281 4.9375 -18.9375 5.875 -19.84375 C 6.8125 -20.75 7.894531 -21.519531 9.125 -22.15625 C 10.363281 -22.789062 11.664062 -23.378906 13.03125 -23.921875 C 12.25 -24.859375 11.570312 -25.75 11 -26.59375 C 10.425781 -27.445312 9.953125 -28.289062 9.578125 -29.125 C 9.210938 -29.957031 8.941406 -30.8125 8.765625 -31.6875 C 8.585938 -32.570312 8.5 -33.519531 8.5 -34.53125 C 8.5 -35.851562 8.75 -37.050781 9.25 -38.125 C 9.757812 -39.195312 10.515625 -40.117188 11.515625 -40.890625 C 12.523438 -41.671875 13.78125 -42.269531 15.28125 -42.6875 C 16.78125 -43.113281 18.519531 -43.328125 20.5 -43.328125 C 22.4375 -43.328125 24.117188 -43.101562 25.546875 -42.65625 C 26.972656 -42.207031 28.160156 -41.59375 29.109375 -40.8125 C 30.054688 -40.03125 30.765625 -39.125 31.234375 -38.09375 C 31.710938 -37.0625 31.953125 -35.972656 31.953125 -34.828125 C 31.953125 -33.617188 31.765625 -32.523438 31.390625 -31.546875 C 31.023438 -30.578125 30.46875 -29.675781 29.71875 -28.84375 C 28.96875 -28.019531 28.023438 -27.242188 26.890625 -26.515625 C 25.753906 -25.796875 24.40625 -25.078125 22.84375 -24.359375 C 22.9375 -24.203125 23.082031 -24.054688 23.28125 -23.921875 L 31.75 -15.015625 C 32.007812 -16.398438 32.175781 -17.769531 32.25 -19.125 C 32.332031 -20.476562 32.375 -21.71875 32.375 -22.84375 L 32.375 -25.46875 L 45.453125 -25.46875 L 45.453125 -22.3125 L 44.515625 -22.3125 C 43.859375 -22.3125 43.210938 -22.269531 42.578125 -22.1875 C 41.941406 -22.113281 41.351562 -21.9375 40.8125 -21.65625 C 40.269531 -21.375 39.785156 -20.960938 39.359375 -20.421875 C 38.941406 -19.890625 38.609375 -19.171875 38.359375 -18.265625 C 38.046875 -17.148438 37.679688 -15.960938 37.265625 -14.703125 C 36.847656 -13.453125 36.335938 -12.179688 35.734375 -10.890625 L 41.6875 -4.671875 C 42.25 -4.066406 42.9375 -3.664062 43.75 -3.46875 C 44.570312 -3.28125 45.519531 -3.1875 46.59375 -3.1875 L 47.15625 -3.1875 L 47.15625 0 Z M 11.59375 -11.859375 C 11.59375 -10.671875 11.78125 -9.566406 12.15625 -8.546875 C 12.539062 -7.523438 13.070312 -6.632812 13.75 -5.875 C 14.4375 -5.113281 15.269531 -4.515625 16.25 -4.078125 C 17.238281 -3.640625 18.328125 -3.421875 19.515625 -3.421875 C 21.640625 -3.421875 23.429688 -3.765625 24.890625 -4.453125 C 26.347656 -5.140625 27.566406 -6.070312 28.546875 -7.25 L 15.75 -20.890625 C 14.90625 -20.285156 14.21875 -19.644531 13.6875 -18.96875 C 13.15625 -18.300781 12.734375 -17.59375 12.421875 -16.84375 C 12.109375 -16.09375 11.890625 -15.300781 11.765625 -14.46875 C 11.648438 -13.644531 11.59375 -12.773438 11.59375 -11.859375 Z M 24.71875 -34.765625 C 24.71875 -35.460938 24.648438 -36.113281 24.515625 -36.71875 C 24.390625 -37.320312 24.171875 -37.847656 23.859375 -38.296875 C 23.554688 -38.742188 23.128906 -39.09375 22.578125 -39.34375 C 22.035156 -39.601562 21.34375 -39.734375 20.5 -39.734375 C 19.84375 -39.734375 19.265625 -39.601562 18.765625 -39.34375 C 18.273438 -39.09375 17.875 -38.742188 17.5625 -38.296875 C 17.25 -37.847656 17.015625 -37.316406 16.859375 -36.703125 C 16.703125 -36.085938 16.625 -35.421875 16.625 -34.703125 C 16.625 -34.023438 16.703125 -33.375 16.859375 -32.75 C 17.015625 -32.125 17.242188 -31.503906 17.546875 -30.890625 C 17.847656 -30.273438 18.226562 -29.65625 18.6875 -29.03125 C 19.15625 -28.414062 19.703125 -27.753906 20.328125 -27.046875 C 21.171875 -27.515625 21.875 -28.007812 22.4375 -28.53125 C 23 -29.0625 23.445312 -29.632812 23.78125 -30.25 C 24.113281 -30.863281 24.351562 -31.539062 24.5 -32.28125 C 24.644531 -33.019531 24.71875 -33.847656 24.71875 -34.765625 Z M 24.71875 -34.765625 "/></g></g></g><g fill="#315395" fill-opacity="1"><g transform="translate(312.842847, 63.547979)"><g/></g></g><g fill="#315395" fill-opacity="1"><g transform="translate(324.432014, 63.547979)"><g><path d="M 30.9375 -31.703125 L 30.640625 -34.59375 C 30.453125 -36.164062 29.972656 -37.300781 29.203125 -38 C 28.429688 -38.707031 27.429688 -39.0625 26.203125 -39.0625 L 16.6875 -39.0625 L 16.6875 -22.734375 L 30.875 -22.734375 L 30.875 -19.1875 L 16.6875 -19.1875 L 16.6875 -7.0625 C 16.6875 -6.207031 16.765625 -5.523438 16.921875 -5.015625 C 17.085938 -4.515625 17.304688 -4.128906 17.578125 -3.859375 C 17.859375 -3.585938 18.191406 -3.40625 18.578125 -3.3125 C 18.960938 -3.226562 19.375 -3.1875 19.8125 -3.1875 L 23.515625 -3.1875 L 23.515625 0 L 1.671875 0 L 1.671875 -3.1875 L 4.171875 -3.1875 C 4.597656 -3.1875 5 -3.222656 5.375 -3.296875 C 5.75 -3.378906 6.078125 -3.539062 6.359375 -3.78125 C 6.640625 -4.019531 6.859375 -4.378906 7.015625 -4.859375 C 7.171875 -5.335938 7.25 -5.96875 7.25 -6.75 L 7.25 -35.90625 C 7.25 -36.695312 7.171875 -37.332031 7.015625 -37.8125 C 6.859375 -38.289062 6.640625 -38.65625 6.359375 -38.90625 C 6.078125 -39.164062 5.75 -39.335938 5.375 -39.421875 C 5 -39.503906 4.597656 -39.546875 4.171875 -39.546875 L 1.671875 -39.546875 L 1.671875 -42.703125 L 34.828125 -42.703125 L 35.109375 -31.703125 Z M 30.9375 -31.703125 "/></g></g></g><g fill="#315395" fill-opacity="1"><g transform="translate(357.633522, 63.547979)"><g><path d="M 1.671875 -3.1875 L 4.171875 -3.1875 C 4.585938 -3.1875 4.976562 -3.222656 5.34375 -3.296875 C 5.71875 -3.378906 6.046875 -3.539062 6.328125 -3.78125 C 6.609375 -4.019531 6.832031 -4.378906 7 -4.859375 C 7.164062 -5.335938 7.25 -5.96875 7.25 -6.75 L 7.25 -35.90625 C 7.25 -36.695312 7.164062 -37.332031 7 -37.8125 C 6.832031 -38.289062 6.609375 -38.65625 6.328125 -38.90625 C 6.046875 -39.164062 5.71875 -39.335938 5.34375 -39.421875 C 4.976562 -39.503906 4.585938 -39.546875 4.171875 -39.546875 L 1.671875 -39.546875 L 1.671875 -42.703125 L 20.953125 -42.703125 C 26.597656 -42.703125 30.738281 -41.757812 33.375 -39.875 C 36.007812 -37.988281 37.328125 -35.242188 37.328125 -31.640625 C 37.328125 -30.054688 37.09375 -28.648438 36.625 -27.421875 C 36.164062 -26.203125 35.550781 -25.132812 34.78125 -24.21875 C 34.007812 -23.300781 33.132812 -22.523438 32.15625 -21.890625 C 31.1875 -21.265625 30.195312 -20.742188 29.1875 -20.328125 L 36.3125 -8.0625 C 36.820312 -7.207031 37.3125 -6.472656 37.78125 -5.859375 C 38.257812 -5.242188 38.738281 -4.734375 39.21875 -4.328125 C 39.695312 -3.929688 40.1875 -3.640625 40.6875 -3.453125 C 41.195312 -3.273438 41.734375 -3.1875 42.296875 -3.1875 L 42.53125 -3.1875 L 42.53125 0 L 40.578125 0 C 38.785156 0 37.222656 -0.0664062 35.890625 -0.203125 C 34.554688 -0.335938 33.382812 -0.601562 32.375 -1 C 31.375 -1.40625 30.507812 -1.957031 29.78125 -2.65625 C 29.050781 -3.351562 28.375 -4.257812 27.75 -5.375 L 20.65625 -18.546875 L 16.6875 -18.546875 L 16.6875 -6.75 C 16.6875 -5.96875 16.765625 -5.335938 16.921875 -4.859375 C 17.085938 -4.378906 17.3125 -4.019531 17.59375 -3.78125 C 17.882812 -3.539062 18.210938 -3.378906 18.578125 -3.296875 C 18.953125 -3.222656 19.34375 -3.1875 19.75 -3.1875 L 22.3125 -3.1875 L 22.3125 0 L 1.671875 0 Z M 16.6875 -22.03125 L 20.046875 -22.03125 C 21.421875 -22.03125 22.570312 -22.210938 23.5 -22.578125 C 24.425781 -22.953125 25.164062 -23.503906 25.71875 -24.234375 C 26.269531 -24.960938 26.664062 -25.875 26.90625 -26.96875 C 27.15625 -28.070312 27.28125 -29.351562 27.28125 -30.8125 C 27.28125 -32.332031 27.144531 -33.617188 26.875 -34.671875 C 26.601562 -35.722656 26.175781 -36.582031 25.59375 -37.25 C 25.007812 -37.925781 24.25 -38.414062 23.3125 -38.71875 C 22.375 -39.019531 21.242188 -39.171875 19.921875 -39.171875 L 16.6875 -39.171875 Z M 16.6875 -22.03125 "/></g></g></g><g fill="#315395" fill-opacity="1"><g transform="translate(395.975184, 63.547979)"><g><path d="M 13.03125 -14.046875 L 11.3125 -8.90625 C 11.15625 -8.414062 10.992188 -7.84375 10.828125 -7.1875 C 10.660156 -6.539062 10.578125 -5.972656 10.578125 -5.484375 C 10.578125 -5.097656 10.65625 -4.757812 10.8125 -4.46875 C 10.96875 -4.175781 11.171875 -3.9375 11.421875 -3.75 C 11.671875 -3.5625 11.957031 -3.421875 12.28125 -3.328125 C 12.601562 -3.234375 12.941406 -3.1875 13.296875 -3.1875 L 15.796875 -3.1875 L 15.796875 0 L 0.234375 0 L 0.234375 -3.1875 L 0.96875 -3.1875 C 1.488281 -3.1875 1.96875 -3.242188 2.40625 -3.359375 C 2.84375 -3.472656 3.25 -3.691406 3.625 -4.015625 C 4.007812 -4.335938 4.375 -4.78125 4.71875 -5.34375 C 5.0625 -5.90625 5.40625 -6.632812 5.75 -7.53125 L 18.71875 -42.703125 L 26.9375 -42.703125 L 39.4375 -7.484375 C 39.726562 -6.640625 40.035156 -5.941406 40.359375 -5.390625 C 40.679688 -4.835938 41.03125 -4.398438 41.40625 -4.078125 C 41.789062 -3.753906 42.195312 -3.523438 42.625 -3.390625 C 43.050781 -3.253906 43.5 -3.1875 43.96875 -3.1875 L 45.046875 -3.1875 L 45.046875 0 L 25.296875 0 L 25.296875 -3.1875 L 27.640625 -3.1875 C 27.929688 -3.1875 28.234375 -3.226562 28.546875 -3.3125 C 28.859375 -3.40625 29.132812 -3.539062 29.375 -3.71875 C 29.613281 -3.90625 29.8125 -4.144531 29.96875 -4.4375 C 30.125 -4.726562 30.203125 -5.078125 30.203125 -5.484375 C 30.203125 -5.972656 30.144531 -6.441406 30.03125 -6.890625 C 29.914062 -7.335938 29.800781 -7.726562 29.6875 -8.0625 L 27.578125 -14.046875 Z M 23.21875 -27.515625 C 23.007812 -28.203125 22.789062 -28.921875 22.5625 -29.671875 C 22.34375 -30.421875 22.117188 -31.179688 21.890625 -31.953125 C 21.671875 -32.734375 21.457031 -33.507812 21.25 -34.28125 C 21.050781 -35.050781 20.875 -35.785156 20.71875 -36.484375 C 20.539062 -35.878906 20.332031 -35.21875 20.09375 -34.5 C 19.863281 -33.78125 19.613281 -33.039062 19.34375 -32.28125 C 19.082031 -31.519531 18.820312 -30.757812 18.5625 -30 C 18.300781 -29.238281 18.050781 -28.507812 17.8125 -27.8125 L 14.28125 -17.703125 L 26.375 -17.703125 Z M 23.21875 -27.515625 "/></g></g></g><g fill="#315395" fill-opacity="1"><g transform="translate(437.062221, 63.547979)"><g><path d="M 35.0625 0 L 11.71875 -32.953125 L 11.71875 -7.0625 C 11.71875 -6.207031 11.800781 -5.523438 11.96875 -5.015625 C 12.132812 -4.515625 12.351562 -4.128906 12.625 -3.859375 C 12.894531 -3.585938 13.21875 -3.40625 13.59375 -3.3125 C 13.976562 -3.226562 14.375 -3.1875 14.78125 -3.1875 L 17.296875 -3.1875 L 17.296875 0 L 1.671875 0 L 1.671875 -3.1875 L 4.171875 -3.1875 C 4.597656 -3.1875 5 -3.226562 5.375 -3.3125 C 5.75 -3.40625 6.078125 -3.585938 6.359375 -3.859375 C 6.640625 -4.128906 6.859375 -4.515625 7.015625 -5.015625 C 7.171875 -5.523438 7.25 -6.207031 7.25 -7.0625 L 7.25 -35.90625 C 7.25 -36.695312 7.164062 -37.332031 7 -37.8125 C 6.832031 -38.289062 6.609375 -38.65625 6.328125 -38.90625 C 6.046875 -39.164062 5.71875 -39.335938 5.34375 -39.421875 C 4.976562 -39.503906 4.585938 -39.546875 4.171875 -39.546875 L 1.671875 -39.546875 L 1.671875 -42.703125 L 14.953125 -42.703125 L 36.078125 -12.859375 L 36.078125 -35.90625 C 36.078125 -36.695312 35.992188 -37.332031 35.828125 -37.8125 C 35.660156 -38.289062 35.4375 -38.65625 35.15625 -38.90625 C 34.875 -39.164062 34.546875 -39.335938 34.171875 -39.421875 C 33.804688 -39.503906 33.421875 -39.546875 33.015625 -39.546875 L 30.5 -39.546875 L 30.5 -42.703125 L 46.125 -42.703125 L 46.125 -39.546875 L 43.609375 -39.546875 C 43.203125 -39.546875 42.8125 -39.503906 42.4375 -39.421875 C 42.070312 -39.335938 41.75 -39.15625 41.46875 -38.875 C 41.1875 -38.601562 40.96875 -38.210938 40.8125 -37.703125 C 40.65625 -37.203125 40.578125 -36.523438 40.578125 -35.671875 L 40.578125 0 Z M 35.0625 0 "/></g></g></g><g fill="#315395" fill-opacity="1"><g transform="translate(480.252074, 63.547979)"><g><path d="M 25.96875 -31.84375 C 26.613281 -32.519531 27.15625 -33.132812 27.59375 -33.6875 C 28.03125 -34.25 28.378906 -34.769531 28.640625 -35.25 C 28.898438 -35.726562 29.085938 -36.179688 29.203125 -36.609375 C 29.328125 -37.035156 29.390625 -37.453125 29.390625 -37.859375 C 29.390625 -38.523438 29.132812 -38.984375 28.625 -39.234375 C 28.125 -39.484375 27.257812 -39.609375 26.03125 -39.609375 L 26.03125 -42.703125 L 42.234375 -42.703125 L 42.234375 -39.609375 C 41.421875 -39.609375 40.648438 -39.484375 39.921875 -39.234375 C 39.191406 -38.984375 38.472656 -38.625 37.765625 -38.15625 C 37.066406 -37.6875 36.375 -37.128906 35.6875 -36.484375 C 35.007812 -35.835938 34.320312 -35.128906 33.625 -34.359375 L 25.734375 -25.671875 L 36.859375 -8 C 37.453125 -7.070312 38.015625 -6.300781 38.546875 -5.6875 C 39.078125 -5.070312 39.613281 -4.578125 40.15625 -4.203125 C 40.707031 -3.835938 41.265625 -3.578125 41.828125 -3.421875 C 42.398438 -3.265625 43.015625 -3.1875 43.671875 -3.1875 L 43.90625 -3.1875 L 43.90625 0 L 40.6875 0 C 39.175781 0 37.84375 -0.046875 36.6875 -0.140625 C 35.539062 -0.242188 34.535156 -0.390625 33.671875 -0.578125 C 32.804688 -0.773438 32.0625 -1.023438 31.4375 -1.328125 C 30.8125 -1.628906 30.265625 -1.984375 29.796875 -2.390625 C 29.328125 -2.804688 28.898438 -3.269531 28.515625 -3.78125 C 28.140625 -4.300781 27.769531 -4.867188 27.40625 -5.484375 L 19.34375 -19.25 L 16.6875 -17.171875 L 16.6875 -7.0625 C 16.6875 -6.207031 16.765625 -5.523438 16.921875 -5.015625 C 17.085938 -4.515625 17.304688 -4.128906 17.578125 -3.859375 C 17.859375 -3.585938 18.191406 -3.40625 18.578125 -3.3125 C 18.960938 -3.226562 19.375 -3.1875 19.8125 -3.1875 L 22.3125 -3.1875 L 22.3125 0 L 1.671875 0 L 1.671875 -3.1875 L 4.171875 -3.1875 C 4.597656 -3.1875 5 -3.222656 5.375 -3.296875 C 5.75 -3.378906 6.078125 -3.539062 6.359375 -3.78125 C 6.640625 -4.019531 6.859375 -4.378906 7.015625 -4.859375 C 7.171875 -5.335938 7.25 -5.96875 7.25 -6.75 L 7.25 -35.90625 C 7.25 -36.695312 7.171875 -37.332031 7.015625 -37.8125 C 6.859375 -38.289062 6.640625 -38.65625 6.359375 -38.90625 C 6.078125 -39.164062 5.75 -39.335938 5.375 -39.421875 C 5 -39.503906 4.597656 -39.546875 4.171875 -39.546875 L 1.671875 -39.546875 L 1.671875 -42.703125 L 22.3125 -42.703125 L 22.3125 -39.546875 L 19.8125 -39.546875 C 19.375 -39.546875 18.960938 -39.503906 18.578125 -39.421875 C 18.191406 -39.335938 17.859375 -39.15625 17.578125 -38.875 C 17.304688 -38.601562 17.085938 -38.210938 16.921875 -37.703125 C 16.765625 -37.203125 16.6875 -36.523438 16.6875 -35.671875 L 16.6875 -21.703125 Z M 25.96875 -31.84375 "/></g></g></g></g></g></svg>